%TF.GenerationSoftware,KiCad,Pcbnew,(6.0.2)*%
%TF.CreationDate,2022-04-07T11:24:37-04:00*%
%TF.ProjectId,Grad_Cap_v2,47726164-5f43-4617-905f-76322e6b6963,v01*%
%TF.SameCoordinates,Original*%
%TF.FileFunction,Legend,Top*%
%TF.FilePolarity,Positive*%
%FSLAX46Y46*%
G04 Gerber Fmt 4.6, Leading zero omitted, Abs format (unit mm)*
G04 Created by KiCad (PCBNEW (6.0.2)) date 2022-04-07 11:24:37*
%MOMM*%
%LPD*%
G01*
G04 APERTURE LIST*
%ADD10C,0.150000*%
%ADD11C,0.120000*%
%ADD12C,0.100000*%
G04 APERTURE END LIST*
D10*
X136313333Y-167519047D02*
X136313333Y-164979047D01*
X136313333Y-166188571D02*
X137764761Y-166188571D01*
X137764761Y-167519047D02*
X137764761Y-164979047D01*
X139337142Y-167519047D02*
X139095238Y-167398095D01*
X138974285Y-167277142D01*
X138853333Y-167035238D01*
X138853333Y-166309523D01*
X138974285Y-166067619D01*
X139095238Y-165946666D01*
X139337142Y-165825714D01*
X139700000Y-165825714D01*
X139941904Y-165946666D01*
X140062857Y-166067619D01*
X140183809Y-166309523D01*
X140183809Y-167035238D01*
X140062857Y-167277142D01*
X139941904Y-167398095D01*
X139700000Y-167519047D01*
X139337142Y-167519047D01*
X141635238Y-167519047D02*
X141393333Y-167398095D01*
X141272380Y-167156190D01*
X141272380Y-164979047D01*
X142965714Y-167519047D02*
X142723809Y-167398095D01*
X142602857Y-167156190D01*
X142602857Y-164979047D01*
X145021904Y-167519047D02*
X145021904Y-166188571D01*
X144900952Y-165946666D01*
X144659047Y-165825714D01*
X144175238Y-165825714D01*
X143933333Y-165946666D01*
X145021904Y-167398095D02*
X144780000Y-167519047D01*
X144175238Y-167519047D01*
X143933333Y-167398095D01*
X143812380Y-167156190D01*
X143812380Y-166914285D01*
X143933333Y-166672380D01*
X144175238Y-166551428D01*
X144780000Y-166551428D01*
X145021904Y-166430476D01*
X145989523Y-165825714D02*
X146473333Y-167519047D01*
X146957142Y-166309523D01*
X147440952Y-167519047D01*
X147924761Y-165825714D01*
X149980952Y-167519047D02*
X149980952Y-166188571D01*
X149860000Y-165946666D01*
X149618095Y-165825714D01*
X149134285Y-165825714D01*
X148892380Y-165946666D01*
X149980952Y-167398095D02*
X149739047Y-167519047D01*
X149134285Y-167519047D01*
X148892380Y-167398095D01*
X148771428Y-167156190D01*
X148771428Y-166914285D01*
X148892380Y-166672380D01*
X149134285Y-166551428D01*
X149739047Y-166551428D01*
X149980952Y-166430476D01*
X150948571Y-165825714D02*
X151553333Y-167519047D01*
X152158095Y-165825714D02*
X151553333Y-167519047D01*
X151311428Y-168123809D01*
X151190476Y-168244761D01*
X150948571Y-168365714D01*
X155060952Y-167519047D02*
X155060952Y-164979047D01*
X155665714Y-164979047D01*
X156028571Y-165100000D01*
X156270476Y-165341904D01*
X156391428Y-165583809D01*
X156512380Y-166067619D01*
X156512380Y-166430476D01*
X156391428Y-166914285D01*
X156270476Y-167156190D01*
X156028571Y-167398095D01*
X155665714Y-167519047D01*
X155060952Y-167519047D01*
X158568571Y-167398095D02*
X158326666Y-167519047D01*
X157842857Y-167519047D01*
X157600952Y-167398095D01*
X157480000Y-167156190D01*
X157480000Y-166188571D01*
X157600952Y-165946666D01*
X157842857Y-165825714D01*
X158326666Y-165825714D01*
X158568571Y-165946666D01*
X158689523Y-166188571D01*
X158689523Y-166430476D01*
X157480000Y-166672380D01*
X159657142Y-167398095D02*
X159899047Y-167519047D01*
X160382857Y-167519047D01*
X160624761Y-167398095D01*
X160745714Y-167156190D01*
X160745714Y-167035238D01*
X160624761Y-166793333D01*
X160382857Y-166672380D01*
X160020000Y-166672380D01*
X159778095Y-166551428D01*
X159657142Y-166309523D01*
X159657142Y-166188571D01*
X159778095Y-165946666D01*
X160020000Y-165825714D01*
X160382857Y-165825714D01*
X160624761Y-165946666D01*
X161834285Y-167519047D02*
X161834285Y-165825714D01*
X161834285Y-164979047D02*
X161713333Y-165100000D01*
X161834285Y-165220952D01*
X161955238Y-165100000D01*
X161834285Y-164979047D01*
X161834285Y-165220952D01*
X164132380Y-165825714D02*
X164132380Y-167881904D01*
X164011428Y-168123809D01*
X163890476Y-168244761D01*
X163648571Y-168365714D01*
X163285714Y-168365714D01*
X163043809Y-168244761D01*
X164132380Y-167398095D02*
X163890476Y-167519047D01*
X163406666Y-167519047D01*
X163164761Y-167398095D01*
X163043809Y-167277142D01*
X162922857Y-167035238D01*
X162922857Y-166309523D01*
X163043809Y-166067619D01*
X163164761Y-165946666D01*
X163406666Y-165825714D01*
X163890476Y-165825714D01*
X164132380Y-165946666D01*
X165341904Y-165825714D02*
X165341904Y-167519047D01*
X165341904Y-166067619D02*
X165462857Y-165946666D01*
X165704761Y-165825714D01*
X166067619Y-165825714D01*
X166309523Y-165946666D01*
X166430476Y-166188571D01*
X166430476Y-167519047D01*
X167519047Y-167398095D02*
X167760952Y-167519047D01*
X168244761Y-167519047D01*
X168486666Y-167398095D01*
X168607619Y-167156190D01*
X168607619Y-167035238D01*
X168486666Y-166793333D01*
X168244761Y-166672380D01*
X167881904Y-166672380D01*
X167640000Y-166551428D01*
X167519047Y-166309523D01*
X167519047Y-166188571D01*
X167640000Y-165946666D01*
X167881904Y-165825714D01*
X168244761Y-165825714D01*
X168486666Y-165946666D01*
X142240000Y-12794947D02*
X143691428Y-12794947D01*
X142965714Y-15334947D02*
X142965714Y-12794947D01*
X144538095Y-15334947D02*
X144538095Y-12794947D01*
X145626666Y-15334947D02*
X145626666Y-14004471D01*
X145505714Y-13762566D01*
X145263809Y-13641614D01*
X144900952Y-13641614D01*
X144659047Y-13762566D01*
X144538095Y-13883519D01*
X147924761Y-15334947D02*
X147924761Y-14004471D01*
X147803809Y-13762566D01*
X147561904Y-13641614D01*
X147078095Y-13641614D01*
X146836190Y-13762566D01*
X147924761Y-15213995D02*
X147682857Y-15334947D01*
X147078095Y-15334947D01*
X146836190Y-15213995D01*
X146715238Y-14972090D01*
X146715238Y-14730185D01*
X146836190Y-14488280D01*
X147078095Y-14367328D01*
X147682857Y-14367328D01*
X147924761Y-14246376D01*
X149134285Y-13641614D02*
X149134285Y-15334947D01*
X149134285Y-13883519D02*
X149255238Y-13762566D01*
X149497142Y-13641614D01*
X149860000Y-13641614D01*
X150101904Y-13762566D01*
X150222857Y-14004471D01*
X150222857Y-15334947D01*
X151432380Y-15334947D02*
X151432380Y-12794947D01*
X151674285Y-14367328D02*
X152400000Y-15334947D01*
X152400000Y-13641614D02*
X151432380Y-14609233D01*
X155907619Y-14125423D02*
X155907619Y-15334947D01*
X155060952Y-12794947D02*
X155907619Y-14125423D01*
X156754285Y-12794947D01*
X157963809Y-15334947D02*
X157721904Y-15213995D01*
X157600952Y-15093042D01*
X157480000Y-14851138D01*
X157480000Y-14125423D01*
X157600952Y-13883519D01*
X157721904Y-13762566D01*
X157963809Y-13641614D01*
X158326666Y-13641614D01*
X158568571Y-13762566D01*
X158689523Y-13883519D01*
X158810476Y-14125423D01*
X158810476Y-14851138D01*
X158689523Y-15093042D01*
X158568571Y-15213995D01*
X158326666Y-15334947D01*
X157963809Y-15334947D01*
X160987619Y-13641614D02*
X160987619Y-15334947D01*
X159899047Y-13641614D02*
X159899047Y-14972090D01*
X160020000Y-15213995D01*
X160261904Y-15334947D01*
X160624761Y-15334947D01*
X160866666Y-15213995D01*
X160987619Y-15093042D01*
X162197142Y-15093042D02*
X162318095Y-15213995D01*
X162197142Y-15334947D01*
X162076190Y-15213995D01*
X162197142Y-15093042D01*
X162197142Y-15334947D01*
X162197142Y-14367328D02*
X162076190Y-12915900D01*
X162197142Y-12794947D01*
X162318095Y-12915900D01*
X162197142Y-14367328D01*
X162197142Y-12794947D01*
X148710952Y-19424347D02*
X148710952Y-16884347D01*
X149557619Y-18698633D01*
X150404285Y-16884347D01*
X150404285Y-19424347D01*
X151976666Y-19424347D02*
X151734761Y-19303395D01*
X151613809Y-19182442D01*
X151492857Y-18940538D01*
X151492857Y-18214823D01*
X151613809Y-17972919D01*
X151734761Y-17851966D01*
X151976666Y-17731014D01*
X152339523Y-17731014D01*
X152581428Y-17851966D01*
X152702380Y-17972919D01*
X152823333Y-18214823D01*
X152823333Y-18940538D01*
X152702380Y-19182442D01*
X152581428Y-19303395D01*
X152339523Y-19424347D01*
X151976666Y-19424347D01*
X153911904Y-19424347D02*
X153911904Y-17731014D01*
X153911904Y-17972919D02*
X154032857Y-17851966D01*
X154274761Y-17731014D01*
X154637619Y-17731014D01*
X154879523Y-17851966D01*
X155000476Y-18093871D01*
X155000476Y-19424347D01*
X155000476Y-18093871D02*
X155121428Y-17851966D01*
X155363333Y-17731014D01*
X155726190Y-17731014D01*
X155968095Y-17851966D01*
X156089047Y-18093871D01*
X156089047Y-19424347D01*
X149436666Y-23513747D02*
X149436666Y-20973747D01*
X150041428Y-20973747D01*
X150404285Y-21094700D01*
X150646190Y-21336604D01*
X150767142Y-21578509D01*
X150888095Y-22062319D01*
X150888095Y-22425176D01*
X150767142Y-22908985D01*
X150646190Y-23150890D01*
X150404285Y-23392795D01*
X150041428Y-23513747D01*
X149436666Y-23513747D01*
X153065238Y-23513747D02*
X153065238Y-22183271D01*
X152944285Y-21941366D01*
X152702380Y-21820414D01*
X152218571Y-21820414D01*
X151976666Y-21941366D01*
X153065238Y-23392795D02*
X152823333Y-23513747D01*
X152218571Y-23513747D01*
X151976666Y-23392795D01*
X151855714Y-23150890D01*
X151855714Y-22908985D01*
X151976666Y-22667080D01*
X152218571Y-22546128D01*
X152823333Y-22546128D01*
X153065238Y-22425176D01*
X155363333Y-23513747D02*
X155363333Y-20973747D01*
X155363333Y-23392795D02*
X155121428Y-23513747D01*
X154637619Y-23513747D01*
X154395714Y-23392795D01*
X154274761Y-23271842D01*
X154153809Y-23029938D01*
X154153809Y-22304223D01*
X154274761Y-22062319D01*
X154395714Y-21941366D01*
X154637619Y-21820414D01*
X155121428Y-21820414D01*
X155363333Y-21941366D01*
X149255238Y-25184100D02*
X149013333Y-25063147D01*
X148650476Y-25063147D01*
X148287619Y-25184100D01*
X148045714Y-25426004D01*
X147924761Y-25667909D01*
X147803809Y-26151719D01*
X147803809Y-26514576D01*
X147924761Y-26998385D01*
X148045714Y-27240290D01*
X148287619Y-27482195D01*
X148650476Y-27603147D01*
X148892380Y-27603147D01*
X149255238Y-27482195D01*
X149376190Y-27361242D01*
X149376190Y-26514576D01*
X148892380Y-26514576D01*
X150464761Y-27603147D02*
X150464761Y-25909814D01*
X150464761Y-26393623D02*
X150585714Y-26151719D01*
X150706666Y-26030766D01*
X150948571Y-25909814D01*
X151190476Y-25909814D01*
X153125714Y-27603147D02*
X153125714Y-26272671D01*
X153004761Y-26030766D01*
X152762857Y-25909814D01*
X152279047Y-25909814D01*
X152037142Y-26030766D01*
X153125714Y-27482195D02*
X152883809Y-27603147D01*
X152279047Y-27603147D01*
X152037142Y-27482195D01*
X151916190Y-27240290D01*
X151916190Y-26998385D01*
X152037142Y-26756480D01*
X152279047Y-26635528D01*
X152883809Y-26635528D01*
X153125714Y-26514576D01*
X154335238Y-25909814D02*
X154335238Y-27603147D01*
X154335238Y-26151719D02*
X154456190Y-26030766D01*
X154698095Y-25909814D01*
X155060952Y-25909814D01*
X155302857Y-26030766D01*
X155423809Y-26272671D01*
X155423809Y-27603147D01*
X156270476Y-25909814D02*
X157238095Y-25909814D01*
X156633333Y-25063147D02*
X156633333Y-27240290D01*
X156754285Y-27482195D01*
X156996190Y-27603147D01*
X157238095Y-27603147D01*
%TO.C,U3*%
X184668095Y-82202380D02*
X184668095Y-83011904D01*
X184715714Y-83107142D01*
X184763333Y-83154761D01*
X184858571Y-83202380D01*
X185049047Y-83202380D01*
X185144285Y-83154761D01*
X185191904Y-83107142D01*
X185239523Y-83011904D01*
X185239523Y-82202380D01*
X185620476Y-82202380D02*
X186239523Y-82202380D01*
X185906190Y-82583333D01*
X186049047Y-82583333D01*
X186144285Y-82630952D01*
X186191904Y-82678571D01*
X186239523Y-82773809D01*
X186239523Y-83011904D01*
X186191904Y-83107142D01*
X186144285Y-83154761D01*
X186049047Y-83202380D01*
X185763333Y-83202380D01*
X185668095Y-83154761D01*
X185620476Y-83107142D01*
%TO.C,D30*%
X151185714Y-68882380D02*
X151185714Y-67882380D01*
X151423809Y-67882380D01*
X151566666Y-67930000D01*
X151661904Y-68025238D01*
X151709523Y-68120476D01*
X151757142Y-68310952D01*
X151757142Y-68453809D01*
X151709523Y-68644285D01*
X151661904Y-68739523D01*
X151566666Y-68834761D01*
X151423809Y-68882380D01*
X151185714Y-68882380D01*
X152090476Y-67882380D02*
X152709523Y-67882380D01*
X152376190Y-68263333D01*
X152519047Y-68263333D01*
X152614285Y-68310952D01*
X152661904Y-68358571D01*
X152709523Y-68453809D01*
X152709523Y-68691904D01*
X152661904Y-68787142D01*
X152614285Y-68834761D01*
X152519047Y-68882380D01*
X152233333Y-68882380D01*
X152138095Y-68834761D01*
X152090476Y-68787142D01*
X153328571Y-67882380D02*
X153423809Y-67882380D01*
X153519047Y-67930000D01*
X153566666Y-67977619D01*
X153614285Y-68072857D01*
X153661904Y-68263333D01*
X153661904Y-68501428D01*
X153614285Y-68691904D01*
X153566666Y-68787142D01*
X153519047Y-68834761D01*
X153423809Y-68882380D01*
X153328571Y-68882380D01*
X153233333Y-68834761D01*
X153185714Y-68787142D01*
X153138095Y-68691904D01*
X153090476Y-68501428D01*
X153090476Y-68263333D01*
X153138095Y-68072857D01*
X153185714Y-67977619D01*
X153233333Y-67930000D01*
X153328571Y-67882380D01*
%TO.C,D4*%
X170711904Y-129842380D02*
X170711904Y-128842380D01*
X170950000Y-128842380D01*
X171092857Y-128890000D01*
X171188095Y-128985238D01*
X171235714Y-129080476D01*
X171283333Y-129270952D01*
X171283333Y-129413809D01*
X171235714Y-129604285D01*
X171188095Y-129699523D01*
X171092857Y-129794761D01*
X170950000Y-129842380D01*
X170711904Y-129842380D01*
X172140476Y-129175714D02*
X172140476Y-129842380D01*
X171902380Y-128794761D02*
X171664285Y-129509047D01*
X172283333Y-129509047D01*
%TO.C,D32*%
X170235714Y-33322380D02*
X170235714Y-32322380D01*
X170473809Y-32322380D01*
X170616666Y-32370000D01*
X170711904Y-32465238D01*
X170759523Y-32560476D01*
X170807142Y-32750952D01*
X170807142Y-32893809D01*
X170759523Y-33084285D01*
X170711904Y-33179523D01*
X170616666Y-33274761D01*
X170473809Y-33322380D01*
X170235714Y-33322380D01*
X171140476Y-32322380D02*
X171759523Y-32322380D01*
X171426190Y-32703333D01*
X171569047Y-32703333D01*
X171664285Y-32750952D01*
X171711904Y-32798571D01*
X171759523Y-32893809D01*
X171759523Y-33131904D01*
X171711904Y-33227142D01*
X171664285Y-33274761D01*
X171569047Y-33322380D01*
X171283333Y-33322380D01*
X171188095Y-33274761D01*
X171140476Y-33227142D01*
X172140476Y-32417619D02*
X172188095Y-32370000D01*
X172283333Y-32322380D01*
X172521428Y-32322380D01*
X172616666Y-32370000D01*
X172664285Y-32417619D01*
X172711904Y-32512857D01*
X172711904Y-32608095D01*
X172664285Y-32750952D01*
X172092857Y-33322380D01*
X172711904Y-33322380D01*
%TO.C,C7*%
X208077142Y-129436666D02*
X208124761Y-129484285D01*
X208172380Y-129627142D01*
X208172380Y-129722380D01*
X208124761Y-129865238D01*
X208029523Y-129960476D01*
X207934285Y-130008095D01*
X207743809Y-130055714D01*
X207600952Y-130055714D01*
X207410476Y-130008095D01*
X207315238Y-129960476D01*
X207220000Y-129865238D01*
X207172380Y-129722380D01*
X207172380Y-129627142D01*
X207220000Y-129484285D01*
X207267619Y-129436666D01*
X207172380Y-129103333D02*
X207172380Y-128436666D01*
X208172380Y-128865238D01*
%TO.C,U1*%
X215148095Y-82222380D02*
X215148095Y-83031904D01*
X215195714Y-83127142D01*
X215243333Y-83174761D01*
X215338571Y-83222380D01*
X215529047Y-83222380D01*
X215624285Y-83174761D01*
X215671904Y-83127142D01*
X215719523Y-83031904D01*
X215719523Y-82222380D01*
X216719523Y-83222380D02*
X216148095Y-83222380D01*
X216433809Y-83222380D02*
X216433809Y-82222380D01*
X216338571Y-82365238D01*
X216243333Y-82460476D01*
X216148095Y-82508095D01*
%TO.C,D18*%
X188015714Y-120952380D02*
X188015714Y-119952380D01*
X188253809Y-119952380D01*
X188396666Y-120000000D01*
X188491904Y-120095238D01*
X188539523Y-120190476D01*
X188587142Y-120380952D01*
X188587142Y-120523809D01*
X188539523Y-120714285D01*
X188491904Y-120809523D01*
X188396666Y-120904761D01*
X188253809Y-120952380D01*
X188015714Y-120952380D01*
X189539523Y-120952380D02*
X188968095Y-120952380D01*
X189253809Y-120952380D02*
X189253809Y-119952380D01*
X189158571Y-120095238D01*
X189063333Y-120190476D01*
X188968095Y-120238095D01*
X190110952Y-120380952D02*
X190015714Y-120333333D01*
X189968095Y-120285714D01*
X189920476Y-120190476D01*
X189920476Y-120142857D01*
X189968095Y-120047619D01*
X190015714Y-120000000D01*
X190110952Y-119952380D01*
X190301428Y-119952380D01*
X190396666Y-120000000D01*
X190444285Y-120047619D01*
X190491904Y-120142857D01*
X190491904Y-120190476D01*
X190444285Y-120285714D01*
X190396666Y-120333333D01*
X190301428Y-120380952D01*
X190110952Y-120380952D01*
X190015714Y-120428571D01*
X189968095Y-120476190D01*
X189920476Y-120571428D01*
X189920476Y-120761904D01*
X189968095Y-120857142D01*
X190015714Y-120904761D01*
X190110952Y-120952380D01*
X190301428Y-120952380D01*
X190396666Y-120904761D01*
X190444285Y-120857142D01*
X190491904Y-120761904D01*
X190491904Y-120571428D01*
X190444285Y-120476190D01*
X190396666Y-120428571D01*
X190301428Y-120380952D01*
%TO.C,D20*%
X188015714Y-112062380D02*
X188015714Y-111062380D01*
X188253809Y-111062380D01*
X188396666Y-111110000D01*
X188491904Y-111205238D01*
X188539523Y-111300476D01*
X188587142Y-111490952D01*
X188587142Y-111633809D01*
X188539523Y-111824285D01*
X188491904Y-111919523D01*
X188396666Y-112014761D01*
X188253809Y-112062380D01*
X188015714Y-112062380D01*
X188968095Y-111157619D02*
X189015714Y-111110000D01*
X189110952Y-111062380D01*
X189349047Y-111062380D01*
X189444285Y-111110000D01*
X189491904Y-111157619D01*
X189539523Y-111252857D01*
X189539523Y-111348095D01*
X189491904Y-111490952D01*
X188920476Y-112062380D01*
X189539523Y-112062380D01*
X190158571Y-111062380D02*
X190253809Y-111062380D01*
X190349047Y-111110000D01*
X190396666Y-111157619D01*
X190444285Y-111252857D01*
X190491904Y-111443333D01*
X190491904Y-111681428D01*
X190444285Y-111871904D01*
X190396666Y-111967142D01*
X190349047Y-112014761D01*
X190253809Y-112062380D01*
X190158571Y-112062380D01*
X190063333Y-112014761D01*
X190015714Y-111967142D01*
X189968095Y-111871904D01*
X189920476Y-111681428D01*
X189920476Y-111443333D01*
X189968095Y-111252857D01*
X190015714Y-111157619D01*
X190063333Y-111110000D01*
X190158571Y-111062380D01*
%TO.C,D14*%
X188015714Y-147622380D02*
X188015714Y-146622380D01*
X188253809Y-146622380D01*
X188396666Y-146670000D01*
X188491904Y-146765238D01*
X188539523Y-146860476D01*
X188587142Y-147050952D01*
X188587142Y-147193809D01*
X188539523Y-147384285D01*
X188491904Y-147479523D01*
X188396666Y-147574761D01*
X188253809Y-147622380D01*
X188015714Y-147622380D01*
X189539523Y-147622380D02*
X188968095Y-147622380D01*
X189253809Y-147622380D02*
X189253809Y-146622380D01*
X189158571Y-146765238D01*
X189063333Y-146860476D01*
X188968095Y-146908095D01*
X190396666Y-146955714D02*
X190396666Y-147622380D01*
X190158571Y-146574761D02*
X189920476Y-147289047D01*
X190539523Y-147289047D01*
%TO.C,D3*%
X114831904Y-33322380D02*
X114831904Y-32322380D01*
X115070000Y-32322380D01*
X115212857Y-32370000D01*
X115308095Y-32465238D01*
X115355714Y-32560476D01*
X115403333Y-32750952D01*
X115403333Y-32893809D01*
X115355714Y-33084285D01*
X115308095Y-33179523D01*
X115212857Y-33274761D01*
X115070000Y-33322380D01*
X114831904Y-33322380D01*
X115736666Y-32322380D02*
X116355714Y-32322380D01*
X116022380Y-32703333D01*
X116165238Y-32703333D01*
X116260476Y-32750952D01*
X116308095Y-32798571D01*
X116355714Y-32893809D01*
X116355714Y-33131904D01*
X116308095Y-33227142D01*
X116260476Y-33274761D01*
X116165238Y-33322380D01*
X115879523Y-33322380D01*
X115784285Y-33274761D01*
X115736666Y-33227142D01*
%TO.C,D47*%
X114355714Y-138732380D02*
X114355714Y-137732380D01*
X114593809Y-137732380D01*
X114736666Y-137780000D01*
X114831904Y-137875238D01*
X114879523Y-137970476D01*
X114927142Y-138160952D01*
X114927142Y-138303809D01*
X114879523Y-138494285D01*
X114831904Y-138589523D01*
X114736666Y-138684761D01*
X114593809Y-138732380D01*
X114355714Y-138732380D01*
X115784285Y-138065714D02*
X115784285Y-138732380D01*
X115546190Y-137684761D02*
X115308095Y-138399047D01*
X115927142Y-138399047D01*
X116212857Y-137732380D02*
X116879523Y-137732380D01*
X116450952Y-138732380D01*
%TO.C,D63*%
X123245714Y-147622380D02*
X123245714Y-146622380D01*
X123483809Y-146622380D01*
X123626666Y-146670000D01*
X123721904Y-146765238D01*
X123769523Y-146860476D01*
X123817142Y-147050952D01*
X123817142Y-147193809D01*
X123769523Y-147384285D01*
X123721904Y-147479523D01*
X123626666Y-147574761D01*
X123483809Y-147622380D01*
X123245714Y-147622380D01*
X124674285Y-146622380D02*
X124483809Y-146622380D01*
X124388571Y-146670000D01*
X124340952Y-146717619D01*
X124245714Y-146860476D01*
X124198095Y-147050952D01*
X124198095Y-147431904D01*
X124245714Y-147527142D01*
X124293333Y-147574761D01*
X124388571Y-147622380D01*
X124579047Y-147622380D01*
X124674285Y-147574761D01*
X124721904Y-147527142D01*
X124769523Y-147431904D01*
X124769523Y-147193809D01*
X124721904Y-147098571D01*
X124674285Y-147050952D01*
X124579047Y-147003333D01*
X124388571Y-147003333D01*
X124293333Y-147050952D01*
X124245714Y-147098571D01*
X124198095Y-147193809D01*
X125102857Y-146622380D02*
X125721904Y-146622380D01*
X125388571Y-147003333D01*
X125531428Y-147003333D01*
X125626666Y-147050952D01*
X125674285Y-147098571D01*
X125721904Y-147193809D01*
X125721904Y-147431904D01*
X125674285Y-147527142D01*
X125626666Y-147574761D01*
X125531428Y-147622380D01*
X125245714Y-147622380D01*
X125150476Y-147574761D01*
X125102857Y-147527142D01*
%TO.C,C3*%
X208077142Y-72286666D02*
X208124761Y-72334285D01*
X208172380Y-72477142D01*
X208172380Y-72572380D01*
X208124761Y-72715238D01*
X208029523Y-72810476D01*
X207934285Y-72858095D01*
X207743809Y-72905714D01*
X207600952Y-72905714D01*
X207410476Y-72858095D01*
X207315238Y-72810476D01*
X207220000Y-72715238D01*
X207172380Y-72572380D01*
X207172380Y-72477142D01*
X207220000Y-72334285D01*
X207267619Y-72286666D01*
X207172380Y-71953333D02*
X207172380Y-71334285D01*
X207553333Y-71667619D01*
X207553333Y-71524761D01*
X207600952Y-71429523D01*
X207648571Y-71381904D01*
X207743809Y-71334285D01*
X207981904Y-71334285D01*
X208077142Y-71381904D01*
X208124761Y-71429523D01*
X208172380Y-71524761D01*
X208172380Y-71810476D01*
X208124761Y-71905714D01*
X208077142Y-71953333D01*
%TO.C,D5*%
X114831904Y-42212380D02*
X114831904Y-41212380D01*
X115070000Y-41212380D01*
X115212857Y-41260000D01*
X115308095Y-41355238D01*
X115355714Y-41450476D01*
X115403333Y-41640952D01*
X115403333Y-41783809D01*
X115355714Y-41974285D01*
X115308095Y-42069523D01*
X115212857Y-42164761D01*
X115070000Y-42212380D01*
X114831904Y-42212380D01*
X116308095Y-41212380D02*
X115831904Y-41212380D01*
X115784285Y-41688571D01*
X115831904Y-41640952D01*
X115927142Y-41593333D01*
X116165238Y-41593333D01*
X116260476Y-41640952D01*
X116308095Y-41688571D01*
X116355714Y-41783809D01*
X116355714Y-42021904D01*
X116308095Y-42117142D01*
X116260476Y-42164761D01*
X116165238Y-42212380D01*
X115927142Y-42212380D01*
X115831904Y-42164761D01*
X115784285Y-42117142D01*
%TO.C,D33*%
X170235714Y-42212380D02*
X170235714Y-41212380D01*
X170473809Y-41212380D01*
X170616666Y-41260000D01*
X170711904Y-41355238D01*
X170759523Y-41450476D01*
X170807142Y-41640952D01*
X170807142Y-41783809D01*
X170759523Y-41974285D01*
X170711904Y-42069523D01*
X170616666Y-42164761D01*
X170473809Y-42212380D01*
X170235714Y-42212380D01*
X171140476Y-41212380D02*
X171759523Y-41212380D01*
X171426190Y-41593333D01*
X171569047Y-41593333D01*
X171664285Y-41640952D01*
X171711904Y-41688571D01*
X171759523Y-41783809D01*
X171759523Y-42021904D01*
X171711904Y-42117142D01*
X171664285Y-42164761D01*
X171569047Y-42212380D01*
X171283333Y-42212380D01*
X171188095Y-42164761D01*
X171140476Y-42117142D01*
X172092857Y-41212380D02*
X172711904Y-41212380D01*
X172378571Y-41593333D01*
X172521428Y-41593333D01*
X172616666Y-41640952D01*
X172664285Y-41688571D01*
X172711904Y-41783809D01*
X172711904Y-42021904D01*
X172664285Y-42117142D01*
X172616666Y-42164761D01*
X172521428Y-42212380D01*
X172235714Y-42212380D01*
X172140476Y-42164761D01*
X172092857Y-42117142D01*
%TO.C,C6*%
X208077142Y-135786666D02*
X208124761Y-135834285D01*
X208172380Y-135977142D01*
X208172380Y-136072380D01*
X208124761Y-136215238D01*
X208029523Y-136310476D01*
X207934285Y-136358095D01*
X207743809Y-136405714D01*
X207600952Y-136405714D01*
X207410476Y-136358095D01*
X207315238Y-136310476D01*
X207220000Y-136215238D01*
X207172380Y-136072380D01*
X207172380Y-135977142D01*
X207220000Y-135834285D01*
X207267619Y-135786666D01*
X207172380Y-134929523D02*
X207172380Y-135120000D01*
X207220000Y-135215238D01*
X207267619Y-135262857D01*
X207410476Y-135358095D01*
X207600952Y-135405714D01*
X207981904Y-135405714D01*
X208077142Y-135358095D01*
X208124761Y-135310476D01*
X208172380Y-135215238D01*
X208172380Y-135024761D01*
X208124761Y-134929523D01*
X208077142Y-134881904D01*
X207981904Y-134834285D01*
X207743809Y-134834285D01*
X207648571Y-134881904D01*
X207600952Y-134929523D01*
X207553333Y-135024761D01*
X207553333Y-135215238D01*
X207600952Y-135310476D01*
X207648571Y-135358095D01*
X207743809Y-135405714D01*
%TO.C,D25*%
X142295714Y-51102380D02*
X142295714Y-50102380D01*
X142533809Y-50102380D01*
X142676666Y-50150000D01*
X142771904Y-50245238D01*
X142819523Y-50340476D01*
X142867142Y-50530952D01*
X142867142Y-50673809D01*
X142819523Y-50864285D01*
X142771904Y-50959523D01*
X142676666Y-51054761D01*
X142533809Y-51102380D01*
X142295714Y-51102380D01*
X143248095Y-50197619D02*
X143295714Y-50150000D01*
X143390952Y-50102380D01*
X143629047Y-50102380D01*
X143724285Y-50150000D01*
X143771904Y-50197619D01*
X143819523Y-50292857D01*
X143819523Y-50388095D01*
X143771904Y-50530952D01*
X143200476Y-51102380D01*
X143819523Y-51102380D01*
X144724285Y-50102380D02*
X144248095Y-50102380D01*
X144200476Y-50578571D01*
X144248095Y-50530952D01*
X144343333Y-50483333D01*
X144581428Y-50483333D01*
X144676666Y-50530952D01*
X144724285Y-50578571D01*
X144771904Y-50673809D01*
X144771904Y-50911904D01*
X144724285Y-51007142D01*
X144676666Y-51054761D01*
X144581428Y-51102380D01*
X144343333Y-51102380D01*
X144248095Y-51054761D01*
X144200476Y-51007142D01*
%TO.C,R6*%
X100163333Y-59962380D02*
X99830000Y-59486190D01*
X99591904Y-59962380D02*
X99591904Y-58962380D01*
X99972857Y-58962380D01*
X100068095Y-59010000D01*
X100115714Y-59057619D01*
X100163333Y-59152857D01*
X100163333Y-59295714D01*
X100115714Y-59390952D01*
X100068095Y-59438571D01*
X99972857Y-59486190D01*
X99591904Y-59486190D01*
X101020476Y-58962380D02*
X100830000Y-58962380D01*
X100734761Y-59010000D01*
X100687142Y-59057619D01*
X100591904Y-59200476D01*
X100544285Y-59390952D01*
X100544285Y-59771904D01*
X100591904Y-59867142D01*
X100639523Y-59914761D01*
X100734761Y-59962380D01*
X100925238Y-59962380D01*
X101020476Y-59914761D01*
X101068095Y-59867142D01*
X101115714Y-59771904D01*
X101115714Y-59533809D01*
X101068095Y-59438571D01*
X101020476Y-59390952D01*
X100925238Y-59343333D01*
X100734761Y-59343333D01*
X100639523Y-59390952D01*
X100591904Y-59438571D01*
X100544285Y-59533809D01*
%TO.C,C1*%
X218237142Y-115466666D02*
X218284761Y-115514285D01*
X218332380Y-115657142D01*
X218332380Y-115752380D01*
X218284761Y-115895238D01*
X218189523Y-115990476D01*
X218094285Y-116038095D01*
X217903809Y-116085714D01*
X217760952Y-116085714D01*
X217570476Y-116038095D01*
X217475238Y-115990476D01*
X217380000Y-115895238D01*
X217332380Y-115752380D01*
X217332380Y-115657142D01*
X217380000Y-115514285D01*
X217427619Y-115466666D01*
X218332380Y-114514285D02*
X218332380Y-115085714D01*
X218332380Y-114800000D02*
X217332380Y-114800000D01*
X217475238Y-114895238D01*
X217570476Y-114990476D01*
X217618095Y-115085714D01*
%TO.C,R13*%
X198752380Y-112402857D02*
X198276190Y-112736190D01*
X198752380Y-112974285D02*
X197752380Y-112974285D01*
X197752380Y-112593333D01*
X197800000Y-112498095D01*
X197847619Y-112450476D01*
X197942857Y-112402857D01*
X198085714Y-112402857D01*
X198180952Y-112450476D01*
X198228571Y-112498095D01*
X198276190Y-112593333D01*
X198276190Y-112974285D01*
X198752380Y-111450476D02*
X198752380Y-112021904D01*
X198752380Y-111736190D02*
X197752380Y-111736190D01*
X197895238Y-111831428D01*
X197990476Y-111926666D01*
X198038095Y-112021904D01*
X197752380Y-111117142D02*
X197752380Y-110498095D01*
X198133333Y-110831428D01*
X198133333Y-110688571D01*
X198180952Y-110593333D01*
X198228571Y-110545714D01*
X198323809Y-110498095D01*
X198561904Y-110498095D01*
X198657142Y-110545714D01*
X198704761Y-110593333D01*
X198752380Y-110688571D01*
X198752380Y-110974285D01*
X198704761Y-111069523D01*
X198657142Y-111117142D01*
%TO.C,D38*%
X188015714Y-33322380D02*
X188015714Y-32322380D01*
X188253809Y-32322380D01*
X188396666Y-32370000D01*
X188491904Y-32465238D01*
X188539523Y-32560476D01*
X188587142Y-32750952D01*
X188587142Y-32893809D01*
X188539523Y-33084285D01*
X188491904Y-33179523D01*
X188396666Y-33274761D01*
X188253809Y-33322380D01*
X188015714Y-33322380D01*
X188920476Y-32322380D02*
X189539523Y-32322380D01*
X189206190Y-32703333D01*
X189349047Y-32703333D01*
X189444285Y-32750952D01*
X189491904Y-32798571D01*
X189539523Y-32893809D01*
X189539523Y-33131904D01*
X189491904Y-33227142D01*
X189444285Y-33274761D01*
X189349047Y-33322380D01*
X189063333Y-33322380D01*
X188968095Y-33274761D01*
X188920476Y-33227142D01*
X190110952Y-32750952D02*
X190015714Y-32703333D01*
X189968095Y-32655714D01*
X189920476Y-32560476D01*
X189920476Y-32512857D01*
X189968095Y-32417619D01*
X190015714Y-32370000D01*
X190110952Y-32322380D01*
X190301428Y-32322380D01*
X190396666Y-32370000D01*
X190444285Y-32417619D01*
X190491904Y-32512857D01*
X190491904Y-32560476D01*
X190444285Y-32655714D01*
X190396666Y-32703333D01*
X190301428Y-32750952D01*
X190110952Y-32750952D01*
X190015714Y-32798571D01*
X189968095Y-32846190D01*
X189920476Y-32941428D01*
X189920476Y-33131904D01*
X189968095Y-33227142D01*
X190015714Y-33274761D01*
X190110952Y-33322380D01*
X190301428Y-33322380D01*
X190396666Y-33274761D01*
X190444285Y-33227142D01*
X190491904Y-33131904D01*
X190491904Y-32941428D01*
X190444285Y-32846190D01*
X190396666Y-32798571D01*
X190301428Y-32750952D01*
%TO.C,REF\u002A\u002A*%
X68516666Y-78032380D02*
X68183333Y-77556190D01*
X67945238Y-78032380D02*
X67945238Y-77032380D01*
X68326190Y-77032380D01*
X68421428Y-77080000D01*
X68469047Y-77127619D01*
X68516666Y-77222857D01*
X68516666Y-77365714D01*
X68469047Y-77460952D01*
X68421428Y-77508571D01*
X68326190Y-77556190D01*
X67945238Y-77556190D01*
X68945238Y-77508571D02*
X69278571Y-77508571D01*
X69421428Y-78032380D02*
X68945238Y-78032380D01*
X68945238Y-77032380D01*
X69421428Y-77032380D01*
X70183333Y-77508571D02*
X69850000Y-77508571D01*
X69850000Y-78032380D02*
X69850000Y-77032380D01*
X70326190Y-77032380D01*
X70850000Y-77032380D02*
X70850000Y-77270476D01*
X70611904Y-77175238D02*
X70850000Y-77270476D01*
X71088095Y-77175238D01*
X70707142Y-77460952D02*
X70850000Y-77270476D01*
X70992857Y-77460952D01*
X71611904Y-77032380D02*
X71611904Y-77270476D01*
X71373809Y-77175238D02*
X71611904Y-77270476D01*
X71850000Y-77175238D01*
X71469047Y-77460952D02*
X71611904Y-77270476D01*
X71754761Y-77460952D01*
%TO.C,D16*%
X188015714Y-129842380D02*
X188015714Y-128842380D01*
X188253809Y-128842380D01*
X188396666Y-128890000D01*
X188491904Y-128985238D01*
X188539523Y-129080476D01*
X188587142Y-129270952D01*
X188587142Y-129413809D01*
X188539523Y-129604285D01*
X188491904Y-129699523D01*
X188396666Y-129794761D01*
X188253809Y-129842380D01*
X188015714Y-129842380D01*
X189539523Y-129842380D02*
X188968095Y-129842380D01*
X189253809Y-129842380D02*
X189253809Y-128842380D01*
X189158571Y-128985238D01*
X189063333Y-129080476D01*
X188968095Y-129128095D01*
X190396666Y-128842380D02*
X190206190Y-128842380D01*
X190110952Y-128890000D01*
X190063333Y-128937619D01*
X189968095Y-129080476D01*
X189920476Y-129270952D01*
X189920476Y-129651904D01*
X189968095Y-129747142D01*
X190015714Y-129794761D01*
X190110952Y-129842380D01*
X190301428Y-129842380D01*
X190396666Y-129794761D01*
X190444285Y-129747142D01*
X190491904Y-129651904D01*
X190491904Y-129413809D01*
X190444285Y-129318571D01*
X190396666Y-129270952D01*
X190301428Y-129223333D01*
X190110952Y-129223333D01*
X190015714Y-129270952D01*
X189968095Y-129318571D01*
X189920476Y-129413809D01*
%TO.C,REF\u002A\u002A*%
X68516666Y-103432380D02*
X68183333Y-102956190D01*
X67945238Y-103432380D02*
X67945238Y-102432380D01*
X68326190Y-102432380D01*
X68421428Y-102480000D01*
X68469047Y-102527619D01*
X68516666Y-102622857D01*
X68516666Y-102765714D01*
X68469047Y-102860952D01*
X68421428Y-102908571D01*
X68326190Y-102956190D01*
X67945238Y-102956190D01*
X68945238Y-102908571D02*
X69278571Y-102908571D01*
X69421428Y-103432380D02*
X68945238Y-103432380D01*
X68945238Y-102432380D01*
X69421428Y-102432380D01*
X70183333Y-102908571D02*
X69850000Y-102908571D01*
X69850000Y-103432380D02*
X69850000Y-102432380D01*
X70326190Y-102432380D01*
X70850000Y-102432380D02*
X70850000Y-102670476D01*
X70611904Y-102575238D02*
X70850000Y-102670476D01*
X71088095Y-102575238D01*
X70707142Y-102860952D02*
X70850000Y-102670476D01*
X70992857Y-102860952D01*
X71611904Y-102432380D02*
X71611904Y-102670476D01*
X71373809Y-102575238D02*
X71611904Y-102670476D01*
X71850000Y-102575238D01*
X71469047Y-102860952D02*
X71611904Y-102670476D01*
X71754761Y-102860952D01*
%TO.C,D51*%
X123245714Y-112062380D02*
X123245714Y-111062380D01*
X123483809Y-111062380D01*
X123626666Y-111110000D01*
X123721904Y-111205238D01*
X123769523Y-111300476D01*
X123817142Y-111490952D01*
X123817142Y-111633809D01*
X123769523Y-111824285D01*
X123721904Y-111919523D01*
X123626666Y-112014761D01*
X123483809Y-112062380D01*
X123245714Y-112062380D01*
X124721904Y-111062380D02*
X124245714Y-111062380D01*
X124198095Y-111538571D01*
X124245714Y-111490952D01*
X124340952Y-111443333D01*
X124579047Y-111443333D01*
X124674285Y-111490952D01*
X124721904Y-111538571D01*
X124769523Y-111633809D01*
X124769523Y-111871904D01*
X124721904Y-111967142D01*
X124674285Y-112014761D01*
X124579047Y-112062380D01*
X124340952Y-112062380D01*
X124245714Y-112014761D01*
X124198095Y-111967142D01*
X125721904Y-112062380D02*
X125150476Y-112062380D01*
X125436190Y-112062380D02*
X125436190Y-111062380D01*
X125340952Y-111205238D01*
X125245714Y-111300476D01*
X125150476Y-111348095D01*
%TO.C,REF\u002A\u002A*%
X233616666Y-103432380D02*
X233283333Y-102956190D01*
X233045238Y-103432380D02*
X233045238Y-102432380D01*
X233426190Y-102432380D01*
X233521428Y-102480000D01*
X233569047Y-102527619D01*
X233616666Y-102622857D01*
X233616666Y-102765714D01*
X233569047Y-102860952D01*
X233521428Y-102908571D01*
X233426190Y-102956190D01*
X233045238Y-102956190D01*
X234045238Y-102908571D02*
X234378571Y-102908571D01*
X234521428Y-103432380D02*
X234045238Y-103432380D01*
X234045238Y-102432380D01*
X234521428Y-102432380D01*
X235283333Y-102908571D02*
X234950000Y-102908571D01*
X234950000Y-103432380D02*
X234950000Y-102432380D01*
X235426190Y-102432380D01*
X235950000Y-102432380D02*
X235950000Y-102670476D01*
X235711904Y-102575238D02*
X235950000Y-102670476D01*
X236188095Y-102575238D01*
X235807142Y-102860952D02*
X235950000Y-102670476D01*
X236092857Y-102860952D01*
X236711904Y-102432380D02*
X236711904Y-102670476D01*
X236473809Y-102575238D02*
X236711904Y-102670476D01*
X236950000Y-102575238D01*
X236569047Y-102860952D02*
X236711904Y-102670476D01*
X236854761Y-102860952D01*
%TO.C,D40*%
X188015714Y-51102380D02*
X188015714Y-50102380D01*
X188253809Y-50102380D01*
X188396666Y-50150000D01*
X188491904Y-50245238D01*
X188539523Y-50340476D01*
X188587142Y-50530952D01*
X188587142Y-50673809D01*
X188539523Y-50864285D01*
X188491904Y-50959523D01*
X188396666Y-51054761D01*
X188253809Y-51102380D01*
X188015714Y-51102380D01*
X189444285Y-50435714D02*
X189444285Y-51102380D01*
X189206190Y-50054761D02*
X188968095Y-50769047D01*
X189587142Y-50769047D01*
X190158571Y-50102380D02*
X190253809Y-50102380D01*
X190349047Y-50150000D01*
X190396666Y-50197619D01*
X190444285Y-50292857D01*
X190491904Y-50483333D01*
X190491904Y-50721428D01*
X190444285Y-50911904D01*
X190396666Y-51007142D01*
X190349047Y-51054761D01*
X190253809Y-51102380D01*
X190158571Y-51102380D01*
X190063333Y-51054761D01*
X190015714Y-51007142D01*
X189968095Y-50911904D01*
X189920476Y-50721428D01*
X189920476Y-50483333D01*
X189968095Y-50292857D01*
X190015714Y-50197619D01*
X190063333Y-50150000D01*
X190158571Y-50102380D01*
%TO.C,R3*%
X231772380Y-91606666D02*
X231296190Y-91940000D01*
X231772380Y-92178095D02*
X230772380Y-92178095D01*
X230772380Y-91797142D01*
X230820000Y-91701904D01*
X230867619Y-91654285D01*
X230962857Y-91606666D01*
X231105714Y-91606666D01*
X231200952Y-91654285D01*
X231248571Y-91701904D01*
X231296190Y-91797142D01*
X231296190Y-92178095D01*
X230772380Y-91273333D02*
X230772380Y-90654285D01*
X231153333Y-90987619D01*
X231153333Y-90844761D01*
X231200952Y-90749523D01*
X231248571Y-90701904D01*
X231343809Y-90654285D01*
X231581904Y-90654285D01*
X231677142Y-90701904D01*
X231724761Y-90749523D01*
X231772380Y-90844761D01*
X231772380Y-91130476D01*
X231724761Y-91225714D01*
X231677142Y-91273333D01*
%TO.C,D24*%
X142295714Y-42212380D02*
X142295714Y-41212380D01*
X142533809Y-41212380D01*
X142676666Y-41260000D01*
X142771904Y-41355238D01*
X142819523Y-41450476D01*
X142867142Y-41640952D01*
X142867142Y-41783809D01*
X142819523Y-41974285D01*
X142771904Y-42069523D01*
X142676666Y-42164761D01*
X142533809Y-42212380D01*
X142295714Y-42212380D01*
X143248095Y-41307619D02*
X143295714Y-41260000D01*
X143390952Y-41212380D01*
X143629047Y-41212380D01*
X143724285Y-41260000D01*
X143771904Y-41307619D01*
X143819523Y-41402857D01*
X143819523Y-41498095D01*
X143771904Y-41640952D01*
X143200476Y-42212380D01*
X143819523Y-42212380D01*
X144676666Y-41545714D02*
X144676666Y-42212380D01*
X144438571Y-41164761D02*
X144200476Y-41879047D01*
X144819523Y-41879047D01*
%TO.C,C2*%
X208077142Y-123086666D02*
X208124761Y-123134285D01*
X208172380Y-123277142D01*
X208172380Y-123372380D01*
X208124761Y-123515238D01*
X208029523Y-123610476D01*
X207934285Y-123658095D01*
X207743809Y-123705714D01*
X207600952Y-123705714D01*
X207410476Y-123658095D01*
X207315238Y-123610476D01*
X207220000Y-123515238D01*
X207172380Y-123372380D01*
X207172380Y-123277142D01*
X207220000Y-123134285D01*
X207267619Y-123086666D01*
X207267619Y-122705714D02*
X207220000Y-122658095D01*
X207172380Y-122562857D01*
X207172380Y-122324761D01*
X207220000Y-122229523D01*
X207267619Y-122181904D01*
X207362857Y-122134285D01*
X207458095Y-122134285D01*
X207600952Y-122181904D01*
X208172380Y-122753333D01*
X208172380Y-122134285D01*
%TO.C,C5*%
X208077142Y-59586666D02*
X208124761Y-59634285D01*
X208172380Y-59777142D01*
X208172380Y-59872380D01*
X208124761Y-60015238D01*
X208029523Y-60110476D01*
X207934285Y-60158095D01*
X207743809Y-60205714D01*
X207600952Y-60205714D01*
X207410476Y-60158095D01*
X207315238Y-60110476D01*
X207220000Y-60015238D01*
X207172380Y-59872380D01*
X207172380Y-59777142D01*
X207220000Y-59634285D01*
X207267619Y-59586666D01*
X207172380Y-58681904D02*
X207172380Y-59158095D01*
X207648571Y-59205714D01*
X207600952Y-59158095D01*
X207553333Y-59062857D01*
X207553333Y-58824761D01*
X207600952Y-58729523D01*
X207648571Y-58681904D01*
X207743809Y-58634285D01*
X207981904Y-58634285D01*
X208077142Y-58681904D01*
X208124761Y-58729523D01*
X208172380Y-58824761D01*
X208172380Y-59062857D01*
X208124761Y-59158095D01*
X208077142Y-59205714D01*
%TO.C,D28*%
X151185714Y-33322380D02*
X151185714Y-32322380D01*
X151423809Y-32322380D01*
X151566666Y-32370000D01*
X151661904Y-32465238D01*
X151709523Y-32560476D01*
X151757142Y-32750952D01*
X151757142Y-32893809D01*
X151709523Y-33084285D01*
X151661904Y-33179523D01*
X151566666Y-33274761D01*
X151423809Y-33322380D01*
X151185714Y-33322380D01*
X152138095Y-32417619D02*
X152185714Y-32370000D01*
X152280952Y-32322380D01*
X152519047Y-32322380D01*
X152614285Y-32370000D01*
X152661904Y-32417619D01*
X152709523Y-32512857D01*
X152709523Y-32608095D01*
X152661904Y-32750952D01*
X152090476Y-33322380D01*
X152709523Y-33322380D01*
X153280952Y-32750952D02*
X153185714Y-32703333D01*
X153138095Y-32655714D01*
X153090476Y-32560476D01*
X153090476Y-32512857D01*
X153138095Y-32417619D01*
X153185714Y-32370000D01*
X153280952Y-32322380D01*
X153471428Y-32322380D01*
X153566666Y-32370000D01*
X153614285Y-32417619D01*
X153661904Y-32512857D01*
X153661904Y-32560476D01*
X153614285Y-32655714D01*
X153566666Y-32703333D01*
X153471428Y-32750952D01*
X153280952Y-32750952D01*
X153185714Y-32798571D01*
X153138095Y-32846190D01*
X153090476Y-32941428D01*
X153090476Y-33131904D01*
X153138095Y-33227142D01*
X153185714Y-33274761D01*
X153280952Y-33322380D01*
X153471428Y-33322380D01*
X153566666Y-33274761D01*
X153614285Y-33227142D01*
X153661904Y-33131904D01*
X153661904Y-32941428D01*
X153614285Y-32846190D01*
X153566666Y-32798571D01*
X153471428Y-32750952D01*
%TO.C,D22*%
X132135714Y-68882380D02*
X132135714Y-67882380D01*
X132373809Y-67882380D01*
X132516666Y-67930000D01*
X132611904Y-68025238D01*
X132659523Y-68120476D01*
X132707142Y-68310952D01*
X132707142Y-68453809D01*
X132659523Y-68644285D01*
X132611904Y-68739523D01*
X132516666Y-68834761D01*
X132373809Y-68882380D01*
X132135714Y-68882380D01*
X133088095Y-67977619D02*
X133135714Y-67930000D01*
X133230952Y-67882380D01*
X133469047Y-67882380D01*
X133564285Y-67930000D01*
X133611904Y-67977619D01*
X133659523Y-68072857D01*
X133659523Y-68168095D01*
X133611904Y-68310952D01*
X133040476Y-68882380D01*
X133659523Y-68882380D01*
X134040476Y-67977619D02*
X134088095Y-67930000D01*
X134183333Y-67882380D01*
X134421428Y-67882380D01*
X134516666Y-67930000D01*
X134564285Y-67977619D01*
X134611904Y-68072857D01*
X134611904Y-68168095D01*
X134564285Y-68310952D01*
X133992857Y-68882380D01*
X134611904Y-68882380D01*
%TO.C,D15*%
X132135714Y-33322380D02*
X132135714Y-32322380D01*
X132373809Y-32322380D01*
X132516666Y-32370000D01*
X132611904Y-32465238D01*
X132659523Y-32560476D01*
X132707142Y-32750952D01*
X132707142Y-32893809D01*
X132659523Y-33084285D01*
X132611904Y-33179523D01*
X132516666Y-33274761D01*
X132373809Y-33322380D01*
X132135714Y-33322380D01*
X133659523Y-33322380D02*
X133088095Y-33322380D01*
X133373809Y-33322380D02*
X133373809Y-32322380D01*
X133278571Y-32465238D01*
X133183333Y-32560476D01*
X133088095Y-32608095D01*
X134564285Y-32322380D02*
X134088095Y-32322380D01*
X134040476Y-32798571D01*
X134088095Y-32750952D01*
X134183333Y-32703333D01*
X134421428Y-32703333D01*
X134516666Y-32750952D01*
X134564285Y-32798571D01*
X134611904Y-32893809D01*
X134611904Y-33131904D01*
X134564285Y-33227142D01*
X134516666Y-33274761D01*
X134421428Y-33322380D01*
X134183333Y-33322380D01*
X134088095Y-33274761D01*
X134040476Y-33227142D01*
%TO.C,D1*%
X170711904Y-112062380D02*
X170711904Y-111062380D01*
X170950000Y-111062380D01*
X171092857Y-111110000D01*
X171188095Y-111205238D01*
X171235714Y-111300476D01*
X171283333Y-111490952D01*
X171283333Y-111633809D01*
X171235714Y-111824285D01*
X171188095Y-111919523D01*
X171092857Y-112014761D01*
X170950000Y-112062380D01*
X170711904Y-112062380D01*
X172235714Y-112062380D02*
X171664285Y-112062380D01*
X171950000Y-112062380D02*
X171950000Y-111062380D01*
X171854761Y-111205238D01*
X171759523Y-111300476D01*
X171664285Y-111348095D01*
%TO.C,Q1*%
X193837619Y-123285238D02*
X193790000Y-123380476D01*
X193694761Y-123475714D01*
X193551904Y-123618571D01*
X193504285Y-123713809D01*
X193504285Y-123809047D01*
X193742380Y-123761428D02*
X193694761Y-123856666D01*
X193599523Y-123951904D01*
X193409047Y-123999523D01*
X193075714Y-123999523D01*
X192885238Y-123951904D01*
X192790000Y-123856666D01*
X192742380Y-123761428D01*
X192742380Y-123570952D01*
X192790000Y-123475714D01*
X192885238Y-123380476D01*
X193075714Y-123332857D01*
X193409047Y-123332857D01*
X193599523Y-123380476D01*
X193694761Y-123475714D01*
X193742380Y-123570952D01*
X193742380Y-123761428D01*
X193742380Y-122380476D02*
X193742380Y-122951904D01*
X193742380Y-122666190D02*
X192742380Y-122666190D01*
X192885238Y-122761428D01*
X192980476Y-122856666D01*
X193028095Y-122951904D01*
%TO.C,D64*%
X151205725Y-147622380D02*
X151205725Y-146622380D01*
X151443820Y-146622380D01*
X151586677Y-146670000D01*
X151681915Y-146765238D01*
X151729534Y-146860476D01*
X151777153Y-147050952D01*
X151777153Y-147193809D01*
X151729534Y-147384285D01*
X151681915Y-147479523D01*
X151586677Y-147574761D01*
X151443820Y-147622380D01*
X151205725Y-147622380D01*
X152634296Y-146622380D02*
X152443820Y-146622380D01*
X152348582Y-146670000D01*
X152300963Y-146717619D01*
X152205725Y-146860476D01*
X152158106Y-147050952D01*
X152158106Y-147431904D01*
X152205725Y-147527142D01*
X152253344Y-147574761D01*
X152348582Y-147622380D01*
X152539058Y-147622380D01*
X152634296Y-147574761D01*
X152681915Y-147527142D01*
X152729534Y-147431904D01*
X152729534Y-147193809D01*
X152681915Y-147098571D01*
X152634296Y-147050952D01*
X152539058Y-147003333D01*
X152348582Y-147003333D01*
X152253344Y-147050952D01*
X152205725Y-147098571D01*
X152158106Y-147193809D01*
X153586677Y-146955714D02*
X153586677Y-147622380D01*
X153348582Y-146574761D02*
X153110487Y-147289047D01*
X153729534Y-147289047D01*
%TO.C,D50*%
X142315725Y-129842380D02*
X142315725Y-128842380D01*
X142553820Y-128842380D01*
X142696677Y-128890000D01*
X142791915Y-128985238D01*
X142839534Y-129080476D01*
X142887153Y-129270952D01*
X142887153Y-129413809D01*
X142839534Y-129604285D01*
X142791915Y-129699523D01*
X142696677Y-129794761D01*
X142553820Y-129842380D01*
X142315725Y-129842380D01*
X143791915Y-128842380D02*
X143315725Y-128842380D01*
X143268106Y-129318571D01*
X143315725Y-129270952D01*
X143410963Y-129223333D01*
X143649058Y-129223333D01*
X143744296Y-129270952D01*
X143791915Y-129318571D01*
X143839534Y-129413809D01*
X143839534Y-129651904D01*
X143791915Y-129747142D01*
X143744296Y-129794761D01*
X143649058Y-129842380D01*
X143410963Y-129842380D01*
X143315725Y-129794761D01*
X143268106Y-129747142D01*
X144458582Y-128842380D02*
X144553820Y-128842380D01*
X144649058Y-128890000D01*
X144696677Y-128937619D01*
X144744296Y-129032857D01*
X144791915Y-129223333D01*
X144791915Y-129461428D01*
X144744296Y-129651904D01*
X144696677Y-129747142D01*
X144649058Y-129794761D01*
X144553820Y-129842380D01*
X144458582Y-129842380D01*
X144363344Y-129794761D01*
X144315725Y-129747142D01*
X144268106Y-129651904D01*
X144220487Y-129461428D01*
X144220487Y-129223333D01*
X144268106Y-129032857D01*
X144315725Y-128937619D01*
X144363344Y-128890000D01*
X144458582Y-128842380D01*
%TO.C,D60*%
X151205725Y-112062380D02*
X151205725Y-111062380D01*
X151443820Y-111062380D01*
X151586677Y-111110000D01*
X151681915Y-111205238D01*
X151729534Y-111300476D01*
X151777153Y-111490952D01*
X151777153Y-111633809D01*
X151729534Y-111824285D01*
X151681915Y-111919523D01*
X151586677Y-112014761D01*
X151443820Y-112062380D01*
X151205725Y-112062380D01*
X152634296Y-111062380D02*
X152443820Y-111062380D01*
X152348582Y-111110000D01*
X152300963Y-111157619D01*
X152205725Y-111300476D01*
X152158106Y-111490952D01*
X152158106Y-111871904D01*
X152205725Y-111967142D01*
X152253344Y-112014761D01*
X152348582Y-112062380D01*
X152539058Y-112062380D01*
X152634296Y-112014761D01*
X152681915Y-111967142D01*
X152729534Y-111871904D01*
X152729534Y-111633809D01*
X152681915Y-111538571D01*
X152634296Y-111490952D01*
X152539058Y-111443333D01*
X152348582Y-111443333D01*
X152253344Y-111490952D01*
X152205725Y-111538571D01*
X152158106Y-111633809D01*
X153348582Y-111062380D02*
X153443820Y-111062380D01*
X153539058Y-111110000D01*
X153586677Y-111157619D01*
X153634296Y-111252857D01*
X153681915Y-111443333D01*
X153681915Y-111681428D01*
X153634296Y-111871904D01*
X153586677Y-111967142D01*
X153539058Y-112014761D01*
X153443820Y-112062380D01*
X153348582Y-112062380D01*
X153253344Y-112014761D01*
X153205725Y-111967142D01*
X153158106Y-111871904D01*
X153110487Y-111681428D01*
X153110487Y-111443333D01*
X153158106Y-111252857D01*
X153205725Y-111157619D01*
X153253344Y-111110000D01*
X153348582Y-111062380D01*
%TO.C,D37*%
X179125714Y-33322380D02*
X179125714Y-32322380D01*
X179363809Y-32322380D01*
X179506666Y-32370000D01*
X179601904Y-32465238D01*
X179649523Y-32560476D01*
X179697142Y-32750952D01*
X179697142Y-32893809D01*
X179649523Y-33084285D01*
X179601904Y-33179523D01*
X179506666Y-33274761D01*
X179363809Y-33322380D01*
X179125714Y-33322380D01*
X180030476Y-32322380D02*
X180649523Y-32322380D01*
X180316190Y-32703333D01*
X180459047Y-32703333D01*
X180554285Y-32750952D01*
X180601904Y-32798571D01*
X180649523Y-32893809D01*
X180649523Y-33131904D01*
X180601904Y-33227142D01*
X180554285Y-33274761D01*
X180459047Y-33322380D01*
X180173333Y-33322380D01*
X180078095Y-33274761D01*
X180030476Y-33227142D01*
X180982857Y-32322380D02*
X181649523Y-32322380D01*
X181220952Y-33322380D01*
%TO.C,D61*%
X132135714Y-147622380D02*
X132135714Y-146622380D01*
X132373809Y-146622380D01*
X132516666Y-146670000D01*
X132611904Y-146765238D01*
X132659523Y-146860476D01*
X132707142Y-147050952D01*
X132707142Y-147193809D01*
X132659523Y-147384285D01*
X132611904Y-147479523D01*
X132516666Y-147574761D01*
X132373809Y-147622380D01*
X132135714Y-147622380D01*
X133564285Y-146622380D02*
X133373809Y-146622380D01*
X133278571Y-146670000D01*
X133230952Y-146717619D01*
X133135714Y-146860476D01*
X133088095Y-147050952D01*
X133088095Y-147431904D01*
X133135714Y-147527142D01*
X133183333Y-147574761D01*
X133278571Y-147622380D01*
X133469047Y-147622380D01*
X133564285Y-147574761D01*
X133611904Y-147527142D01*
X133659523Y-147431904D01*
X133659523Y-147193809D01*
X133611904Y-147098571D01*
X133564285Y-147050952D01*
X133469047Y-147003333D01*
X133278571Y-147003333D01*
X133183333Y-147050952D01*
X133135714Y-147098571D01*
X133088095Y-147193809D01*
X134611904Y-147622380D02*
X134040476Y-147622380D01*
X134326190Y-147622380D02*
X134326190Y-146622380D01*
X134230952Y-146765238D01*
X134135714Y-146860476D01*
X134040476Y-146908095D01*
%TO.C,D58*%
X160095725Y-147622380D02*
X160095725Y-146622380D01*
X160333820Y-146622380D01*
X160476677Y-146670000D01*
X160571915Y-146765238D01*
X160619534Y-146860476D01*
X160667153Y-147050952D01*
X160667153Y-147193809D01*
X160619534Y-147384285D01*
X160571915Y-147479523D01*
X160476677Y-147574761D01*
X160333820Y-147622380D01*
X160095725Y-147622380D01*
X161571915Y-146622380D02*
X161095725Y-146622380D01*
X161048106Y-147098571D01*
X161095725Y-147050952D01*
X161190963Y-147003333D01*
X161429058Y-147003333D01*
X161524296Y-147050952D01*
X161571915Y-147098571D01*
X161619534Y-147193809D01*
X161619534Y-147431904D01*
X161571915Y-147527142D01*
X161524296Y-147574761D01*
X161429058Y-147622380D01*
X161190963Y-147622380D01*
X161095725Y-147574761D01*
X161048106Y-147527142D01*
X162190963Y-147050952D02*
X162095725Y-147003333D01*
X162048106Y-146955714D01*
X162000487Y-146860476D01*
X162000487Y-146812857D01*
X162048106Y-146717619D01*
X162095725Y-146670000D01*
X162190963Y-146622380D01*
X162381439Y-146622380D01*
X162476677Y-146670000D01*
X162524296Y-146717619D01*
X162571915Y-146812857D01*
X162571915Y-146860476D01*
X162524296Y-146955714D01*
X162476677Y-147003333D01*
X162381439Y-147050952D01*
X162190963Y-147050952D01*
X162095725Y-147098571D01*
X162048106Y-147146190D01*
X162000487Y-147241428D01*
X162000487Y-147431904D01*
X162048106Y-147527142D01*
X162095725Y-147574761D01*
X162190963Y-147622380D01*
X162381439Y-147622380D01*
X162476677Y-147574761D01*
X162524296Y-147527142D01*
X162571915Y-147431904D01*
X162571915Y-147241428D01*
X162524296Y-147146190D01*
X162476677Y-147098571D01*
X162381439Y-147050952D01*
%TO.C,D44*%
X114355714Y-120952380D02*
X114355714Y-119952380D01*
X114593809Y-119952380D01*
X114736666Y-120000000D01*
X114831904Y-120095238D01*
X114879523Y-120190476D01*
X114927142Y-120380952D01*
X114927142Y-120523809D01*
X114879523Y-120714285D01*
X114831904Y-120809523D01*
X114736666Y-120904761D01*
X114593809Y-120952380D01*
X114355714Y-120952380D01*
X115784285Y-120285714D02*
X115784285Y-120952380D01*
X115546190Y-119904761D02*
X115308095Y-120619047D01*
X115927142Y-120619047D01*
X116736666Y-120285714D02*
X116736666Y-120952380D01*
X116498571Y-119904761D02*
X116260476Y-120619047D01*
X116879523Y-120619047D01*
%TO.C,Q5*%
X193837619Y-135985238D02*
X193790000Y-136080476D01*
X193694761Y-136175714D01*
X193551904Y-136318571D01*
X193504285Y-136413809D01*
X193504285Y-136509047D01*
X193742380Y-136461428D02*
X193694761Y-136556666D01*
X193599523Y-136651904D01*
X193409047Y-136699523D01*
X193075714Y-136699523D01*
X192885238Y-136651904D01*
X192790000Y-136556666D01*
X192742380Y-136461428D01*
X192742380Y-136270952D01*
X192790000Y-136175714D01*
X192885238Y-136080476D01*
X193075714Y-136032857D01*
X193409047Y-136032857D01*
X193599523Y-136080476D01*
X193694761Y-136175714D01*
X193742380Y-136270952D01*
X193742380Y-136461428D01*
X192742380Y-135128095D02*
X192742380Y-135604285D01*
X193218571Y-135651904D01*
X193170952Y-135604285D01*
X193123333Y-135509047D01*
X193123333Y-135270952D01*
X193170952Y-135175714D01*
X193218571Y-135128095D01*
X193313809Y-135080476D01*
X193551904Y-135080476D01*
X193647142Y-135128095D01*
X193694761Y-135175714D01*
X193742380Y-135270952D01*
X193742380Y-135509047D01*
X193694761Y-135604285D01*
X193647142Y-135651904D01*
%TO.C,REF\u002A\u002A*%
X163766666Y-8182380D02*
X163433333Y-7706190D01*
X163195238Y-8182380D02*
X163195238Y-7182380D01*
X163576190Y-7182380D01*
X163671428Y-7230000D01*
X163719047Y-7277619D01*
X163766666Y-7372857D01*
X163766666Y-7515714D01*
X163719047Y-7610952D01*
X163671428Y-7658571D01*
X163576190Y-7706190D01*
X163195238Y-7706190D01*
X164195238Y-7658571D02*
X164528571Y-7658571D01*
X164671428Y-8182380D02*
X164195238Y-8182380D01*
X164195238Y-7182380D01*
X164671428Y-7182380D01*
X165433333Y-7658571D02*
X165100000Y-7658571D01*
X165100000Y-8182380D02*
X165100000Y-7182380D01*
X165576190Y-7182380D01*
X166100000Y-7182380D02*
X166100000Y-7420476D01*
X165861904Y-7325238D02*
X166100000Y-7420476D01*
X166338095Y-7325238D01*
X165957142Y-7610952D02*
X166100000Y-7420476D01*
X166242857Y-7610952D01*
X166861904Y-7182380D02*
X166861904Y-7420476D01*
X166623809Y-7325238D02*
X166861904Y-7420476D01*
X167100000Y-7325238D01*
X166719047Y-7610952D02*
X166861904Y-7420476D01*
X167004761Y-7610952D01*
%TO.C,D21*%
X132135714Y-51102380D02*
X132135714Y-50102380D01*
X132373809Y-50102380D01*
X132516666Y-50150000D01*
X132611904Y-50245238D01*
X132659523Y-50340476D01*
X132707142Y-50530952D01*
X132707142Y-50673809D01*
X132659523Y-50864285D01*
X132611904Y-50959523D01*
X132516666Y-51054761D01*
X132373809Y-51102380D01*
X132135714Y-51102380D01*
X133088095Y-50197619D02*
X133135714Y-50150000D01*
X133230952Y-50102380D01*
X133469047Y-50102380D01*
X133564285Y-50150000D01*
X133611904Y-50197619D01*
X133659523Y-50292857D01*
X133659523Y-50388095D01*
X133611904Y-50530952D01*
X133040476Y-51102380D01*
X133659523Y-51102380D01*
X134611904Y-51102380D02*
X134040476Y-51102380D01*
X134326190Y-51102380D02*
X134326190Y-50102380D01*
X134230952Y-50245238D01*
X134135714Y-50340476D01*
X134040476Y-50388095D01*
%TO.C,D36*%
X170235714Y-68882380D02*
X170235714Y-67882380D01*
X170473809Y-67882380D01*
X170616666Y-67930000D01*
X170711904Y-68025238D01*
X170759523Y-68120476D01*
X170807142Y-68310952D01*
X170807142Y-68453809D01*
X170759523Y-68644285D01*
X170711904Y-68739523D01*
X170616666Y-68834761D01*
X170473809Y-68882380D01*
X170235714Y-68882380D01*
X171140476Y-67882380D02*
X171759523Y-67882380D01*
X171426190Y-68263333D01*
X171569047Y-68263333D01*
X171664285Y-68310952D01*
X171711904Y-68358571D01*
X171759523Y-68453809D01*
X171759523Y-68691904D01*
X171711904Y-68787142D01*
X171664285Y-68834761D01*
X171569047Y-68882380D01*
X171283333Y-68882380D01*
X171188095Y-68834761D01*
X171140476Y-68787142D01*
X172616666Y-67882380D02*
X172426190Y-67882380D01*
X172330952Y-67930000D01*
X172283333Y-67977619D01*
X172188095Y-68120476D01*
X172140476Y-68310952D01*
X172140476Y-68691904D01*
X172188095Y-68787142D01*
X172235714Y-68834761D01*
X172330952Y-68882380D01*
X172521428Y-68882380D01*
X172616666Y-68834761D01*
X172664285Y-68787142D01*
X172711904Y-68691904D01*
X172711904Y-68453809D01*
X172664285Y-68358571D01*
X172616666Y-68310952D01*
X172521428Y-68263333D01*
X172330952Y-68263333D01*
X172235714Y-68310952D01*
X172188095Y-68358571D01*
X172140476Y-68453809D01*
%TO.C,D31*%
X160075714Y-68882380D02*
X160075714Y-67882380D01*
X160313809Y-67882380D01*
X160456666Y-67930000D01*
X160551904Y-68025238D01*
X160599523Y-68120476D01*
X160647142Y-68310952D01*
X160647142Y-68453809D01*
X160599523Y-68644285D01*
X160551904Y-68739523D01*
X160456666Y-68834761D01*
X160313809Y-68882380D01*
X160075714Y-68882380D01*
X160980476Y-67882380D02*
X161599523Y-67882380D01*
X161266190Y-68263333D01*
X161409047Y-68263333D01*
X161504285Y-68310952D01*
X161551904Y-68358571D01*
X161599523Y-68453809D01*
X161599523Y-68691904D01*
X161551904Y-68787142D01*
X161504285Y-68834761D01*
X161409047Y-68882380D01*
X161123333Y-68882380D01*
X161028095Y-68834761D01*
X160980476Y-68787142D01*
X162551904Y-68882380D02*
X161980476Y-68882380D01*
X162266190Y-68882380D02*
X162266190Y-67882380D01*
X162170952Y-68025238D01*
X162075714Y-68120476D01*
X161980476Y-68168095D01*
%TO.C,R10*%
X198572380Y-92082857D02*
X198096190Y-92416190D01*
X198572380Y-92654285D02*
X197572380Y-92654285D01*
X197572380Y-92273333D01*
X197620000Y-92178095D01*
X197667619Y-92130476D01*
X197762857Y-92082857D01*
X197905714Y-92082857D01*
X198000952Y-92130476D01*
X198048571Y-92178095D01*
X198096190Y-92273333D01*
X198096190Y-92654285D01*
X198572380Y-91130476D02*
X198572380Y-91701904D01*
X198572380Y-91416190D02*
X197572380Y-91416190D01*
X197715238Y-91511428D01*
X197810476Y-91606666D01*
X197858095Y-91701904D01*
X197572380Y-90511428D02*
X197572380Y-90416190D01*
X197620000Y-90320952D01*
X197667619Y-90273333D01*
X197762857Y-90225714D01*
X197953333Y-90178095D01*
X198191428Y-90178095D01*
X198381904Y-90225714D01*
X198477142Y-90273333D01*
X198524761Y-90320952D01*
X198572380Y-90416190D01*
X198572380Y-90511428D01*
X198524761Y-90606666D01*
X198477142Y-90654285D01*
X198381904Y-90701904D01*
X198191428Y-90749523D01*
X197953333Y-90749523D01*
X197762857Y-90701904D01*
X197667619Y-90654285D01*
X197620000Y-90606666D01*
X197572380Y-90511428D01*
%TO.C,Q2*%
X193837619Y-72485238D02*
X193790000Y-72580476D01*
X193694761Y-72675714D01*
X193551904Y-72818571D01*
X193504285Y-72913809D01*
X193504285Y-73009047D01*
X193742380Y-72961428D02*
X193694761Y-73056666D01*
X193599523Y-73151904D01*
X193409047Y-73199523D01*
X193075714Y-73199523D01*
X192885238Y-73151904D01*
X192790000Y-73056666D01*
X192742380Y-72961428D01*
X192742380Y-72770952D01*
X192790000Y-72675714D01*
X192885238Y-72580476D01*
X193075714Y-72532857D01*
X193409047Y-72532857D01*
X193599523Y-72580476D01*
X193694761Y-72675714D01*
X193742380Y-72770952D01*
X193742380Y-72961428D01*
X192837619Y-72151904D02*
X192790000Y-72104285D01*
X192742380Y-72009047D01*
X192742380Y-71770952D01*
X192790000Y-71675714D01*
X192837619Y-71628095D01*
X192932857Y-71580476D01*
X193028095Y-71580476D01*
X193170952Y-71628095D01*
X193742380Y-72199523D01*
X193742380Y-71580476D01*
%TO.C,D35*%
X170235714Y-59992380D02*
X170235714Y-58992380D01*
X170473809Y-58992380D01*
X170616666Y-59040000D01*
X170711904Y-59135238D01*
X170759523Y-59230476D01*
X170807142Y-59420952D01*
X170807142Y-59563809D01*
X170759523Y-59754285D01*
X170711904Y-59849523D01*
X170616666Y-59944761D01*
X170473809Y-59992380D01*
X170235714Y-59992380D01*
X171140476Y-58992380D02*
X171759523Y-58992380D01*
X171426190Y-59373333D01*
X171569047Y-59373333D01*
X171664285Y-59420952D01*
X171711904Y-59468571D01*
X171759523Y-59563809D01*
X171759523Y-59801904D01*
X171711904Y-59897142D01*
X171664285Y-59944761D01*
X171569047Y-59992380D01*
X171283333Y-59992380D01*
X171188095Y-59944761D01*
X171140476Y-59897142D01*
X172664285Y-58992380D02*
X172188095Y-58992380D01*
X172140476Y-59468571D01*
X172188095Y-59420952D01*
X172283333Y-59373333D01*
X172521428Y-59373333D01*
X172616666Y-59420952D01*
X172664285Y-59468571D01*
X172711904Y-59563809D01*
X172711904Y-59801904D01*
X172664285Y-59897142D01*
X172616666Y-59944761D01*
X172521428Y-59992380D01*
X172283333Y-59992380D01*
X172188095Y-59944761D01*
X172140476Y-59897142D01*
%TO.C,D29*%
X160075714Y-33322380D02*
X160075714Y-32322380D01*
X160313809Y-32322380D01*
X160456666Y-32370000D01*
X160551904Y-32465238D01*
X160599523Y-32560476D01*
X160647142Y-32750952D01*
X160647142Y-32893809D01*
X160599523Y-33084285D01*
X160551904Y-33179523D01*
X160456666Y-33274761D01*
X160313809Y-33322380D01*
X160075714Y-33322380D01*
X161028095Y-32417619D02*
X161075714Y-32370000D01*
X161170952Y-32322380D01*
X161409047Y-32322380D01*
X161504285Y-32370000D01*
X161551904Y-32417619D01*
X161599523Y-32512857D01*
X161599523Y-32608095D01*
X161551904Y-32750952D01*
X160980476Y-33322380D01*
X161599523Y-33322380D01*
X162075714Y-33322380D02*
X162266190Y-33322380D01*
X162361428Y-33274761D01*
X162409047Y-33227142D01*
X162504285Y-33084285D01*
X162551904Y-32893809D01*
X162551904Y-32512857D01*
X162504285Y-32417619D01*
X162456666Y-32370000D01*
X162361428Y-32322380D01*
X162170952Y-32322380D01*
X162075714Y-32370000D01*
X162028095Y-32417619D01*
X161980476Y-32512857D01*
X161980476Y-32750952D01*
X162028095Y-32846190D01*
X162075714Y-32893809D01*
X162170952Y-32941428D01*
X162361428Y-32941428D01*
X162456666Y-32893809D01*
X162504285Y-32846190D01*
X162551904Y-32750952D01*
%TO.C,D52*%
X151205725Y-129842380D02*
X151205725Y-128842380D01*
X151443820Y-128842380D01*
X151586677Y-128890000D01*
X151681915Y-128985238D01*
X151729534Y-129080476D01*
X151777153Y-129270952D01*
X151777153Y-129413809D01*
X151729534Y-129604285D01*
X151681915Y-129699523D01*
X151586677Y-129794761D01*
X151443820Y-129842380D01*
X151205725Y-129842380D01*
X152681915Y-128842380D02*
X152205725Y-128842380D01*
X152158106Y-129318571D01*
X152205725Y-129270952D01*
X152300963Y-129223333D01*
X152539058Y-129223333D01*
X152634296Y-129270952D01*
X152681915Y-129318571D01*
X152729534Y-129413809D01*
X152729534Y-129651904D01*
X152681915Y-129747142D01*
X152634296Y-129794761D01*
X152539058Y-129842380D01*
X152300963Y-129842380D01*
X152205725Y-129794761D01*
X152158106Y-129747142D01*
X153110487Y-128937619D02*
X153158106Y-128890000D01*
X153253344Y-128842380D01*
X153491439Y-128842380D01*
X153586677Y-128890000D01*
X153634296Y-128937619D01*
X153681915Y-129032857D01*
X153681915Y-129128095D01*
X153634296Y-129270952D01*
X153062868Y-129842380D01*
X153681915Y-129842380D01*
%TO.C,REF\u002A\u002A*%
X233616666Y-78032380D02*
X233283333Y-77556190D01*
X233045238Y-78032380D02*
X233045238Y-77032380D01*
X233426190Y-77032380D01*
X233521428Y-77080000D01*
X233569047Y-77127619D01*
X233616666Y-77222857D01*
X233616666Y-77365714D01*
X233569047Y-77460952D01*
X233521428Y-77508571D01*
X233426190Y-77556190D01*
X233045238Y-77556190D01*
X234045238Y-77508571D02*
X234378571Y-77508571D01*
X234521428Y-78032380D02*
X234045238Y-78032380D01*
X234045238Y-77032380D01*
X234521428Y-77032380D01*
X235283333Y-77508571D02*
X234950000Y-77508571D01*
X234950000Y-78032380D02*
X234950000Y-77032380D01*
X235426190Y-77032380D01*
X235950000Y-77032380D02*
X235950000Y-77270476D01*
X235711904Y-77175238D02*
X235950000Y-77270476D01*
X236188095Y-77175238D01*
X235807142Y-77460952D02*
X235950000Y-77270476D01*
X236092857Y-77460952D01*
X236711904Y-77032380D02*
X236711904Y-77270476D01*
X236473809Y-77175238D02*
X236711904Y-77270476D01*
X236950000Y-77175238D01*
X236569047Y-77460952D02*
X236711904Y-77270476D01*
X236854761Y-77460952D01*
%TO.C,R2*%
X100163333Y-70302380D02*
X99830000Y-69826190D01*
X99591904Y-70302380D02*
X99591904Y-69302380D01*
X99972857Y-69302380D01*
X100068095Y-69350000D01*
X100115714Y-69397619D01*
X100163333Y-69492857D01*
X100163333Y-69635714D01*
X100115714Y-69730952D01*
X100068095Y-69778571D01*
X99972857Y-69826190D01*
X99591904Y-69826190D01*
X100544285Y-69397619D02*
X100591904Y-69350000D01*
X100687142Y-69302380D01*
X100925238Y-69302380D01*
X101020476Y-69350000D01*
X101068095Y-69397619D01*
X101115714Y-69492857D01*
X101115714Y-69588095D01*
X101068095Y-69730952D01*
X100496666Y-70302380D01*
X101115714Y-70302380D01*
%TO.C,REF\u002A\u002A*%
X138366666Y-8182380D02*
X138033333Y-7706190D01*
X137795238Y-8182380D02*
X137795238Y-7182380D01*
X138176190Y-7182380D01*
X138271428Y-7230000D01*
X138319047Y-7277619D01*
X138366666Y-7372857D01*
X138366666Y-7515714D01*
X138319047Y-7610952D01*
X138271428Y-7658571D01*
X138176190Y-7706190D01*
X137795238Y-7706190D01*
X138795238Y-7658571D02*
X139128571Y-7658571D01*
X139271428Y-8182380D02*
X138795238Y-8182380D01*
X138795238Y-7182380D01*
X139271428Y-7182380D01*
X140033333Y-7658571D02*
X139700000Y-7658571D01*
X139700000Y-8182380D02*
X139700000Y-7182380D01*
X140176190Y-7182380D01*
X140700000Y-7182380D02*
X140700000Y-7420476D01*
X140461904Y-7325238D02*
X140700000Y-7420476D01*
X140938095Y-7325238D01*
X140557142Y-7610952D02*
X140700000Y-7420476D01*
X140842857Y-7610952D01*
X141461904Y-7182380D02*
X141461904Y-7420476D01*
X141223809Y-7325238D02*
X141461904Y-7420476D01*
X141700000Y-7325238D01*
X141319047Y-7610952D02*
X141461904Y-7420476D01*
X141604761Y-7610952D01*
%TO.C,D42*%
X114355714Y-112062380D02*
X114355714Y-111062380D01*
X114593809Y-111062380D01*
X114736666Y-111110000D01*
X114831904Y-111205238D01*
X114879523Y-111300476D01*
X114927142Y-111490952D01*
X114927142Y-111633809D01*
X114879523Y-111824285D01*
X114831904Y-111919523D01*
X114736666Y-112014761D01*
X114593809Y-112062380D01*
X114355714Y-112062380D01*
X115784285Y-111395714D02*
X115784285Y-112062380D01*
X115546190Y-111014761D02*
X115308095Y-111729047D01*
X115927142Y-111729047D01*
X116260476Y-111157619D02*
X116308095Y-111110000D01*
X116403333Y-111062380D01*
X116641428Y-111062380D01*
X116736666Y-111110000D01*
X116784285Y-111157619D01*
X116831904Y-111252857D01*
X116831904Y-111348095D01*
X116784285Y-111490952D01*
X116212857Y-112062380D01*
X116831904Y-112062380D01*
%TO.C,D8*%
X170711904Y-138732380D02*
X170711904Y-137732380D01*
X170950000Y-137732380D01*
X171092857Y-137780000D01*
X171188095Y-137875238D01*
X171235714Y-137970476D01*
X171283333Y-138160952D01*
X171283333Y-138303809D01*
X171235714Y-138494285D01*
X171188095Y-138589523D01*
X171092857Y-138684761D01*
X170950000Y-138732380D01*
X170711904Y-138732380D01*
X171854761Y-138160952D02*
X171759523Y-138113333D01*
X171711904Y-138065714D01*
X171664285Y-137970476D01*
X171664285Y-137922857D01*
X171711904Y-137827619D01*
X171759523Y-137780000D01*
X171854761Y-137732380D01*
X172045238Y-137732380D01*
X172140476Y-137780000D01*
X172188095Y-137827619D01*
X172235714Y-137922857D01*
X172235714Y-137970476D01*
X172188095Y-138065714D01*
X172140476Y-138113333D01*
X172045238Y-138160952D01*
X171854761Y-138160952D01*
X171759523Y-138208571D01*
X171711904Y-138256190D01*
X171664285Y-138351428D01*
X171664285Y-138541904D01*
X171711904Y-138637142D01*
X171759523Y-138684761D01*
X171854761Y-138732380D01*
X172045238Y-138732380D01*
X172140476Y-138684761D01*
X172188095Y-138637142D01*
X172235714Y-138541904D01*
X172235714Y-138351428D01*
X172188095Y-138256190D01*
X172140476Y-138208571D01*
X172045238Y-138160952D01*
%TO.C,D10*%
X170235714Y-147622380D02*
X170235714Y-146622380D01*
X170473809Y-146622380D01*
X170616666Y-146670000D01*
X170711904Y-146765238D01*
X170759523Y-146860476D01*
X170807142Y-147050952D01*
X170807142Y-147193809D01*
X170759523Y-147384285D01*
X170711904Y-147479523D01*
X170616666Y-147574761D01*
X170473809Y-147622380D01*
X170235714Y-147622380D01*
X171759523Y-147622380D02*
X171188095Y-147622380D01*
X171473809Y-147622380D02*
X171473809Y-146622380D01*
X171378571Y-146765238D01*
X171283333Y-146860476D01*
X171188095Y-146908095D01*
X172378571Y-146622380D02*
X172473809Y-146622380D01*
X172569047Y-146670000D01*
X172616666Y-146717619D01*
X172664285Y-146812857D01*
X172711904Y-147003333D01*
X172711904Y-147241428D01*
X172664285Y-147431904D01*
X172616666Y-147527142D01*
X172569047Y-147574761D01*
X172473809Y-147622380D01*
X172378571Y-147622380D01*
X172283333Y-147574761D01*
X172235714Y-147527142D01*
X172188095Y-147431904D01*
X172140476Y-147241428D01*
X172140476Y-147003333D01*
X172188095Y-146812857D01*
X172235714Y-146717619D01*
X172283333Y-146670000D01*
X172378571Y-146622380D01*
%TO.C,D7*%
X114831904Y-51102380D02*
X114831904Y-50102380D01*
X115070000Y-50102380D01*
X115212857Y-50150000D01*
X115308095Y-50245238D01*
X115355714Y-50340476D01*
X115403333Y-50530952D01*
X115403333Y-50673809D01*
X115355714Y-50864285D01*
X115308095Y-50959523D01*
X115212857Y-51054761D01*
X115070000Y-51102380D01*
X114831904Y-51102380D01*
X115736666Y-50102380D02*
X116403333Y-50102380D01*
X115974761Y-51102380D01*
%TO.C,D53*%
X132135714Y-112062380D02*
X132135714Y-111062380D01*
X132373809Y-111062380D01*
X132516666Y-111110000D01*
X132611904Y-111205238D01*
X132659523Y-111300476D01*
X132707142Y-111490952D01*
X132707142Y-111633809D01*
X132659523Y-111824285D01*
X132611904Y-111919523D01*
X132516666Y-112014761D01*
X132373809Y-112062380D01*
X132135714Y-112062380D01*
X133611904Y-111062380D02*
X133135714Y-111062380D01*
X133088095Y-111538571D01*
X133135714Y-111490952D01*
X133230952Y-111443333D01*
X133469047Y-111443333D01*
X133564285Y-111490952D01*
X133611904Y-111538571D01*
X133659523Y-111633809D01*
X133659523Y-111871904D01*
X133611904Y-111967142D01*
X133564285Y-112014761D01*
X133469047Y-112062380D01*
X133230952Y-112062380D01*
X133135714Y-112014761D01*
X133088095Y-111967142D01*
X133992857Y-111062380D02*
X134611904Y-111062380D01*
X134278571Y-111443333D01*
X134421428Y-111443333D01*
X134516666Y-111490952D01*
X134564285Y-111538571D01*
X134611904Y-111633809D01*
X134611904Y-111871904D01*
X134564285Y-111967142D01*
X134516666Y-112014761D01*
X134421428Y-112062380D01*
X134135714Y-112062380D01*
X134040476Y-112014761D01*
X133992857Y-111967142D01*
%TO.C,D56*%
X160095725Y-138732380D02*
X160095725Y-137732380D01*
X160333820Y-137732380D01*
X160476677Y-137780000D01*
X160571915Y-137875238D01*
X160619534Y-137970476D01*
X160667153Y-138160952D01*
X160667153Y-138303809D01*
X160619534Y-138494285D01*
X160571915Y-138589523D01*
X160476677Y-138684761D01*
X160333820Y-138732380D01*
X160095725Y-138732380D01*
X161571915Y-137732380D02*
X161095725Y-137732380D01*
X161048106Y-138208571D01*
X161095725Y-138160952D01*
X161190963Y-138113333D01*
X161429058Y-138113333D01*
X161524296Y-138160952D01*
X161571915Y-138208571D01*
X161619534Y-138303809D01*
X161619534Y-138541904D01*
X161571915Y-138637142D01*
X161524296Y-138684761D01*
X161429058Y-138732380D01*
X161190963Y-138732380D01*
X161095725Y-138684761D01*
X161048106Y-138637142D01*
X162476677Y-137732380D02*
X162286201Y-137732380D01*
X162190963Y-137780000D01*
X162143344Y-137827619D01*
X162048106Y-137970476D01*
X162000487Y-138160952D01*
X162000487Y-138541904D01*
X162048106Y-138637142D01*
X162095725Y-138684761D01*
X162190963Y-138732380D01*
X162381439Y-138732380D01*
X162476677Y-138684761D01*
X162524296Y-138637142D01*
X162571915Y-138541904D01*
X162571915Y-138303809D01*
X162524296Y-138208571D01*
X162476677Y-138160952D01*
X162381439Y-138113333D01*
X162190963Y-138113333D01*
X162095725Y-138160952D01*
X162048106Y-138208571D01*
X162000487Y-138303809D01*
%TO.C,D65*%
X142315725Y-147622380D02*
X142315725Y-146622380D01*
X142553820Y-146622380D01*
X142696677Y-146670000D01*
X142791915Y-146765238D01*
X142839534Y-146860476D01*
X142887153Y-147050952D01*
X142887153Y-147193809D01*
X142839534Y-147384285D01*
X142791915Y-147479523D01*
X142696677Y-147574761D01*
X142553820Y-147622380D01*
X142315725Y-147622380D01*
X143744296Y-146622380D02*
X143553820Y-146622380D01*
X143458582Y-146670000D01*
X143410963Y-146717619D01*
X143315725Y-146860476D01*
X143268106Y-147050952D01*
X143268106Y-147431904D01*
X143315725Y-147527142D01*
X143363344Y-147574761D01*
X143458582Y-147622380D01*
X143649058Y-147622380D01*
X143744296Y-147574761D01*
X143791915Y-147527142D01*
X143839534Y-147431904D01*
X143839534Y-147193809D01*
X143791915Y-147098571D01*
X143744296Y-147050952D01*
X143649058Y-147003333D01*
X143458582Y-147003333D01*
X143363344Y-147050952D01*
X143315725Y-147098571D01*
X143268106Y-147193809D01*
X144744296Y-146622380D02*
X144268106Y-146622380D01*
X144220487Y-147098571D01*
X144268106Y-147050952D01*
X144363344Y-147003333D01*
X144601439Y-147003333D01*
X144696677Y-147050952D01*
X144744296Y-147098571D01*
X144791915Y-147193809D01*
X144791915Y-147431904D01*
X144744296Y-147527142D01*
X144696677Y-147574761D01*
X144601439Y-147622380D01*
X144363344Y-147622380D01*
X144268106Y-147574761D01*
X144220487Y-147527142D01*
%TO.C,R4*%
X222083333Y-104772380D02*
X221750000Y-104296190D01*
X221511904Y-104772380D02*
X221511904Y-103772380D01*
X221892857Y-103772380D01*
X221988095Y-103820000D01*
X222035714Y-103867619D01*
X222083333Y-103962857D01*
X222083333Y-104105714D01*
X222035714Y-104200952D01*
X221988095Y-104248571D01*
X221892857Y-104296190D01*
X221511904Y-104296190D01*
X222940476Y-104105714D02*
X222940476Y-104772380D01*
X222702380Y-103724761D02*
X222464285Y-104439047D01*
X223083333Y-104439047D01*
%TO.C,D46*%
X142315725Y-112062380D02*
X142315725Y-111062380D01*
X142553820Y-111062380D01*
X142696677Y-111110000D01*
X142791915Y-111205238D01*
X142839534Y-111300476D01*
X142887153Y-111490952D01*
X142887153Y-111633809D01*
X142839534Y-111824285D01*
X142791915Y-111919523D01*
X142696677Y-112014761D01*
X142553820Y-112062380D01*
X142315725Y-112062380D01*
X143744296Y-111395714D02*
X143744296Y-112062380D01*
X143506201Y-111014761D02*
X143268106Y-111729047D01*
X143887153Y-111729047D01*
X144696677Y-111062380D02*
X144506201Y-111062380D01*
X144410963Y-111110000D01*
X144363344Y-111157619D01*
X144268106Y-111300476D01*
X144220487Y-111490952D01*
X144220487Y-111871904D01*
X144268106Y-111967142D01*
X144315725Y-112014761D01*
X144410963Y-112062380D01*
X144601439Y-112062380D01*
X144696677Y-112014761D01*
X144744296Y-111967142D01*
X144791915Y-111871904D01*
X144791915Y-111633809D01*
X144744296Y-111538571D01*
X144696677Y-111490952D01*
X144601439Y-111443333D01*
X144410963Y-111443333D01*
X144315725Y-111490952D01*
X144268106Y-111538571D01*
X144220487Y-111633809D01*
%TO.C,D54*%
X160095725Y-129842380D02*
X160095725Y-128842380D01*
X160333820Y-128842380D01*
X160476677Y-128890000D01*
X160571915Y-128985238D01*
X160619534Y-129080476D01*
X160667153Y-129270952D01*
X160667153Y-129413809D01*
X160619534Y-129604285D01*
X160571915Y-129699523D01*
X160476677Y-129794761D01*
X160333820Y-129842380D01*
X160095725Y-129842380D01*
X161571915Y-128842380D02*
X161095725Y-128842380D01*
X161048106Y-129318571D01*
X161095725Y-129270952D01*
X161190963Y-129223333D01*
X161429058Y-129223333D01*
X161524296Y-129270952D01*
X161571915Y-129318571D01*
X161619534Y-129413809D01*
X161619534Y-129651904D01*
X161571915Y-129747142D01*
X161524296Y-129794761D01*
X161429058Y-129842380D01*
X161190963Y-129842380D01*
X161095725Y-129794761D01*
X161048106Y-129747142D01*
X162476677Y-129175714D02*
X162476677Y-129842380D01*
X162238582Y-128794761D02*
X162000487Y-129509047D01*
X162619534Y-129509047D01*
%TO.C,D41*%
X179125714Y-68882380D02*
X179125714Y-67882380D01*
X179363809Y-67882380D01*
X179506666Y-67930000D01*
X179601904Y-68025238D01*
X179649523Y-68120476D01*
X179697142Y-68310952D01*
X179697142Y-68453809D01*
X179649523Y-68644285D01*
X179601904Y-68739523D01*
X179506666Y-68834761D01*
X179363809Y-68882380D01*
X179125714Y-68882380D01*
X180554285Y-68215714D02*
X180554285Y-68882380D01*
X180316190Y-67834761D02*
X180078095Y-68549047D01*
X180697142Y-68549047D01*
X181601904Y-68882380D02*
X181030476Y-68882380D01*
X181316190Y-68882380D02*
X181316190Y-67882380D01*
X181220952Y-68025238D01*
X181125714Y-68120476D01*
X181030476Y-68168095D01*
%TO.C,D43*%
X188015714Y-68882380D02*
X188015714Y-67882380D01*
X188253809Y-67882380D01*
X188396666Y-67930000D01*
X188491904Y-68025238D01*
X188539523Y-68120476D01*
X188587142Y-68310952D01*
X188587142Y-68453809D01*
X188539523Y-68644285D01*
X188491904Y-68739523D01*
X188396666Y-68834761D01*
X188253809Y-68882380D01*
X188015714Y-68882380D01*
X189444285Y-68215714D02*
X189444285Y-68882380D01*
X189206190Y-67834761D02*
X188968095Y-68549047D01*
X189587142Y-68549047D01*
X189872857Y-67882380D02*
X190491904Y-67882380D01*
X190158571Y-68263333D01*
X190301428Y-68263333D01*
X190396666Y-68310952D01*
X190444285Y-68358571D01*
X190491904Y-68453809D01*
X190491904Y-68691904D01*
X190444285Y-68787142D01*
X190396666Y-68834761D01*
X190301428Y-68882380D01*
X190015714Y-68882380D01*
X189920476Y-68834761D01*
X189872857Y-68787142D01*
%TO.C,REF\u002A\u002A*%
X163766666Y-173282380D02*
X163433333Y-172806190D01*
X163195238Y-173282380D02*
X163195238Y-172282380D01*
X163576190Y-172282380D01*
X163671428Y-172330000D01*
X163719047Y-172377619D01*
X163766666Y-172472857D01*
X163766666Y-172615714D01*
X163719047Y-172710952D01*
X163671428Y-172758571D01*
X163576190Y-172806190D01*
X163195238Y-172806190D01*
X164195238Y-172758571D02*
X164528571Y-172758571D01*
X164671428Y-173282380D02*
X164195238Y-173282380D01*
X164195238Y-172282380D01*
X164671428Y-172282380D01*
X165433333Y-172758571D02*
X165100000Y-172758571D01*
X165100000Y-173282380D02*
X165100000Y-172282380D01*
X165576190Y-172282380D01*
X166100000Y-172282380D02*
X166100000Y-172520476D01*
X165861904Y-172425238D02*
X166100000Y-172520476D01*
X166338095Y-172425238D01*
X165957142Y-172710952D02*
X166100000Y-172520476D01*
X166242857Y-172710952D01*
X166861904Y-172282380D02*
X166861904Y-172520476D01*
X166623809Y-172425238D02*
X166861904Y-172520476D01*
X167100000Y-172425238D01*
X166719047Y-172710952D02*
X166861904Y-172520476D01*
X167004761Y-172710952D01*
%TO.C,R1*%
X100163333Y-115842380D02*
X99830000Y-115366190D01*
X99591904Y-115842380D02*
X99591904Y-114842380D01*
X99972857Y-114842380D01*
X100068095Y-114890000D01*
X100115714Y-114937619D01*
X100163333Y-115032857D01*
X100163333Y-115175714D01*
X100115714Y-115270952D01*
X100068095Y-115318571D01*
X99972857Y-115366190D01*
X99591904Y-115366190D01*
X101115714Y-115842380D02*
X100544285Y-115842380D01*
X100830000Y-115842380D02*
X100830000Y-114842380D01*
X100734761Y-114985238D01*
X100639523Y-115080476D01*
X100544285Y-115128095D01*
%TO.C,Q4*%
X193837619Y-59785238D02*
X193790000Y-59880476D01*
X193694761Y-59975714D01*
X193551904Y-60118571D01*
X193504285Y-60213809D01*
X193504285Y-60309047D01*
X193742380Y-60261428D02*
X193694761Y-60356666D01*
X193599523Y-60451904D01*
X193409047Y-60499523D01*
X193075714Y-60499523D01*
X192885238Y-60451904D01*
X192790000Y-60356666D01*
X192742380Y-60261428D01*
X192742380Y-60070952D01*
X192790000Y-59975714D01*
X192885238Y-59880476D01*
X193075714Y-59832857D01*
X193409047Y-59832857D01*
X193599523Y-59880476D01*
X193694761Y-59975714D01*
X193742380Y-60070952D01*
X193742380Y-60261428D01*
X193075714Y-58975714D02*
X193742380Y-58975714D01*
X192694761Y-59213809D02*
X193409047Y-59451904D01*
X193409047Y-58832857D01*
%TO.C,D23*%
X142295714Y-33322380D02*
X142295714Y-32322380D01*
X142533809Y-32322380D01*
X142676666Y-32370000D01*
X142771904Y-32465238D01*
X142819523Y-32560476D01*
X142867142Y-32750952D01*
X142867142Y-32893809D01*
X142819523Y-33084285D01*
X142771904Y-33179523D01*
X142676666Y-33274761D01*
X142533809Y-33322380D01*
X142295714Y-33322380D01*
X143248095Y-32417619D02*
X143295714Y-32370000D01*
X143390952Y-32322380D01*
X143629047Y-32322380D01*
X143724285Y-32370000D01*
X143771904Y-32417619D01*
X143819523Y-32512857D01*
X143819523Y-32608095D01*
X143771904Y-32750952D01*
X143200476Y-33322380D01*
X143819523Y-33322380D01*
X144152857Y-32322380D02*
X144771904Y-32322380D01*
X144438571Y-32703333D01*
X144581428Y-32703333D01*
X144676666Y-32750952D01*
X144724285Y-32798571D01*
X144771904Y-32893809D01*
X144771904Y-33131904D01*
X144724285Y-33227142D01*
X144676666Y-33274761D01*
X144581428Y-33322380D01*
X144295714Y-33322380D01*
X144200476Y-33274761D01*
X144152857Y-33227142D01*
%TO.C,BAT1*%
X104355714Y-78838571D02*
X104498571Y-78886190D01*
X104546190Y-78933809D01*
X104593809Y-79029047D01*
X104593809Y-79171904D01*
X104546190Y-79267142D01*
X104498571Y-79314761D01*
X104403333Y-79362380D01*
X104022380Y-79362380D01*
X104022380Y-78362380D01*
X104355714Y-78362380D01*
X104450952Y-78410000D01*
X104498571Y-78457619D01*
X104546190Y-78552857D01*
X104546190Y-78648095D01*
X104498571Y-78743333D01*
X104450952Y-78790952D01*
X104355714Y-78838571D01*
X104022380Y-78838571D01*
X104974761Y-79076666D02*
X105450952Y-79076666D01*
X104879523Y-79362380D02*
X105212857Y-78362380D01*
X105546190Y-79362380D01*
X105736666Y-78362380D02*
X106308095Y-78362380D01*
X106022380Y-79362380D02*
X106022380Y-78362380D01*
X107165238Y-79362380D02*
X106593809Y-79362380D01*
X106879523Y-79362380D02*
X106879523Y-78362380D01*
X106784285Y-78505238D01*
X106689047Y-78600476D01*
X106593809Y-78648095D01*
%TO.C,D19*%
X123245714Y-51102380D02*
X123245714Y-50102380D01*
X123483809Y-50102380D01*
X123626666Y-50150000D01*
X123721904Y-50245238D01*
X123769523Y-50340476D01*
X123817142Y-50530952D01*
X123817142Y-50673809D01*
X123769523Y-50864285D01*
X123721904Y-50959523D01*
X123626666Y-51054761D01*
X123483809Y-51102380D01*
X123245714Y-51102380D01*
X124769523Y-51102380D02*
X124198095Y-51102380D01*
X124483809Y-51102380D02*
X124483809Y-50102380D01*
X124388571Y-50245238D01*
X124293333Y-50340476D01*
X124198095Y-50388095D01*
X125245714Y-51102380D02*
X125436190Y-51102380D01*
X125531428Y-51054761D01*
X125579047Y-51007142D01*
X125674285Y-50864285D01*
X125721904Y-50673809D01*
X125721904Y-50292857D01*
X125674285Y-50197619D01*
X125626666Y-50150000D01*
X125531428Y-50102380D01*
X125340952Y-50102380D01*
X125245714Y-50150000D01*
X125198095Y-50197619D01*
X125150476Y-50292857D01*
X125150476Y-50530952D01*
X125198095Y-50626190D01*
X125245714Y-50673809D01*
X125340952Y-50721428D01*
X125531428Y-50721428D01*
X125626666Y-50673809D01*
X125674285Y-50626190D01*
X125721904Y-50530952D01*
%TO.C,S1*%
X133274761Y-92251904D02*
X133322380Y-92109047D01*
X133322380Y-91870952D01*
X133274761Y-91775714D01*
X133227142Y-91728095D01*
X133131904Y-91680476D01*
X133036666Y-91680476D01*
X132941428Y-91728095D01*
X132893809Y-91775714D01*
X132846190Y-91870952D01*
X132798571Y-92061428D01*
X132750952Y-92156666D01*
X132703333Y-92204285D01*
X132608095Y-92251904D01*
X132512857Y-92251904D01*
X132417619Y-92204285D01*
X132370000Y-92156666D01*
X132322380Y-92061428D01*
X132322380Y-91823333D01*
X132370000Y-91680476D01*
X133322380Y-90728095D02*
X133322380Y-91299523D01*
X133322380Y-91013809D02*
X132322380Y-91013809D01*
X132465238Y-91109047D01*
X132560476Y-91204285D01*
X132608095Y-91299523D01*
%TO.C,D13*%
X123245714Y-68882380D02*
X123245714Y-67882380D01*
X123483809Y-67882380D01*
X123626666Y-67930000D01*
X123721904Y-68025238D01*
X123769523Y-68120476D01*
X123817142Y-68310952D01*
X123817142Y-68453809D01*
X123769523Y-68644285D01*
X123721904Y-68739523D01*
X123626666Y-68834761D01*
X123483809Y-68882380D01*
X123245714Y-68882380D01*
X124769523Y-68882380D02*
X124198095Y-68882380D01*
X124483809Y-68882380D02*
X124483809Y-67882380D01*
X124388571Y-68025238D01*
X124293333Y-68120476D01*
X124198095Y-68168095D01*
X125102857Y-67882380D02*
X125721904Y-67882380D01*
X125388571Y-68263333D01*
X125531428Y-68263333D01*
X125626666Y-68310952D01*
X125674285Y-68358571D01*
X125721904Y-68453809D01*
X125721904Y-68691904D01*
X125674285Y-68787142D01*
X125626666Y-68834761D01*
X125531428Y-68882380D01*
X125245714Y-68882380D01*
X125150476Y-68834761D01*
X125102857Y-68787142D01*
%TO.C,D12*%
X179125714Y-147622380D02*
X179125714Y-146622380D01*
X179363809Y-146622380D01*
X179506666Y-146670000D01*
X179601904Y-146765238D01*
X179649523Y-146860476D01*
X179697142Y-147050952D01*
X179697142Y-147193809D01*
X179649523Y-147384285D01*
X179601904Y-147479523D01*
X179506666Y-147574761D01*
X179363809Y-147622380D01*
X179125714Y-147622380D01*
X180649523Y-147622380D02*
X180078095Y-147622380D01*
X180363809Y-147622380D02*
X180363809Y-146622380D01*
X180268571Y-146765238D01*
X180173333Y-146860476D01*
X180078095Y-146908095D01*
X181030476Y-146717619D02*
X181078095Y-146670000D01*
X181173333Y-146622380D01*
X181411428Y-146622380D01*
X181506666Y-146670000D01*
X181554285Y-146717619D01*
X181601904Y-146812857D01*
X181601904Y-146908095D01*
X181554285Y-147050952D01*
X180982857Y-147622380D01*
X181601904Y-147622380D01*
%TO.C,D11*%
X114355714Y-68882380D02*
X114355714Y-67882380D01*
X114593809Y-67882380D01*
X114736666Y-67930000D01*
X114831904Y-68025238D01*
X114879523Y-68120476D01*
X114927142Y-68310952D01*
X114927142Y-68453809D01*
X114879523Y-68644285D01*
X114831904Y-68739523D01*
X114736666Y-68834761D01*
X114593809Y-68882380D01*
X114355714Y-68882380D01*
X115879523Y-68882380D02*
X115308095Y-68882380D01*
X115593809Y-68882380D02*
X115593809Y-67882380D01*
X115498571Y-68025238D01*
X115403333Y-68120476D01*
X115308095Y-68168095D01*
X116831904Y-68882380D02*
X116260476Y-68882380D01*
X116546190Y-68882380D02*
X116546190Y-67882380D01*
X116450952Y-68025238D01*
X116355714Y-68120476D01*
X116260476Y-68168095D01*
%TO.C,D6*%
X188491904Y-138732380D02*
X188491904Y-137732380D01*
X188730000Y-137732380D01*
X188872857Y-137780000D01*
X188968095Y-137875238D01*
X189015714Y-137970476D01*
X189063333Y-138160952D01*
X189063333Y-138303809D01*
X189015714Y-138494285D01*
X188968095Y-138589523D01*
X188872857Y-138684761D01*
X188730000Y-138732380D01*
X188491904Y-138732380D01*
X189920476Y-137732380D02*
X189730000Y-137732380D01*
X189634761Y-137780000D01*
X189587142Y-137827619D01*
X189491904Y-137970476D01*
X189444285Y-138160952D01*
X189444285Y-138541904D01*
X189491904Y-138637142D01*
X189539523Y-138684761D01*
X189634761Y-138732380D01*
X189825238Y-138732380D01*
X189920476Y-138684761D01*
X189968095Y-138637142D01*
X190015714Y-138541904D01*
X190015714Y-138303809D01*
X189968095Y-138208571D01*
X189920476Y-138160952D01*
X189825238Y-138113333D01*
X189634761Y-138113333D01*
X189539523Y-138160952D01*
X189491904Y-138208571D01*
X189444285Y-138303809D01*
%TO.C,D59*%
X132135714Y-138732380D02*
X132135714Y-137732380D01*
X132373809Y-137732380D01*
X132516666Y-137780000D01*
X132611904Y-137875238D01*
X132659523Y-137970476D01*
X132707142Y-138160952D01*
X132707142Y-138303809D01*
X132659523Y-138494285D01*
X132611904Y-138589523D01*
X132516666Y-138684761D01*
X132373809Y-138732380D01*
X132135714Y-138732380D01*
X133611904Y-137732380D02*
X133135714Y-137732380D01*
X133088095Y-138208571D01*
X133135714Y-138160952D01*
X133230952Y-138113333D01*
X133469047Y-138113333D01*
X133564285Y-138160952D01*
X133611904Y-138208571D01*
X133659523Y-138303809D01*
X133659523Y-138541904D01*
X133611904Y-138637142D01*
X133564285Y-138684761D01*
X133469047Y-138732380D01*
X133230952Y-138732380D01*
X133135714Y-138684761D01*
X133088095Y-138637142D01*
X134135714Y-138732380D02*
X134326190Y-138732380D01*
X134421428Y-138684761D01*
X134469047Y-138637142D01*
X134564285Y-138494285D01*
X134611904Y-138303809D01*
X134611904Y-137922857D01*
X134564285Y-137827619D01*
X134516666Y-137780000D01*
X134421428Y-137732380D01*
X134230952Y-137732380D01*
X134135714Y-137780000D01*
X134088095Y-137827619D01*
X134040476Y-137922857D01*
X134040476Y-138160952D01*
X134088095Y-138256190D01*
X134135714Y-138303809D01*
X134230952Y-138351428D01*
X134421428Y-138351428D01*
X134516666Y-138303809D01*
X134564285Y-138256190D01*
X134611904Y-138160952D01*
%TO.C,C4*%
X204179313Y-62717122D02*
X204131694Y-62764741D01*
X203988837Y-62812360D01*
X203893599Y-62812360D01*
X203750741Y-62764741D01*
X203655503Y-62669503D01*
X203607884Y-62574265D01*
X203560265Y-62383789D01*
X203560265Y-62240932D01*
X203607884Y-62050456D01*
X203655503Y-61955218D01*
X203750741Y-61859980D01*
X203893599Y-61812360D01*
X203988837Y-61812360D01*
X204131694Y-61859980D01*
X204179313Y-61907599D01*
X205036456Y-62145694D02*
X205036456Y-62812360D01*
X204798360Y-61764741D02*
X204560265Y-62479027D01*
X205179313Y-62479027D01*
%TO.C,D26*%
X142295714Y-59992380D02*
X142295714Y-58992380D01*
X142533809Y-58992380D01*
X142676666Y-59040000D01*
X142771904Y-59135238D01*
X142819523Y-59230476D01*
X142867142Y-59420952D01*
X142867142Y-59563809D01*
X142819523Y-59754285D01*
X142771904Y-59849523D01*
X142676666Y-59944761D01*
X142533809Y-59992380D01*
X142295714Y-59992380D01*
X143248095Y-59087619D02*
X143295714Y-59040000D01*
X143390952Y-58992380D01*
X143629047Y-58992380D01*
X143724285Y-59040000D01*
X143771904Y-59087619D01*
X143819523Y-59182857D01*
X143819523Y-59278095D01*
X143771904Y-59420952D01*
X143200476Y-59992380D01*
X143819523Y-59992380D01*
X144676666Y-58992380D02*
X144486190Y-58992380D01*
X144390952Y-59040000D01*
X144343333Y-59087619D01*
X144248095Y-59230476D01*
X144200476Y-59420952D01*
X144200476Y-59801904D01*
X144248095Y-59897142D01*
X144295714Y-59944761D01*
X144390952Y-59992380D01*
X144581428Y-59992380D01*
X144676666Y-59944761D01*
X144724285Y-59897142D01*
X144771904Y-59801904D01*
X144771904Y-59563809D01*
X144724285Y-59468571D01*
X144676666Y-59420952D01*
X144581428Y-59373333D01*
X144390952Y-59373333D01*
X144295714Y-59420952D01*
X144248095Y-59468571D01*
X144200476Y-59563809D01*
%TO.C,U2*%
X171958095Y-82202380D02*
X171958095Y-83011904D01*
X172005714Y-83107142D01*
X172053333Y-83154761D01*
X172148571Y-83202380D01*
X172339047Y-83202380D01*
X172434285Y-83154761D01*
X172481904Y-83107142D01*
X172529523Y-83011904D01*
X172529523Y-82202380D01*
X172958095Y-82297619D02*
X173005714Y-82250000D01*
X173100952Y-82202380D01*
X173339047Y-82202380D01*
X173434285Y-82250000D01*
X173481904Y-82297619D01*
X173529523Y-82392857D01*
X173529523Y-82488095D01*
X173481904Y-82630952D01*
X172910476Y-83202380D01*
X173529523Y-83202380D01*
%TO.C,D62*%
X160095725Y-112062380D02*
X160095725Y-111062380D01*
X160333820Y-111062380D01*
X160476677Y-111110000D01*
X160571915Y-111205238D01*
X160619534Y-111300476D01*
X160667153Y-111490952D01*
X160667153Y-111633809D01*
X160619534Y-111824285D01*
X160571915Y-111919523D01*
X160476677Y-112014761D01*
X160333820Y-112062380D01*
X160095725Y-112062380D01*
X161524296Y-111062380D02*
X161333820Y-111062380D01*
X161238582Y-111110000D01*
X161190963Y-111157619D01*
X161095725Y-111300476D01*
X161048106Y-111490952D01*
X161048106Y-111871904D01*
X161095725Y-111967142D01*
X161143344Y-112014761D01*
X161238582Y-112062380D01*
X161429058Y-112062380D01*
X161524296Y-112014761D01*
X161571915Y-111967142D01*
X161619534Y-111871904D01*
X161619534Y-111633809D01*
X161571915Y-111538571D01*
X161524296Y-111490952D01*
X161429058Y-111443333D01*
X161238582Y-111443333D01*
X161143344Y-111490952D01*
X161095725Y-111538571D01*
X161048106Y-111633809D01*
X162000487Y-111157619D02*
X162048106Y-111110000D01*
X162143344Y-111062380D01*
X162381439Y-111062380D01*
X162476677Y-111110000D01*
X162524296Y-111157619D01*
X162571915Y-111252857D01*
X162571915Y-111348095D01*
X162524296Y-111490952D01*
X161952868Y-112062380D01*
X162571915Y-112062380D01*
%TO.C,D34*%
X170235714Y-51102380D02*
X170235714Y-50102380D01*
X170473809Y-50102380D01*
X170616666Y-50150000D01*
X170711904Y-50245238D01*
X170759523Y-50340476D01*
X170807142Y-50530952D01*
X170807142Y-50673809D01*
X170759523Y-50864285D01*
X170711904Y-50959523D01*
X170616666Y-51054761D01*
X170473809Y-51102380D01*
X170235714Y-51102380D01*
X171140476Y-50102380D02*
X171759523Y-50102380D01*
X171426190Y-50483333D01*
X171569047Y-50483333D01*
X171664285Y-50530952D01*
X171711904Y-50578571D01*
X171759523Y-50673809D01*
X171759523Y-50911904D01*
X171711904Y-51007142D01*
X171664285Y-51054761D01*
X171569047Y-51102380D01*
X171283333Y-51102380D01*
X171188095Y-51054761D01*
X171140476Y-51007142D01*
X172616666Y-50435714D02*
X172616666Y-51102380D01*
X172378571Y-50054761D02*
X172140476Y-50769047D01*
X172759523Y-50769047D01*
%TO.C,D17*%
X123245714Y-33322380D02*
X123245714Y-32322380D01*
X123483809Y-32322380D01*
X123626666Y-32370000D01*
X123721904Y-32465238D01*
X123769523Y-32560476D01*
X123817142Y-32750952D01*
X123817142Y-32893809D01*
X123769523Y-33084285D01*
X123721904Y-33179523D01*
X123626666Y-33274761D01*
X123483809Y-33322380D01*
X123245714Y-33322380D01*
X124769523Y-33322380D02*
X124198095Y-33322380D01*
X124483809Y-33322380D02*
X124483809Y-32322380D01*
X124388571Y-32465238D01*
X124293333Y-32560476D01*
X124198095Y-32608095D01*
X125102857Y-32322380D02*
X125769523Y-32322380D01*
X125340952Y-33322380D01*
%TO.C,R12*%
X193312380Y-92082857D02*
X192836190Y-92416190D01*
X193312380Y-92654285D02*
X192312380Y-92654285D01*
X192312380Y-92273333D01*
X192360000Y-92178095D01*
X192407619Y-92130476D01*
X192502857Y-92082857D01*
X192645714Y-92082857D01*
X192740952Y-92130476D01*
X192788571Y-92178095D01*
X192836190Y-92273333D01*
X192836190Y-92654285D01*
X193312380Y-91130476D02*
X193312380Y-91701904D01*
X193312380Y-91416190D02*
X192312380Y-91416190D01*
X192455238Y-91511428D01*
X192550476Y-91606666D01*
X192598095Y-91701904D01*
X192407619Y-90749523D02*
X192360000Y-90701904D01*
X192312380Y-90606666D01*
X192312380Y-90368571D01*
X192360000Y-90273333D01*
X192407619Y-90225714D01*
X192502857Y-90178095D01*
X192598095Y-90178095D01*
X192740952Y-90225714D01*
X193312380Y-90797142D01*
X193312380Y-90178095D01*
%TO.C,R7*%
X100163333Y-126182380D02*
X99830000Y-125706190D01*
X99591904Y-126182380D02*
X99591904Y-125182380D01*
X99972857Y-125182380D01*
X100068095Y-125230000D01*
X100115714Y-125277619D01*
X100163333Y-125372857D01*
X100163333Y-125515714D01*
X100115714Y-125610952D01*
X100068095Y-125658571D01*
X99972857Y-125706190D01*
X99591904Y-125706190D01*
X100496666Y-125182380D02*
X101163333Y-125182380D01*
X100734761Y-126182380D01*
%TO.C,Q3*%
X193837619Y-66135238D02*
X193790000Y-66230476D01*
X193694761Y-66325714D01*
X193551904Y-66468571D01*
X193504285Y-66563809D01*
X193504285Y-66659047D01*
X193742380Y-66611428D02*
X193694761Y-66706666D01*
X193599523Y-66801904D01*
X193409047Y-66849523D01*
X193075714Y-66849523D01*
X192885238Y-66801904D01*
X192790000Y-66706666D01*
X192742380Y-66611428D01*
X192742380Y-66420952D01*
X192790000Y-66325714D01*
X192885238Y-66230476D01*
X193075714Y-66182857D01*
X193409047Y-66182857D01*
X193599523Y-66230476D01*
X193694761Y-66325714D01*
X193742380Y-66420952D01*
X193742380Y-66611428D01*
X192742380Y-65849523D02*
X192742380Y-65230476D01*
X193123333Y-65563809D01*
X193123333Y-65420952D01*
X193170952Y-65325714D01*
X193218571Y-65278095D01*
X193313809Y-65230476D01*
X193551904Y-65230476D01*
X193647142Y-65278095D01*
X193694761Y-65325714D01*
X193742380Y-65420952D01*
X193742380Y-65706666D01*
X193694761Y-65801904D01*
X193647142Y-65849523D01*
%TO.C,D45*%
X114355714Y-129842380D02*
X114355714Y-128842380D01*
X114593809Y-128842380D01*
X114736666Y-128890000D01*
X114831904Y-128985238D01*
X114879523Y-129080476D01*
X114927142Y-129270952D01*
X114927142Y-129413809D01*
X114879523Y-129604285D01*
X114831904Y-129699523D01*
X114736666Y-129794761D01*
X114593809Y-129842380D01*
X114355714Y-129842380D01*
X115784285Y-129175714D02*
X115784285Y-129842380D01*
X115546190Y-128794761D02*
X115308095Y-129509047D01*
X115927142Y-129509047D01*
X116784285Y-128842380D02*
X116308095Y-128842380D01*
X116260476Y-129318571D01*
X116308095Y-129270952D01*
X116403333Y-129223333D01*
X116641428Y-129223333D01*
X116736666Y-129270952D01*
X116784285Y-129318571D01*
X116831904Y-129413809D01*
X116831904Y-129651904D01*
X116784285Y-129747142D01*
X116736666Y-129794761D01*
X116641428Y-129842380D01*
X116403333Y-129842380D01*
X116308095Y-129794761D01*
X116260476Y-129747142D01*
%TO.C,R5*%
X100163333Y-65222380D02*
X99830000Y-64746190D01*
X99591904Y-65222380D02*
X99591904Y-64222380D01*
X99972857Y-64222380D01*
X100068095Y-64270000D01*
X100115714Y-64317619D01*
X100163333Y-64412857D01*
X100163333Y-64555714D01*
X100115714Y-64650952D01*
X100068095Y-64698571D01*
X99972857Y-64746190D01*
X99591904Y-64746190D01*
X101068095Y-64222380D02*
X100591904Y-64222380D01*
X100544285Y-64698571D01*
X100591904Y-64650952D01*
X100687142Y-64603333D01*
X100925238Y-64603333D01*
X101020476Y-64650952D01*
X101068095Y-64698571D01*
X101115714Y-64793809D01*
X101115714Y-65031904D01*
X101068095Y-65127142D01*
X101020476Y-65174761D01*
X100925238Y-65222380D01*
X100687142Y-65222380D01*
X100591904Y-65174761D01*
X100544285Y-65127142D01*
%TO.C,R14*%
X203832380Y-112402857D02*
X203356190Y-112736190D01*
X203832380Y-112974285D02*
X202832380Y-112974285D01*
X202832380Y-112593333D01*
X202880000Y-112498095D01*
X202927619Y-112450476D01*
X203022857Y-112402857D01*
X203165714Y-112402857D01*
X203260952Y-112450476D01*
X203308571Y-112498095D01*
X203356190Y-112593333D01*
X203356190Y-112974285D01*
X203832380Y-111450476D02*
X203832380Y-112021904D01*
X203832380Y-111736190D02*
X202832380Y-111736190D01*
X202975238Y-111831428D01*
X203070476Y-111926666D01*
X203118095Y-112021904D01*
X203165714Y-110593333D02*
X203832380Y-110593333D01*
X202784761Y-110831428D02*
X203499047Y-111069523D01*
X203499047Y-110450476D01*
%TO.C,R9*%
X208912380Y-111926666D02*
X208436190Y-112260000D01*
X208912380Y-112498095D02*
X207912380Y-112498095D01*
X207912380Y-112117142D01*
X207960000Y-112021904D01*
X208007619Y-111974285D01*
X208102857Y-111926666D01*
X208245714Y-111926666D01*
X208340952Y-111974285D01*
X208388571Y-112021904D01*
X208436190Y-112117142D01*
X208436190Y-112498095D01*
X208912380Y-111450476D02*
X208912380Y-111260000D01*
X208864761Y-111164761D01*
X208817142Y-111117142D01*
X208674285Y-111021904D01*
X208483809Y-110974285D01*
X208102857Y-110974285D01*
X208007619Y-111021904D01*
X207960000Y-111069523D01*
X207912380Y-111164761D01*
X207912380Y-111355238D01*
X207960000Y-111450476D01*
X208007619Y-111498095D01*
X208102857Y-111545714D01*
X208340952Y-111545714D01*
X208436190Y-111498095D01*
X208483809Y-111450476D01*
X208531428Y-111355238D01*
X208531428Y-111164761D01*
X208483809Y-111069523D01*
X208436190Y-111021904D01*
X208340952Y-110974285D01*
%TO.C,D2*%
X170711904Y-120952380D02*
X170711904Y-119952380D01*
X170950000Y-119952380D01*
X171092857Y-120000000D01*
X171188095Y-120095238D01*
X171235714Y-120190476D01*
X171283333Y-120380952D01*
X171283333Y-120523809D01*
X171235714Y-120714285D01*
X171188095Y-120809523D01*
X171092857Y-120904761D01*
X170950000Y-120952380D01*
X170711904Y-120952380D01*
X171664285Y-120047619D02*
X171711904Y-120000000D01*
X171807142Y-119952380D01*
X172045238Y-119952380D01*
X172140476Y-120000000D01*
X172188095Y-120047619D01*
X172235714Y-120142857D01*
X172235714Y-120238095D01*
X172188095Y-120380952D01*
X171616666Y-120952380D01*
X172235714Y-120952380D01*
%TO.C,D27*%
X142295714Y-68882380D02*
X142295714Y-67882380D01*
X142533809Y-67882380D01*
X142676666Y-67930000D01*
X142771904Y-68025238D01*
X142819523Y-68120476D01*
X142867142Y-68310952D01*
X142867142Y-68453809D01*
X142819523Y-68644285D01*
X142771904Y-68739523D01*
X142676666Y-68834761D01*
X142533809Y-68882380D01*
X142295714Y-68882380D01*
X143248095Y-67977619D02*
X143295714Y-67930000D01*
X143390952Y-67882380D01*
X143629047Y-67882380D01*
X143724285Y-67930000D01*
X143771904Y-67977619D01*
X143819523Y-68072857D01*
X143819523Y-68168095D01*
X143771904Y-68310952D01*
X143200476Y-68882380D01*
X143819523Y-68882380D01*
X144152857Y-67882380D02*
X144819523Y-67882380D01*
X144390952Y-68882380D01*
%TO.C,R11*%
X203652380Y-92082857D02*
X203176190Y-92416190D01*
X203652380Y-92654285D02*
X202652380Y-92654285D01*
X202652380Y-92273333D01*
X202700000Y-92178095D01*
X202747619Y-92130476D01*
X202842857Y-92082857D01*
X202985714Y-92082857D01*
X203080952Y-92130476D01*
X203128571Y-92178095D01*
X203176190Y-92273333D01*
X203176190Y-92654285D01*
X203652380Y-91130476D02*
X203652380Y-91701904D01*
X203652380Y-91416190D02*
X202652380Y-91416190D01*
X202795238Y-91511428D01*
X202890476Y-91606666D01*
X202938095Y-91701904D01*
X203652380Y-90178095D02*
X203652380Y-90749523D01*
X203652380Y-90463809D02*
X202652380Y-90463809D01*
X202795238Y-90559047D01*
X202890476Y-90654285D01*
X202938095Y-90749523D01*
%TO.C,R8*%
X100163333Y-121102380D02*
X99830000Y-120626190D01*
X99591904Y-121102380D02*
X99591904Y-120102380D01*
X99972857Y-120102380D01*
X100068095Y-120150000D01*
X100115714Y-120197619D01*
X100163333Y-120292857D01*
X100163333Y-120435714D01*
X100115714Y-120530952D01*
X100068095Y-120578571D01*
X99972857Y-120626190D01*
X99591904Y-120626190D01*
X100734761Y-120530952D02*
X100639523Y-120483333D01*
X100591904Y-120435714D01*
X100544285Y-120340476D01*
X100544285Y-120292857D01*
X100591904Y-120197619D01*
X100639523Y-120150000D01*
X100734761Y-120102380D01*
X100925238Y-120102380D01*
X101020476Y-120150000D01*
X101068095Y-120197619D01*
X101115714Y-120292857D01*
X101115714Y-120340476D01*
X101068095Y-120435714D01*
X101020476Y-120483333D01*
X100925238Y-120530952D01*
X100734761Y-120530952D01*
X100639523Y-120578571D01*
X100591904Y-120626190D01*
X100544285Y-120721428D01*
X100544285Y-120911904D01*
X100591904Y-121007142D01*
X100639523Y-121054761D01*
X100734761Y-121102380D01*
X100925238Y-121102380D01*
X101020476Y-121054761D01*
X101068095Y-121007142D01*
X101115714Y-120911904D01*
X101115714Y-120721428D01*
X101068095Y-120626190D01*
X101020476Y-120578571D01*
X100925238Y-120530952D01*
%TO.C,D39*%
X179125714Y-51102380D02*
X179125714Y-50102380D01*
X179363809Y-50102380D01*
X179506666Y-50150000D01*
X179601904Y-50245238D01*
X179649523Y-50340476D01*
X179697142Y-50530952D01*
X179697142Y-50673809D01*
X179649523Y-50864285D01*
X179601904Y-50959523D01*
X179506666Y-51054761D01*
X179363809Y-51102380D01*
X179125714Y-51102380D01*
X180030476Y-50102380D02*
X180649523Y-50102380D01*
X180316190Y-50483333D01*
X180459047Y-50483333D01*
X180554285Y-50530952D01*
X180601904Y-50578571D01*
X180649523Y-50673809D01*
X180649523Y-50911904D01*
X180601904Y-51007142D01*
X180554285Y-51054761D01*
X180459047Y-51102380D01*
X180173333Y-51102380D01*
X180078095Y-51054761D01*
X180030476Y-51007142D01*
X181125714Y-51102380D02*
X181316190Y-51102380D01*
X181411428Y-51054761D01*
X181459047Y-51007142D01*
X181554285Y-50864285D01*
X181601904Y-50673809D01*
X181601904Y-50292857D01*
X181554285Y-50197619D01*
X181506666Y-50150000D01*
X181411428Y-50102380D01*
X181220952Y-50102380D01*
X181125714Y-50150000D01*
X181078095Y-50197619D01*
X181030476Y-50292857D01*
X181030476Y-50530952D01*
X181078095Y-50626190D01*
X181125714Y-50673809D01*
X181220952Y-50721428D01*
X181411428Y-50721428D01*
X181506666Y-50673809D01*
X181554285Y-50626190D01*
X181601904Y-50530952D01*
%TO.C,D49*%
X114355714Y-147622380D02*
X114355714Y-146622380D01*
X114593809Y-146622380D01*
X114736666Y-146670000D01*
X114831904Y-146765238D01*
X114879523Y-146860476D01*
X114927142Y-147050952D01*
X114927142Y-147193809D01*
X114879523Y-147384285D01*
X114831904Y-147479523D01*
X114736666Y-147574761D01*
X114593809Y-147622380D01*
X114355714Y-147622380D01*
X115784285Y-146955714D02*
X115784285Y-147622380D01*
X115546190Y-146574761D02*
X115308095Y-147289047D01*
X115927142Y-147289047D01*
X116355714Y-147622380D02*
X116546190Y-147622380D01*
X116641428Y-147574761D01*
X116689047Y-147527142D01*
X116784285Y-147384285D01*
X116831904Y-147193809D01*
X116831904Y-146812857D01*
X116784285Y-146717619D01*
X116736666Y-146670000D01*
X116641428Y-146622380D01*
X116450952Y-146622380D01*
X116355714Y-146670000D01*
X116308095Y-146717619D01*
X116260476Y-146812857D01*
X116260476Y-147050952D01*
X116308095Y-147146190D01*
X116355714Y-147193809D01*
X116450952Y-147241428D01*
X116641428Y-147241428D01*
X116736666Y-147193809D01*
X116784285Y-147146190D01*
X116831904Y-147050952D01*
%TO.C,REF\u002A\u002A*%
X138366666Y-173282380D02*
X138033333Y-172806190D01*
X137795238Y-173282380D02*
X137795238Y-172282380D01*
X138176190Y-172282380D01*
X138271428Y-172330000D01*
X138319047Y-172377619D01*
X138366666Y-172472857D01*
X138366666Y-172615714D01*
X138319047Y-172710952D01*
X138271428Y-172758571D01*
X138176190Y-172806190D01*
X137795238Y-172806190D01*
X138795238Y-172758571D02*
X139128571Y-172758571D01*
X139271428Y-173282380D02*
X138795238Y-173282380D01*
X138795238Y-172282380D01*
X139271428Y-172282380D01*
X140033333Y-172758571D02*
X139700000Y-172758571D01*
X139700000Y-173282380D02*
X139700000Y-172282380D01*
X140176190Y-172282380D01*
X140700000Y-172282380D02*
X140700000Y-172520476D01*
X140461904Y-172425238D02*
X140700000Y-172520476D01*
X140938095Y-172425238D01*
X140557142Y-172710952D02*
X140700000Y-172520476D01*
X140842857Y-172710952D01*
X141461904Y-172282380D02*
X141461904Y-172520476D01*
X141223809Y-172425238D02*
X141461904Y-172520476D01*
X141700000Y-172425238D01*
X141319047Y-172710952D02*
X141461904Y-172520476D01*
X141604761Y-172710952D01*
%TO.C,D48*%
X142315725Y-120952380D02*
X142315725Y-119952380D01*
X142553820Y-119952380D01*
X142696677Y-120000000D01*
X142791915Y-120095238D01*
X142839534Y-120190476D01*
X142887153Y-120380952D01*
X142887153Y-120523809D01*
X142839534Y-120714285D01*
X142791915Y-120809523D01*
X142696677Y-120904761D01*
X142553820Y-120952380D01*
X142315725Y-120952380D01*
X143744296Y-120285714D02*
X143744296Y-120952380D01*
X143506201Y-119904761D02*
X143268106Y-120619047D01*
X143887153Y-120619047D01*
X144410963Y-120380952D02*
X144315725Y-120333333D01*
X144268106Y-120285714D01*
X144220487Y-120190476D01*
X144220487Y-120142857D01*
X144268106Y-120047619D01*
X144315725Y-120000000D01*
X144410963Y-119952380D01*
X144601439Y-119952380D01*
X144696677Y-120000000D01*
X144744296Y-120047619D01*
X144791915Y-120142857D01*
X144791915Y-120190476D01*
X144744296Y-120285714D01*
X144696677Y-120333333D01*
X144601439Y-120380952D01*
X144410963Y-120380952D01*
X144315725Y-120428571D01*
X144268106Y-120476190D01*
X144220487Y-120571428D01*
X144220487Y-120761904D01*
X144268106Y-120857142D01*
X144315725Y-120904761D01*
X144410963Y-120952380D01*
X144601439Y-120952380D01*
X144696677Y-120904761D01*
X144744296Y-120857142D01*
X144791915Y-120761904D01*
X144791915Y-120571428D01*
X144744296Y-120476190D01*
X144696677Y-120428571D01*
X144601439Y-120380952D01*
%TO.C,D57*%
X132135714Y-129842380D02*
X132135714Y-128842380D01*
X132373809Y-128842380D01*
X132516666Y-128890000D01*
X132611904Y-128985238D01*
X132659523Y-129080476D01*
X132707142Y-129270952D01*
X132707142Y-129413809D01*
X132659523Y-129604285D01*
X132611904Y-129699523D01*
X132516666Y-129794761D01*
X132373809Y-129842380D01*
X132135714Y-129842380D01*
X133611904Y-128842380D02*
X133135714Y-128842380D01*
X133088095Y-129318571D01*
X133135714Y-129270952D01*
X133230952Y-129223333D01*
X133469047Y-129223333D01*
X133564285Y-129270952D01*
X133611904Y-129318571D01*
X133659523Y-129413809D01*
X133659523Y-129651904D01*
X133611904Y-129747142D01*
X133564285Y-129794761D01*
X133469047Y-129842380D01*
X133230952Y-129842380D01*
X133135714Y-129794761D01*
X133088095Y-129747142D01*
X133992857Y-128842380D02*
X134659523Y-128842380D01*
X134230952Y-129842380D01*
%TO.C,Q6*%
X193837619Y-129635238D02*
X193790000Y-129730476D01*
X193694761Y-129825714D01*
X193551904Y-129968571D01*
X193504285Y-130063809D01*
X193504285Y-130159047D01*
X193742380Y-130111428D02*
X193694761Y-130206666D01*
X193599523Y-130301904D01*
X193409047Y-130349523D01*
X193075714Y-130349523D01*
X192885238Y-130301904D01*
X192790000Y-130206666D01*
X192742380Y-130111428D01*
X192742380Y-129920952D01*
X192790000Y-129825714D01*
X192885238Y-129730476D01*
X193075714Y-129682857D01*
X193409047Y-129682857D01*
X193599523Y-129730476D01*
X193694761Y-129825714D01*
X193742380Y-129920952D01*
X193742380Y-130111428D01*
X192742380Y-128825714D02*
X192742380Y-129016190D01*
X192790000Y-129111428D01*
X192837619Y-129159047D01*
X192980476Y-129254285D01*
X193170952Y-129301904D01*
X193551904Y-129301904D01*
X193647142Y-129254285D01*
X193694761Y-129206666D01*
X193742380Y-129111428D01*
X193742380Y-128920952D01*
X193694761Y-128825714D01*
X193647142Y-128778095D01*
X193551904Y-128730476D01*
X193313809Y-128730476D01*
X193218571Y-128778095D01*
X193170952Y-128825714D01*
X193123333Y-128920952D01*
X193123333Y-129111428D01*
X193170952Y-129206666D01*
X193218571Y-129254285D01*
X193313809Y-129301904D01*
%TO.C,D9*%
X114831904Y-59992380D02*
X114831904Y-58992380D01*
X115070000Y-58992380D01*
X115212857Y-59040000D01*
X115308095Y-59135238D01*
X115355714Y-59230476D01*
X115403333Y-59420952D01*
X115403333Y-59563809D01*
X115355714Y-59754285D01*
X115308095Y-59849523D01*
X115212857Y-59944761D01*
X115070000Y-59992380D01*
X114831904Y-59992380D01*
X115879523Y-59992380D02*
X116070000Y-59992380D01*
X116165238Y-59944761D01*
X116212857Y-59897142D01*
X116308095Y-59754285D01*
X116355714Y-59563809D01*
X116355714Y-59182857D01*
X116308095Y-59087619D01*
X116260476Y-59040000D01*
X116165238Y-58992380D01*
X115974761Y-58992380D01*
X115879523Y-59040000D01*
X115831904Y-59087619D01*
X115784285Y-59182857D01*
X115784285Y-59420952D01*
X115831904Y-59516190D01*
X115879523Y-59563809D01*
X115974761Y-59611428D01*
X116165238Y-59611428D01*
X116260476Y-59563809D01*
X116308095Y-59516190D01*
X116355714Y-59420952D01*
%TO.C,D55*%
X132135714Y-120952380D02*
X132135714Y-119952380D01*
X132373809Y-119952380D01*
X132516666Y-120000000D01*
X132611904Y-120095238D01*
X132659523Y-120190476D01*
X132707142Y-120380952D01*
X132707142Y-120523809D01*
X132659523Y-120714285D01*
X132611904Y-120809523D01*
X132516666Y-120904761D01*
X132373809Y-120952380D01*
X132135714Y-120952380D01*
X133611904Y-119952380D02*
X133135714Y-119952380D01*
X133088095Y-120428571D01*
X133135714Y-120380952D01*
X133230952Y-120333333D01*
X133469047Y-120333333D01*
X133564285Y-120380952D01*
X133611904Y-120428571D01*
X133659523Y-120523809D01*
X133659523Y-120761904D01*
X133611904Y-120857142D01*
X133564285Y-120904761D01*
X133469047Y-120952380D01*
X133230952Y-120952380D01*
X133135714Y-120904761D01*
X133088095Y-120857142D01*
X134564285Y-119952380D02*
X134088095Y-119952380D01*
X134040476Y-120428571D01*
X134088095Y-120380952D01*
X134183333Y-120333333D01*
X134421428Y-120333333D01*
X134516666Y-120380952D01*
X134564285Y-120428571D01*
X134611904Y-120523809D01*
X134611904Y-120761904D01*
X134564285Y-120857142D01*
X134516666Y-120904761D01*
X134421428Y-120952380D01*
X134183333Y-120952380D01*
X134088095Y-120904761D01*
X134040476Y-120857142D01*
D11*
%TO.C,U3*%
X182780000Y-83750000D02*
X182780000Y-101650000D01*
X188080000Y-83750000D02*
X186430000Y-83750000D01*
X182780000Y-101650000D02*
X188080000Y-101650000D01*
X188080000Y-101650000D02*
X188080000Y-83750000D01*
X184430000Y-83750000D02*
X182780000Y-83750000D01*
X184430000Y-83750000D02*
G75*
G03*
X186430000Y-83750000I1000000J0D01*
G01*
%TO.C,D30*%
X149840000Y-70845000D02*
X149840000Y-73935000D01*
X155390000Y-72390462D02*
G75*
G03*
X149840000Y-70845170I-2990000J462D01*
G01*
X149840000Y-73934830D02*
G75*
G03*
X155390000Y-72389538I2560000J1544830D01*
G01*
X154900000Y-72390000D02*
G75*
G03*
X154900000Y-72390000I-2500000J0D01*
G01*
%TO.C,D4*%
X168890000Y-131805000D02*
X168890000Y-134895000D01*
X168890000Y-134894830D02*
G75*
G03*
X174440000Y-133349538I2560000J1544830D01*
G01*
X174440000Y-133350462D02*
G75*
G03*
X168890000Y-131805170I-2990000J462D01*
G01*
X173950000Y-133350000D02*
G75*
G03*
X173950000Y-133350000I-2500000J0D01*
G01*
%TO.C,D32*%
X168890000Y-35285000D02*
X168890000Y-38375000D01*
X174440000Y-36830462D02*
G75*
G03*
X168890000Y-35285170I-2990000J462D01*
G01*
X168890000Y-38374830D02*
G75*
G03*
X174440000Y-36829538I2560000J1544830D01*
G01*
X173950000Y-36830000D02*
G75*
G03*
X173950000Y-36830000I-2500000J0D01*
G01*
%TO.C,C7*%
X203630000Y-131071000D02*
X203390000Y-131071000D01*
X203630000Y-130071000D02*
X202546000Y-130071000D01*
X205550000Y-131071000D02*
X205310000Y-131071000D01*
X206410000Y-130031000D02*
X205310000Y-130031000D01*
X203630000Y-130151000D02*
X202581000Y-130151000D01*
X205612000Y-131031000D02*
X205310000Y-131031000D01*
X203630000Y-129870000D02*
X202476000Y-129870000D01*
X206340000Y-130191000D02*
X205310000Y-130191000D01*
X203630000Y-129710000D02*
X202436000Y-129710000D01*
X203630000Y-130391000D02*
X202710000Y-130391000D01*
X203630000Y-130791000D02*
X203032000Y-130791000D01*
X203630000Y-129470000D02*
X202399000Y-129470000D01*
X203630000Y-130351000D02*
X202685000Y-130351000D01*
X206359000Y-130151000D02*
X205310000Y-130151000D01*
X206150000Y-130511000D02*
X205310000Y-130511000D01*
X203630000Y-130231000D02*
X202619000Y-130231000D01*
X203630000Y-130431000D02*
X202735000Y-130431000D01*
X206547000Y-129390000D02*
X202393000Y-129390000D01*
X203630000Y-130311000D02*
X202662000Y-130311000D01*
X203630000Y-129590000D02*
X202414000Y-129590000D01*
X203630000Y-130751000D02*
X202992000Y-130751000D01*
X206438000Y-129950000D02*
X205310000Y-129950000D01*
X203630000Y-130511000D02*
X202790000Y-130511000D01*
X206300000Y-130271000D02*
X205310000Y-130271000D01*
X203630000Y-129991000D02*
X202516000Y-129991000D01*
X203630000Y-130111000D02*
X202563000Y-130111000D01*
X206022000Y-130671000D02*
X205310000Y-130671000D01*
X206377000Y-130111000D02*
X205310000Y-130111000D01*
X205908000Y-130791000D02*
X205310000Y-130791000D01*
X206089000Y-130591000D02*
X205310000Y-130591000D01*
X206550000Y-129310000D02*
X202390000Y-129310000D01*
X203630000Y-130991000D02*
X203270000Y-130991000D01*
X206549000Y-129350000D02*
X202391000Y-129350000D01*
X206120000Y-130551000D02*
X205310000Y-130551000D01*
X203630000Y-130711000D02*
X202954000Y-130711000D01*
X206321000Y-130231000D02*
X205310000Y-130231000D01*
X203630000Y-130911000D02*
X203166000Y-130911000D01*
X206537000Y-129510000D02*
X205310000Y-129510000D01*
X203630000Y-129910000D02*
X202488000Y-129910000D01*
X203630000Y-130031000D02*
X202530000Y-130031000D01*
X206452000Y-129910000D02*
X205310000Y-129910000D01*
X206230000Y-130391000D02*
X205310000Y-130391000D01*
X203630000Y-129630000D02*
X202420000Y-129630000D01*
X203630000Y-130591000D02*
X202851000Y-130591000D01*
X203630000Y-129790000D02*
X202454000Y-129790000D01*
X205865000Y-127200199D02*
X205465000Y-127200199D01*
X203630000Y-131031000D02*
X203328000Y-131031000D01*
X203630000Y-129830000D02*
X202465000Y-129830000D01*
X203630000Y-129550000D02*
X202408000Y-129550000D01*
X203630000Y-130551000D02*
X202820000Y-130551000D01*
X206486000Y-129790000D02*
X205310000Y-129790000D01*
X205410000Y-131151000D02*
X203530000Y-131151000D01*
X203630000Y-130831000D02*
X203074000Y-130831000D01*
X203630000Y-130191000D02*
X202600000Y-130191000D01*
X205329000Y-131191000D02*
X203611000Y-131191000D01*
X203630000Y-130271000D02*
X202640000Y-130271000D01*
X205238000Y-131231000D02*
X203702000Y-131231000D01*
X206475000Y-129830000D02*
X205310000Y-129830000D01*
X205724000Y-130951000D02*
X205310000Y-130951000D01*
X205134000Y-131271000D02*
X203806000Y-131271000D01*
X206057000Y-130631000D02*
X205310000Y-130631000D01*
X203630000Y-129510000D02*
X202403000Y-129510000D01*
X203630000Y-129950000D02*
X202502000Y-129950000D01*
X205007000Y-131311000D02*
X203933000Y-131311000D01*
X205986000Y-130711000D02*
X205310000Y-130711000D01*
X206532000Y-129550000D02*
X205310000Y-129550000D01*
X206495000Y-129750000D02*
X205310000Y-129750000D01*
X205665000Y-127000199D02*
X205665000Y-127400199D01*
X203630000Y-130671000D02*
X202918000Y-130671000D01*
X205483000Y-131111000D02*
X203457000Y-131111000D01*
X204840000Y-131351000D02*
X204100000Y-131351000D01*
X206424000Y-129991000D02*
X205310000Y-129991000D01*
X205821000Y-130871000D02*
X205310000Y-130871000D01*
X206550000Y-129270000D02*
X202390000Y-129270000D01*
X205670000Y-130991000D02*
X205310000Y-130991000D01*
X206512000Y-129670000D02*
X205310000Y-129670000D01*
X205774000Y-130911000D02*
X205310000Y-130911000D01*
X206544000Y-129430000D02*
X202396000Y-129430000D01*
X206394000Y-130071000D02*
X205310000Y-130071000D01*
X203630000Y-129670000D02*
X202428000Y-129670000D01*
X206541000Y-129470000D02*
X205310000Y-129470000D01*
X205866000Y-130831000D02*
X205310000Y-130831000D01*
X206178000Y-130471000D02*
X205310000Y-130471000D01*
X206464000Y-129870000D02*
X205310000Y-129870000D01*
X203630000Y-130951000D02*
X203216000Y-130951000D01*
X203630000Y-129750000D02*
X202445000Y-129750000D01*
X205948000Y-130751000D02*
X205310000Y-130751000D01*
X206205000Y-130431000D02*
X205310000Y-130431000D01*
X206520000Y-129630000D02*
X205310000Y-129630000D01*
X206278000Y-130311000D02*
X205310000Y-130311000D01*
X203630000Y-130631000D02*
X202883000Y-130631000D01*
X203630000Y-130471000D02*
X202762000Y-130471000D01*
X203630000Y-130871000D02*
X203119000Y-130871000D01*
X206255000Y-130351000D02*
X205310000Y-130351000D01*
X206526000Y-129590000D02*
X205310000Y-129590000D01*
X206504000Y-129710000D02*
X205310000Y-129710000D01*
X206590000Y-129270000D02*
G75*
G03*
X206590000Y-129270000I-2120000J0D01*
G01*
%TO.C,U1*%
X218560000Y-83770000D02*
X216910000Y-83770000D01*
X213260000Y-94050000D02*
X218560000Y-94050000D01*
X214910000Y-83770000D02*
X213260000Y-83770000D01*
X213260000Y-83770000D02*
X213260000Y-94050000D01*
X218560000Y-94050000D02*
X218560000Y-83770000D01*
X214910000Y-83770000D02*
G75*
G03*
X216910000Y-83770000I1000000J0D01*
G01*
%TO.C,D18*%
X186670000Y-122915000D02*
X186670000Y-126005000D01*
X192220000Y-124460462D02*
G75*
G03*
X186670000Y-122915170I-2990000J462D01*
G01*
X186670000Y-126004830D02*
G75*
G03*
X192220000Y-124459538I2560000J1544830D01*
G01*
X191730000Y-124460000D02*
G75*
G03*
X191730000Y-124460000I-2500000J0D01*
G01*
%TO.C,D20*%
X186670000Y-114025000D02*
X186670000Y-117115000D01*
X186670000Y-117114830D02*
G75*
G03*
X192220000Y-115569538I2560000J1544830D01*
G01*
X192220000Y-115570462D02*
G75*
G03*
X186670000Y-114025170I-2990000J462D01*
G01*
X191730000Y-115570000D02*
G75*
G03*
X191730000Y-115570000I-2500000J0D01*
G01*
%TO.C,D14*%
X186670000Y-149585000D02*
X186670000Y-152675000D01*
X186670000Y-152674830D02*
G75*
G03*
X192220000Y-151129538I2560000J1544830D01*
G01*
X192220000Y-151130462D02*
G75*
G03*
X186670000Y-149585170I-2990000J462D01*
G01*
X191730000Y-151130000D02*
G75*
G03*
X191730000Y-151130000I-2500000J0D01*
G01*
%TO.C,D3*%
X113010000Y-35285000D02*
X113010000Y-38375000D01*
X113010000Y-38374830D02*
G75*
G03*
X118560000Y-36829538I2560000J1544830D01*
G01*
X118560000Y-36830462D02*
G75*
G03*
X113010000Y-35285170I-2990000J462D01*
G01*
X118070000Y-36830000D02*
G75*
G03*
X118070000Y-36830000I-2500000J0D01*
G01*
%TO.C,D47*%
X113010000Y-140695000D02*
X113010000Y-143785000D01*
X118560000Y-142240462D02*
G75*
G03*
X113010000Y-140695170I-2990000J462D01*
G01*
X113010000Y-143784830D02*
G75*
G03*
X118560000Y-142239538I2560000J1544830D01*
G01*
X118070000Y-142240000D02*
G75*
G03*
X118070000Y-142240000I-2500000J0D01*
G01*
%TO.C,D63*%
X121900000Y-149585000D02*
X121900000Y-152675000D01*
X121900000Y-152674830D02*
G75*
G03*
X127450000Y-151129538I2560000J1544830D01*
G01*
X127450000Y-151130462D02*
G75*
G03*
X121900000Y-149585170I-2990000J462D01*
G01*
X126960000Y-151130000D02*
G75*
G03*
X126960000Y-151130000I-2500000J0D01*
G01*
%TO.C,C3*%
X203630000Y-73721000D02*
X203119000Y-73721000D01*
X203630000Y-72800000D02*
X202502000Y-72800000D01*
X203630000Y-72320000D02*
X202399000Y-72320000D01*
X206532000Y-72400000D02*
X205310000Y-72400000D01*
X205550000Y-73921000D02*
X205310000Y-73921000D01*
X204840000Y-74201000D02*
X204100000Y-74201000D01*
X206230000Y-73241000D02*
X205310000Y-73241000D01*
X203630000Y-72961000D02*
X202563000Y-72961000D01*
X206550000Y-72120000D02*
X202390000Y-72120000D01*
X206300000Y-73121000D02*
X205310000Y-73121000D01*
X206089000Y-73441000D02*
X205310000Y-73441000D01*
X203630000Y-73361000D02*
X202790000Y-73361000D01*
X203630000Y-73881000D02*
X203328000Y-73881000D01*
X203630000Y-73841000D02*
X203270000Y-73841000D01*
X203630000Y-73921000D02*
X203390000Y-73921000D01*
X203630000Y-73241000D02*
X202710000Y-73241000D01*
X205410000Y-74001000D02*
X203530000Y-74001000D01*
X206520000Y-72480000D02*
X205310000Y-72480000D01*
X203630000Y-72841000D02*
X202516000Y-72841000D01*
X203630000Y-73521000D02*
X202918000Y-73521000D01*
X203630000Y-73321000D02*
X202762000Y-73321000D01*
X205948000Y-73601000D02*
X205310000Y-73601000D01*
X206544000Y-72280000D02*
X202396000Y-72280000D01*
X205329000Y-74041000D02*
X203611000Y-74041000D01*
X205007000Y-74161000D02*
X203933000Y-74161000D01*
X206321000Y-73081000D02*
X205310000Y-73081000D01*
X206495000Y-72600000D02*
X205310000Y-72600000D01*
X206537000Y-72360000D02*
X205310000Y-72360000D01*
X205774000Y-73761000D02*
X205310000Y-73761000D01*
X203630000Y-73121000D02*
X202640000Y-73121000D01*
X206205000Y-73281000D02*
X205310000Y-73281000D01*
X203630000Y-73561000D02*
X202954000Y-73561000D01*
X203630000Y-73201000D02*
X202685000Y-73201000D01*
X203630000Y-72640000D02*
X202454000Y-72640000D01*
X205483000Y-73961000D02*
X203457000Y-73961000D01*
X203630000Y-73601000D02*
X202992000Y-73601000D01*
X203630000Y-73001000D02*
X202581000Y-73001000D01*
X203630000Y-72600000D02*
X202445000Y-72600000D01*
X206452000Y-72760000D02*
X205310000Y-72760000D01*
X206057000Y-73481000D02*
X205310000Y-73481000D01*
X206022000Y-73521000D02*
X205310000Y-73521000D01*
X206550000Y-72160000D02*
X202390000Y-72160000D01*
X206464000Y-72720000D02*
X205310000Y-72720000D01*
X206394000Y-72921000D02*
X205310000Y-72921000D01*
X205134000Y-74121000D02*
X203806000Y-74121000D01*
X206150000Y-73361000D02*
X205310000Y-73361000D01*
X203630000Y-73641000D02*
X203032000Y-73641000D01*
X203630000Y-73161000D02*
X202662000Y-73161000D01*
X206340000Y-73041000D02*
X205310000Y-73041000D01*
X205612000Y-73881000D02*
X205310000Y-73881000D01*
X205238000Y-74081000D02*
X203702000Y-74081000D01*
X203630000Y-72520000D02*
X202428000Y-72520000D01*
X206377000Y-72961000D02*
X205310000Y-72961000D01*
X206504000Y-72560000D02*
X205310000Y-72560000D01*
X203630000Y-72680000D02*
X202465000Y-72680000D01*
X205670000Y-73841000D02*
X205310000Y-73841000D01*
X205986000Y-73561000D02*
X205310000Y-73561000D01*
X206512000Y-72520000D02*
X205310000Y-72520000D01*
X203630000Y-72440000D02*
X202414000Y-72440000D01*
X206120000Y-73401000D02*
X205310000Y-73401000D01*
X203630000Y-73441000D02*
X202851000Y-73441000D01*
X206178000Y-73321000D02*
X205310000Y-73321000D01*
X203630000Y-73801000D02*
X203216000Y-73801000D01*
X203630000Y-73761000D02*
X203166000Y-73761000D01*
X205908000Y-73641000D02*
X205310000Y-73641000D01*
X206410000Y-72881000D02*
X205310000Y-72881000D01*
X206278000Y-73161000D02*
X205310000Y-73161000D01*
X203630000Y-72360000D02*
X202403000Y-72360000D01*
X203630000Y-72560000D02*
X202436000Y-72560000D01*
X206526000Y-72440000D02*
X205310000Y-72440000D01*
X205665000Y-69850199D02*
X205665000Y-70250199D01*
X205724000Y-73801000D02*
X205310000Y-73801000D01*
X203630000Y-73401000D02*
X202820000Y-73401000D01*
X203630000Y-73481000D02*
X202883000Y-73481000D01*
X205866000Y-73681000D02*
X205310000Y-73681000D01*
X203630000Y-73041000D02*
X202600000Y-73041000D01*
X203630000Y-72400000D02*
X202408000Y-72400000D01*
X206424000Y-72841000D02*
X205310000Y-72841000D01*
X203630000Y-72720000D02*
X202476000Y-72720000D01*
X203630000Y-73281000D02*
X202735000Y-73281000D01*
X206475000Y-72680000D02*
X205310000Y-72680000D01*
X206438000Y-72800000D02*
X205310000Y-72800000D01*
X205865000Y-70050199D02*
X205465000Y-70050199D01*
X203630000Y-73681000D02*
X203074000Y-73681000D01*
X203630000Y-73081000D02*
X202619000Y-73081000D01*
X206549000Y-72200000D02*
X202391000Y-72200000D01*
X203630000Y-72480000D02*
X202420000Y-72480000D01*
X206255000Y-73201000D02*
X205310000Y-73201000D01*
X203630000Y-72881000D02*
X202530000Y-72881000D01*
X203630000Y-72921000D02*
X202546000Y-72921000D01*
X205821000Y-73721000D02*
X205310000Y-73721000D01*
X206486000Y-72640000D02*
X205310000Y-72640000D01*
X206359000Y-73001000D02*
X205310000Y-73001000D01*
X203630000Y-72760000D02*
X202488000Y-72760000D01*
X206547000Y-72240000D02*
X202393000Y-72240000D01*
X206541000Y-72320000D02*
X205310000Y-72320000D01*
X206590000Y-72120000D02*
G75*
G03*
X206590000Y-72120000I-2120000J0D01*
G01*
%TO.C,D5*%
X113010000Y-44175000D02*
X113010000Y-47265000D01*
X113010000Y-47264830D02*
G75*
G03*
X118560000Y-45719538I2560000J1544830D01*
G01*
X118560000Y-45720462D02*
G75*
G03*
X113010000Y-44175170I-2990000J462D01*
G01*
X118070000Y-45720000D02*
G75*
G03*
X118070000Y-45720000I-2500000J0D01*
G01*
%TO.C,D33*%
X168890000Y-44175000D02*
X168890000Y-47265000D01*
X174440000Y-45720462D02*
G75*
G03*
X168890000Y-44175170I-2990000J462D01*
G01*
X168890000Y-47264830D02*
G75*
G03*
X174440000Y-45719538I2560000J1544830D01*
G01*
X173950000Y-45720000D02*
G75*
G03*
X173950000Y-45720000I-2500000J0D01*
G01*
%TO.C,C6*%
X205908000Y-137141000D02*
X205310000Y-137141000D01*
X206526000Y-135940000D02*
X205310000Y-135940000D01*
X203630000Y-137261000D02*
X203166000Y-137261000D01*
X205612000Y-137381000D02*
X205310000Y-137381000D01*
X203630000Y-137341000D02*
X203270000Y-137341000D01*
X206475000Y-136180000D02*
X205310000Y-136180000D01*
X206230000Y-136741000D02*
X205310000Y-136741000D01*
X203630000Y-136421000D02*
X202546000Y-136421000D01*
X203630000Y-136300000D02*
X202502000Y-136300000D01*
X203630000Y-136461000D02*
X202563000Y-136461000D01*
X203630000Y-136381000D02*
X202530000Y-136381000D01*
X203630000Y-137421000D02*
X203390000Y-137421000D01*
X206537000Y-135860000D02*
X205310000Y-135860000D01*
X203630000Y-136821000D02*
X202762000Y-136821000D01*
X206205000Y-136781000D02*
X205310000Y-136781000D01*
X206438000Y-136300000D02*
X205310000Y-136300000D01*
X206359000Y-136501000D02*
X205310000Y-136501000D01*
X206278000Y-136661000D02*
X205310000Y-136661000D01*
X205665000Y-133350199D02*
X205665000Y-133750199D01*
X206544000Y-135780000D02*
X202396000Y-135780000D01*
X206120000Y-136901000D02*
X205310000Y-136901000D01*
X203630000Y-137301000D02*
X203216000Y-137301000D01*
X206547000Y-135740000D02*
X202393000Y-135740000D01*
X204840000Y-137701000D02*
X204100000Y-137701000D01*
X206541000Y-135820000D02*
X205310000Y-135820000D01*
X203630000Y-136901000D02*
X202820000Y-136901000D01*
X206410000Y-136381000D02*
X205310000Y-136381000D01*
X203630000Y-136140000D02*
X202454000Y-136140000D01*
X206178000Y-136821000D02*
X205310000Y-136821000D01*
X203630000Y-136621000D02*
X202640000Y-136621000D01*
X203630000Y-137141000D02*
X203032000Y-137141000D01*
X205724000Y-137301000D02*
X205310000Y-137301000D01*
X203630000Y-136581000D02*
X202619000Y-136581000D01*
X206464000Y-136220000D02*
X205310000Y-136220000D01*
X205007000Y-137661000D02*
X203933000Y-137661000D01*
X205986000Y-137061000D02*
X205310000Y-137061000D01*
X206255000Y-136701000D02*
X205310000Y-136701000D01*
X206486000Y-136140000D02*
X205310000Y-136140000D01*
X206512000Y-136020000D02*
X205310000Y-136020000D01*
X205774000Y-137261000D02*
X205310000Y-137261000D01*
X203630000Y-137221000D02*
X203119000Y-137221000D01*
X203630000Y-136861000D02*
X202790000Y-136861000D01*
X206550000Y-135620000D02*
X202390000Y-135620000D01*
X205865000Y-133550199D02*
X205465000Y-133550199D01*
X206394000Y-136421000D02*
X205310000Y-136421000D01*
X206377000Y-136461000D02*
X205310000Y-136461000D01*
X206089000Y-136941000D02*
X205310000Y-136941000D01*
X206340000Y-136541000D02*
X205310000Y-136541000D01*
X203630000Y-136501000D02*
X202581000Y-136501000D01*
X205483000Y-137461000D02*
X203457000Y-137461000D01*
X203630000Y-136260000D02*
X202488000Y-136260000D01*
X206022000Y-137021000D02*
X205310000Y-137021000D01*
X206150000Y-136861000D02*
X205310000Y-136861000D01*
X203630000Y-136020000D02*
X202428000Y-136020000D01*
X203630000Y-136741000D02*
X202710000Y-136741000D01*
X203630000Y-135820000D02*
X202399000Y-135820000D01*
X203630000Y-135900000D02*
X202408000Y-135900000D01*
X206321000Y-136581000D02*
X205310000Y-136581000D01*
X203630000Y-136341000D02*
X202516000Y-136341000D01*
X206504000Y-136060000D02*
X205310000Y-136060000D01*
X203630000Y-135860000D02*
X202403000Y-135860000D01*
X205550000Y-137421000D02*
X205310000Y-137421000D01*
X203630000Y-136701000D02*
X202685000Y-136701000D01*
X205410000Y-137501000D02*
X203530000Y-137501000D01*
X203630000Y-136180000D02*
X202465000Y-136180000D01*
X203630000Y-136060000D02*
X202436000Y-136060000D01*
X206520000Y-135980000D02*
X205310000Y-135980000D01*
X206495000Y-136100000D02*
X205310000Y-136100000D01*
X203630000Y-137381000D02*
X203328000Y-137381000D01*
X205134000Y-137621000D02*
X203806000Y-137621000D01*
X203630000Y-135980000D02*
X202420000Y-135980000D01*
X203630000Y-137181000D02*
X203074000Y-137181000D01*
X203630000Y-135940000D02*
X202414000Y-135940000D01*
X203630000Y-137061000D02*
X202954000Y-137061000D01*
X206452000Y-136260000D02*
X205310000Y-136260000D01*
X205866000Y-137181000D02*
X205310000Y-137181000D01*
X203630000Y-136981000D02*
X202883000Y-136981000D01*
X206550000Y-135660000D02*
X202390000Y-135660000D01*
X205670000Y-137341000D02*
X205310000Y-137341000D01*
X206424000Y-136341000D02*
X205310000Y-136341000D01*
X203630000Y-136781000D02*
X202735000Y-136781000D01*
X205948000Y-137101000D02*
X205310000Y-137101000D01*
X206532000Y-135900000D02*
X205310000Y-135900000D01*
X206549000Y-135700000D02*
X202391000Y-135700000D01*
X205821000Y-137221000D02*
X205310000Y-137221000D01*
X206300000Y-136621000D02*
X205310000Y-136621000D01*
X205238000Y-137581000D02*
X203702000Y-137581000D01*
X203630000Y-136541000D02*
X202600000Y-136541000D01*
X203630000Y-137021000D02*
X202918000Y-137021000D01*
X205329000Y-137541000D02*
X203611000Y-137541000D01*
X206057000Y-136981000D02*
X205310000Y-136981000D01*
X203630000Y-136100000D02*
X202445000Y-136100000D01*
X203630000Y-137101000D02*
X202992000Y-137101000D01*
X203630000Y-136220000D02*
X202476000Y-136220000D01*
X203630000Y-136661000D02*
X202662000Y-136661000D01*
X203630000Y-136941000D02*
X202851000Y-136941000D01*
X206590000Y-135620000D02*
G75*
G03*
X206590000Y-135620000I-2120000J0D01*
G01*
%TO.C,D25*%
X140950000Y-53065000D02*
X140950000Y-56155000D01*
X140950000Y-56154830D02*
G75*
G03*
X146500000Y-54609538I2560000J1544830D01*
G01*
X146500000Y-54610462D02*
G75*
G03*
X140950000Y-53065170I-2990000J462D01*
G01*
X146010000Y-54610000D02*
G75*
G03*
X146010000Y-54610000I-2500000J0D01*
G01*
%TO.C,R6*%
X95710000Y-63950000D02*
X104950000Y-63950000D01*
X104950000Y-60510000D02*
X95710000Y-60510000D01*
X95710000Y-60510000D02*
X95710000Y-63950000D01*
X104950000Y-63950000D02*
X104950000Y-60510000D01*
X95020000Y-62230000D02*
X95710000Y-62230000D01*
X105640000Y-62230000D02*
X104950000Y-62230000D01*
%TO.C,C1*%
X216704000Y-115460000D02*
X212556000Y-115460000D01*
X213790000Y-116181000D02*
X212741000Y-116181000D01*
X213790000Y-116621000D02*
X213011000Y-116621000D01*
X213790000Y-116341000D02*
X212822000Y-116341000D01*
X216584000Y-116021000D02*
X215470000Y-116021000D01*
X215830000Y-117021000D02*
X215470000Y-117021000D01*
X213790000Y-115820000D02*
X212614000Y-115820000D01*
X216624000Y-115900000D02*
X215470000Y-115900000D01*
X215294000Y-117301000D02*
X213966000Y-117301000D01*
X213790000Y-115860000D02*
X212625000Y-115860000D01*
X213790000Y-116301000D02*
X212800000Y-116301000D01*
X215934000Y-116941000D02*
X215470000Y-116941000D01*
X213790000Y-116501000D02*
X212922000Y-116501000D01*
X216612000Y-115940000D02*
X215470000Y-115940000D01*
X213790000Y-116941000D02*
X213326000Y-116941000D01*
X213790000Y-115540000D02*
X212563000Y-115540000D01*
X216415000Y-116381000D02*
X215470000Y-116381000D01*
X216500000Y-116221000D02*
X215470000Y-116221000D01*
X216709000Y-115380000D02*
X212551000Y-115380000D01*
X216390000Y-116421000D02*
X215470000Y-116421000D01*
X216025000Y-113230199D02*
X215625000Y-113230199D01*
X216710000Y-115300000D02*
X212550000Y-115300000D01*
X215398000Y-117261000D02*
X213862000Y-117261000D01*
X216519000Y-116181000D02*
X215470000Y-116181000D01*
X215884000Y-116981000D02*
X215470000Y-116981000D01*
X216249000Y-116621000D02*
X215470000Y-116621000D01*
X216310000Y-116541000D02*
X215470000Y-116541000D01*
X215000000Y-117381000D02*
X214260000Y-117381000D01*
X213790000Y-116581000D02*
X212980000Y-116581000D01*
X216701000Y-115500000D02*
X215470000Y-115500000D01*
X216635000Y-115860000D02*
X215470000Y-115860000D01*
X216146000Y-116741000D02*
X215470000Y-116741000D01*
X213790000Y-115780000D02*
X212605000Y-115780000D01*
X216697000Y-115540000D02*
X215470000Y-115540000D01*
X213790000Y-116541000D02*
X212950000Y-116541000D01*
X216108000Y-116781000D02*
X215470000Y-116781000D01*
X216365000Y-116461000D02*
X215470000Y-116461000D01*
X213790000Y-115900000D02*
X212636000Y-115900000D01*
X213790000Y-116901000D02*
X213279000Y-116901000D01*
X213790000Y-116381000D02*
X212845000Y-116381000D01*
X216438000Y-116341000D02*
X215470000Y-116341000D01*
X213790000Y-116021000D02*
X212676000Y-116021000D01*
X213790000Y-115700000D02*
X212588000Y-115700000D01*
X215570000Y-117181000D02*
X213690000Y-117181000D01*
X213790000Y-116141000D02*
X212723000Y-116141000D01*
X213790000Y-116061000D02*
X212690000Y-116061000D01*
X216554000Y-116101000D02*
X215470000Y-116101000D01*
X213790000Y-115500000D02*
X212559000Y-115500000D01*
X213790000Y-116421000D02*
X212870000Y-116421000D01*
X213790000Y-115740000D02*
X212596000Y-115740000D01*
X216481000Y-116261000D02*
X215470000Y-116261000D01*
X216692000Y-115580000D02*
X215470000Y-115580000D01*
X213790000Y-116101000D02*
X212706000Y-116101000D01*
X215981000Y-116901000D02*
X215470000Y-116901000D01*
X216672000Y-115700000D02*
X215470000Y-115700000D01*
X215710000Y-117101000D02*
X215470000Y-117101000D01*
X213790000Y-116861000D02*
X213234000Y-116861000D01*
X215825000Y-113030199D02*
X215825000Y-113430199D01*
X216686000Y-115620000D02*
X215470000Y-115620000D01*
X216280000Y-116581000D02*
X215470000Y-116581000D01*
X216338000Y-116501000D02*
X215470000Y-116501000D01*
X216570000Y-116061000D02*
X215470000Y-116061000D01*
X213790000Y-115980000D02*
X212662000Y-115980000D01*
X215489000Y-117221000D02*
X213771000Y-117221000D01*
X213790000Y-116661000D02*
X213043000Y-116661000D01*
X213790000Y-116781000D02*
X213152000Y-116781000D01*
X213790000Y-115620000D02*
X212574000Y-115620000D01*
X213790000Y-115580000D02*
X212568000Y-115580000D01*
X216537000Y-116141000D02*
X215470000Y-116141000D01*
X213790000Y-115940000D02*
X212648000Y-115940000D01*
X215643000Y-117141000D02*
X213617000Y-117141000D01*
X213790000Y-116981000D02*
X213376000Y-116981000D01*
X213790000Y-117061000D02*
X213488000Y-117061000D01*
X216710000Y-115340000D02*
X212550000Y-115340000D01*
X216664000Y-115740000D02*
X215470000Y-115740000D01*
X213790000Y-116821000D02*
X213192000Y-116821000D01*
X213790000Y-116261000D02*
X212779000Y-116261000D01*
X215772000Y-117061000D02*
X215470000Y-117061000D01*
X216707000Y-115420000D02*
X212553000Y-115420000D01*
X215167000Y-117341000D02*
X214093000Y-117341000D01*
X216068000Y-116821000D02*
X215470000Y-116821000D01*
X216680000Y-115660000D02*
X215470000Y-115660000D01*
X216217000Y-116661000D02*
X215470000Y-116661000D01*
X213790000Y-117101000D02*
X213550000Y-117101000D01*
X213790000Y-117021000D02*
X213430000Y-117021000D01*
X213790000Y-116461000D02*
X212895000Y-116461000D01*
X216460000Y-116301000D02*
X215470000Y-116301000D01*
X216646000Y-115820000D02*
X215470000Y-115820000D01*
X216655000Y-115780000D02*
X215470000Y-115780000D01*
X213790000Y-116741000D02*
X213114000Y-116741000D01*
X213790000Y-116701000D02*
X213078000Y-116701000D01*
X213790000Y-115660000D02*
X212580000Y-115660000D01*
X216598000Y-115980000D02*
X215470000Y-115980000D01*
X216026000Y-116861000D02*
X215470000Y-116861000D01*
X213790000Y-116221000D02*
X212760000Y-116221000D01*
X216182000Y-116701000D02*
X215470000Y-116701000D01*
X216750000Y-115300000D02*
G75*
G03*
X216750000Y-115300000I-2120000J0D01*
G01*
%TO.C,R13*%
X197300000Y-107140000D02*
X193860000Y-107140000D01*
X197300000Y-116380000D02*
X197300000Y-107140000D01*
X193860000Y-107140000D02*
X193860000Y-116380000D01*
X193860000Y-116380000D02*
X197300000Y-116380000D01*
X195580000Y-106450000D02*
X195580000Y-107140000D01*
X195580000Y-117070000D02*
X195580000Y-116380000D01*
%TO.C,D38*%
X186670000Y-35285000D02*
X186670000Y-38375000D01*
X192220000Y-36830462D02*
G75*
G03*
X186670000Y-35285170I-2990000J462D01*
G01*
X186670000Y-38374830D02*
G75*
G03*
X192220000Y-36829538I2560000J1544830D01*
G01*
X191730000Y-36830000D02*
G75*
G03*
X191730000Y-36830000I-2500000J0D01*
G01*
%TO.C,D16*%
X186670000Y-131805000D02*
X186670000Y-134895000D01*
X186670000Y-134894830D02*
G75*
G03*
X192220000Y-133349538I2560000J1544830D01*
G01*
X192220000Y-133350462D02*
G75*
G03*
X186670000Y-131805170I-2990000J462D01*
G01*
X191730000Y-133350000D02*
G75*
G03*
X191730000Y-133350000I-2500000J0D01*
G01*
%TO.C,D51*%
X121900000Y-114025000D02*
X121900000Y-117115000D01*
X121900000Y-117114830D02*
G75*
G03*
X127450000Y-115569538I2560000J1544830D01*
G01*
X127450000Y-115570462D02*
G75*
G03*
X121900000Y-114025170I-2990000J462D01*
G01*
X126960000Y-115570000D02*
G75*
G03*
X126960000Y-115570000I-2500000J0D01*
G01*
%TO.C,D40*%
X186670000Y-53065000D02*
X186670000Y-56155000D01*
X192220000Y-54610462D02*
G75*
G03*
X186670000Y-53065170I-2990000J462D01*
G01*
X186670000Y-56154830D02*
G75*
G03*
X192220000Y-54609538I2560000J1544830D01*
G01*
X191730000Y-54610000D02*
G75*
G03*
X191730000Y-54610000I-2500000J0D01*
G01*
%TO.C,R3*%
X226880000Y-96060000D02*
X230320000Y-96060000D01*
X228600000Y-86130000D02*
X228600000Y-86820000D01*
X228600000Y-96750000D02*
X228600000Y-96060000D01*
X226880000Y-86820000D02*
X226880000Y-96060000D01*
X230320000Y-86820000D02*
X226880000Y-86820000D01*
X230320000Y-96060000D02*
X230320000Y-86820000D01*
%TO.C,D24*%
X140950000Y-44175000D02*
X140950000Y-47265000D01*
X146500000Y-45720462D02*
G75*
G03*
X140950000Y-44175170I-2990000J462D01*
G01*
X140950000Y-47264830D02*
G75*
G03*
X146500000Y-45719538I2560000J1544830D01*
G01*
X146010000Y-45720000D02*
G75*
G03*
X146010000Y-45720000I-2500000J0D01*
G01*
%TO.C,C2*%
X205865000Y-120850199D02*
X205465000Y-120850199D01*
X205908000Y-124441000D02*
X205310000Y-124441000D01*
X203630000Y-123160000D02*
X202403000Y-123160000D01*
X206394000Y-123721000D02*
X205310000Y-123721000D01*
X205550000Y-124721000D02*
X205310000Y-124721000D01*
X203630000Y-123440000D02*
X202454000Y-123440000D01*
X203630000Y-123360000D02*
X202436000Y-123360000D01*
X206541000Y-123120000D02*
X205310000Y-123120000D01*
X203630000Y-123961000D02*
X202662000Y-123961000D01*
X206537000Y-123160000D02*
X205310000Y-123160000D01*
X203630000Y-124361000D02*
X202954000Y-124361000D01*
X203630000Y-123761000D02*
X202563000Y-123761000D01*
X206495000Y-123400000D02*
X205310000Y-123400000D01*
X206526000Y-123240000D02*
X205310000Y-123240000D01*
X203630000Y-123641000D02*
X202516000Y-123641000D01*
X206120000Y-124201000D02*
X205310000Y-124201000D01*
X206022000Y-124321000D02*
X205310000Y-124321000D01*
X203630000Y-124441000D02*
X203032000Y-124441000D01*
X206089000Y-124241000D02*
X205310000Y-124241000D01*
X205134000Y-124921000D02*
X203806000Y-124921000D01*
X203630000Y-123600000D02*
X202502000Y-123600000D01*
X206340000Y-123841000D02*
X205310000Y-123841000D01*
X205866000Y-124481000D02*
X205310000Y-124481000D01*
X205410000Y-124801000D02*
X203530000Y-124801000D01*
X206520000Y-123280000D02*
X205310000Y-123280000D01*
X205774000Y-124561000D02*
X205310000Y-124561000D01*
X205986000Y-124361000D02*
X205310000Y-124361000D01*
X203630000Y-124121000D02*
X202762000Y-124121000D01*
X203630000Y-123480000D02*
X202465000Y-123480000D01*
X205329000Y-124841000D02*
X203611000Y-124841000D01*
X206544000Y-123080000D02*
X202396000Y-123080000D01*
X203630000Y-123841000D02*
X202600000Y-123841000D01*
X206550000Y-122920000D02*
X202390000Y-122920000D01*
X205238000Y-124881000D02*
X203702000Y-124881000D01*
X206300000Y-123921000D02*
X205310000Y-123921000D01*
X203630000Y-123681000D02*
X202530000Y-123681000D01*
X203630000Y-123921000D02*
X202640000Y-123921000D01*
X206547000Y-123040000D02*
X202393000Y-123040000D01*
X206230000Y-124041000D02*
X205310000Y-124041000D01*
X203630000Y-124561000D02*
X203166000Y-124561000D01*
X206464000Y-123520000D02*
X205310000Y-123520000D01*
X206512000Y-123320000D02*
X205310000Y-123320000D01*
X205724000Y-124601000D02*
X205310000Y-124601000D01*
X203630000Y-124601000D02*
X203216000Y-124601000D01*
X203630000Y-124081000D02*
X202735000Y-124081000D01*
X205821000Y-124521000D02*
X205310000Y-124521000D01*
X203630000Y-123520000D02*
X202476000Y-123520000D01*
X206359000Y-123801000D02*
X205310000Y-123801000D01*
X206278000Y-123961000D02*
X205310000Y-123961000D01*
X206475000Y-123480000D02*
X205310000Y-123480000D01*
X204840000Y-125001000D02*
X204100000Y-125001000D01*
X206424000Y-123641000D02*
X205310000Y-123641000D01*
X203630000Y-124641000D02*
X203270000Y-124641000D01*
X206550000Y-122960000D02*
X202390000Y-122960000D01*
X206255000Y-124001000D02*
X205310000Y-124001000D01*
X203630000Y-123280000D02*
X202420000Y-123280000D01*
X206057000Y-124281000D02*
X205310000Y-124281000D01*
X206549000Y-123000000D02*
X202391000Y-123000000D01*
X205483000Y-124761000D02*
X203457000Y-124761000D01*
X203630000Y-124041000D02*
X202710000Y-124041000D01*
X206486000Y-123440000D02*
X205310000Y-123440000D01*
X206532000Y-123200000D02*
X205310000Y-123200000D01*
X205670000Y-124641000D02*
X205310000Y-124641000D01*
X205612000Y-124681000D02*
X205310000Y-124681000D01*
X205665000Y-120650199D02*
X205665000Y-121050199D01*
X206377000Y-123761000D02*
X205310000Y-123761000D01*
X203630000Y-124201000D02*
X202820000Y-124201000D01*
X203630000Y-124721000D02*
X203390000Y-124721000D01*
X203630000Y-124521000D02*
X203119000Y-124521000D01*
X203630000Y-123320000D02*
X202428000Y-123320000D01*
X203630000Y-123120000D02*
X202399000Y-123120000D01*
X203630000Y-124321000D02*
X202918000Y-124321000D01*
X203630000Y-123560000D02*
X202488000Y-123560000D01*
X203630000Y-124681000D02*
X203328000Y-124681000D01*
X205007000Y-124961000D02*
X203933000Y-124961000D01*
X206150000Y-124161000D02*
X205310000Y-124161000D01*
X203630000Y-123240000D02*
X202414000Y-123240000D01*
X203630000Y-124161000D02*
X202790000Y-124161000D01*
X206504000Y-123360000D02*
X205310000Y-123360000D01*
X203630000Y-123200000D02*
X202408000Y-123200000D01*
X205948000Y-124401000D02*
X205310000Y-124401000D01*
X206321000Y-123881000D02*
X205310000Y-123881000D01*
X206410000Y-123681000D02*
X205310000Y-123681000D01*
X203630000Y-123721000D02*
X202546000Y-123721000D01*
X206178000Y-124121000D02*
X205310000Y-124121000D01*
X203630000Y-124281000D02*
X202883000Y-124281000D01*
X206452000Y-123560000D02*
X205310000Y-123560000D01*
X203630000Y-124401000D02*
X202992000Y-124401000D01*
X206205000Y-124081000D02*
X205310000Y-124081000D01*
X206438000Y-123600000D02*
X205310000Y-123600000D01*
X203630000Y-123801000D02*
X202581000Y-123801000D01*
X203630000Y-124241000D02*
X202851000Y-124241000D01*
X203630000Y-123881000D02*
X202619000Y-123881000D01*
X203630000Y-124481000D02*
X203074000Y-124481000D01*
X203630000Y-123400000D02*
X202445000Y-123400000D01*
X203630000Y-124001000D02*
X202685000Y-124001000D01*
X206590000Y-122920000D02*
G75*
G03*
X206590000Y-122920000I-2120000J0D01*
G01*
%TO.C,C5*%
X203630000Y-60781000D02*
X202883000Y-60781000D01*
X206340000Y-60341000D02*
X205310000Y-60341000D01*
X206532000Y-59700000D02*
X205310000Y-59700000D01*
X203630000Y-59700000D02*
X202408000Y-59700000D01*
X203630000Y-59860000D02*
X202436000Y-59860000D01*
X206550000Y-59460000D02*
X202390000Y-59460000D01*
X206120000Y-60701000D02*
X205310000Y-60701000D01*
X203630000Y-61021000D02*
X203119000Y-61021000D01*
X203630000Y-60941000D02*
X203032000Y-60941000D01*
X206547000Y-59540000D02*
X202393000Y-59540000D01*
X203630000Y-60141000D02*
X202516000Y-60141000D01*
X205865000Y-57350199D02*
X205465000Y-57350199D01*
X205612000Y-61181000D02*
X205310000Y-61181000D01*
X206526000Y-59740000D02*
X205310000Y-59740000D01*
X203630000Y-60461000D02*
X202662000Y-60461000D01*
X203630000Y-60661000D02*
X202790000Y-60661000D01*
X206359000Y-60301000D02*
X205310000Y-60301000D01*
X204840000Y-61501000D02*
X204100000Y-61501000D01*
X205550000Y-61221000D02*
X205310000Y-61221000D01*
X203630000Y-60421000D02*
X202640000Y-60421000D01*
X206300000Y-60421000D02*
X205310000Y-60421000D01*
X206230000Y-60541000D02*
X205310000Y-60541000D01*
X203630000Y-59940000D02*
X202454000Y-59940000D01*
X205724000Y-61101000D02*
X205310000Y-61101000D01*
X203630000Y-60701000D02*
X202820000Y-60701000D01*
X203630000Y-60861000D02*
X202954000Y-60861000D01*
X203630000Y-60981000D02*
X203074000Y-60981000D01*
X203630000Y-60821000D02*
X202918000Y-60821000D01*
X203630000Y-59660000D02*
X202403000Y-59660000D01*
X203630000Y-60020000D02*
X202476000Y-60020000D01*
X206089000Y-60741000D02*
X205310000Y-60741000D01*
X203630000Y-60261000D02*
X202563000Y-60261000D01*
X203630000Y-59980000D02*
X202465000Y-59980000D01*
X203630000Y-61061000D02*
X203166000Y-61061000D01*
X206520000Y-59780000D02*
X205310000Y-59780000D01*
X205134000Y-61421000D02*
X203806000Y-61421000D01*
X203630000Y-60581000D02*
X202735000Y-60581000D01*
X203630000Y-60301000D02*
X202581000Y-60301000D01*
X203630000Y-61101000D02*
X203216000Y-61101000D01*
X203630000Y-60381000D02*
X202619000Y-60381000D01*
X206410000Y-60181000D02*
X205310000Y-60181000D01*
X203630000Y-61181000D02*
X203328000Y-61181000D01*
X206541000Y-59620000D02*
X205310000Y-59620000D01*
X206278000Y-60461000D02*
X205310000Y-60461000D01*
X206394000Y-60221000D02*
X205310000Y-60221000D01*
X206544000Y-59580000D02*
X202396000Y-59580000D01*
X205948000Y-60901000D02*
X205310000Y-60901000D01*
X203630000Y-59900000D02*
X202445000Y-59900000D01*
X205821000Y-61021000D02*
X205310000Y-61021000D01*
X206475000Y-59980000D02*
X205310000Y-59980000D01*
X205329000Y-61341000D02*
X203611000Y-61341000D01*
X203630000Y-60060000D02*
X202488000Y-60060000D01*
X206512000Y-59820000D02*
X205310000Y-59820000D01*
X203630000Y-60221000D02*
X202546000Y-60221000D01*
X203630000Y-60100000D02*
X202502000Y-60100000D01*
X203630000Y-60541000D02*
X202710000Y-60541000D01*
X203630000Y-61141000D02*
X203270000Y-61141000D01*
X203630000Y-60341000D02*
X202600000Y-60341000D01*
X206321000Y-60381000D02*
X205310000Y-60381000D01*
X205908000Y-60941000D02*
X205310000Y-60941000D01*
X206504000Y-59860000D02*
X205310000Y-59860000D01*
X205670000Y-61141000D02*
X205310000Y-61141000D01*
X203630000Y-60901000D02*
X202992000Y-60901000D01*
X203630000Y-59820000D02*
X202428000Y-59820000D01*
X203630000Y-60741000D02*
X202851000Y-60741000D01*
X206495000Y-59900000D02*
X205310000Y-59900000D01*
X206486000Y-59940000D02*
X205310000Y-59940000D01*
X206549000Y-59500000D02*
X202391000Y-59500000D01*
X205866000Y-60981000D02*
X205310000Y-60981000D01*
X205774000Y-61061000D02*
X205310000Y-61061000D01*
X205986000Y-60861000D02*
X205310000Y-60861000D01*
X206150000Y-60661000D02*
X205310000Y-60661000D01*
X205410000Y-61301000D02*
X203530000Y-61301000D01*
X206022000Y-60821000D02*
X205310000Y-60821000D01*
X206255000Y-60501000D02*
X205310000Y-60501000D01*
X203630000Y-59780000D02*
X202420000Y-59780000D01*
X206178000Y-60621000D02*
X205310000Y-60621000D01*
X203630000Y-59620000D02*
X202399000Y-59620000D01*
X205007000Y-61461000D02*
X203933000Y-61461000D01*
X203630000Y-60621000D02*
X202762000Y-60621000D01*
X205483000Y-61261000D02*
X203457000Y-61261000D01*
X203630000Y-60181000D02*
X202530000Y-60181000D01*
X206377000Y-60261000D02*
X205310000Y-60261000D01*
X206452000Y-60060000D02*
X205310000Y-60060000D01*
X206438000Y-60100000D02*
X205310000Y-60100000D01*
X206550000Y-59420000D02*
X202390000Y-59420000D01*
X206424000Y-60141000D02*
X205310000Y-60141000D01*
X205238000Y-61381000D02*
X203702000Y-61381000D01*
X206537000Y-59660000D02*
X205310000Y-59660000D01*
X206205000Y-60581000D02*
X205310000Y-60581000D01*
X205665000Y-57150199D02*
X205665000Y-57550199D01*
X203630000Y-61221000D02*
X203390000Y-61221000D01*
X203630000Y-59740000D02*
X202414000Y-59740000D01*
X206464000Y-60020000D02*
X205310000Y-60020000D01*
X206057000Y-60781000D02*
X205310000Y-60781000D01*
X203630000Y-60501000D02*
X202685000Y-60501000D01*
X206590000Y-59420000D02*
G75*
G03*
X206590000Y-59420000I-2120000J0D01*
G01*
%TO.C,D28*%
X149840000Y-35285000D02*
X149840000Y-38375000D01*
X155390000Y-36830462D02*
G75*
G03*
X149840000Y-35285170I-2990000J462D01*
G01*
X149840000Y-38374830D02*
G75*
G03*
X155390000Y-36829538I2560000J1544830D01*
G01*
X154900000Y-36830000D02*
G75*
G03*
X154900000Y-36830000I-2500000J0D01*
G01*
%TO.C,D22*%
X130790000Y-70845000D02*
X130790000Y-73935000D01*
X130790000Y-73934830D02*
G75*
G03*
X136340000Y-72389538I2560000J1544830D01*
G01*
X136340000Y-72390462D02*
G75*
G03*
X130790000Y-70845170I-2990000J462D01*
G01*
X135850000Y-72390000D02*
G75*
G03*
X135850000Y-72390000I-2500000J0D01*
G01*
%TO.C,D15*%
X130790000Y-35285000D02*
X130790000Y-38375000D01*
X136340000Y-36830462D02*
G75*
G03*
X130790000Y-35285170I-2990000J462D01*
G01*
X130790000Y-38374830D02*
G75*
G03*
X136340000Y-36829538I2560000J1544830D01*
G01*
X135850000Y-36830000D02*
G75*
G03*
X135850000Y-36830000I-2500000J0D01*
G01*
%TO.C,D1*%
X168890000Y-114025000D02*
X168890000Y-117115000D01*
X174440000Y-115570462D02*
G75*
G03*
X168890000Y-114025170I-2990000J462D01*
G01*
X168890000Y-117114830D02*
G75*
G03*
X174440000Y-115569538I2560000J1544830D01*
G01*
X173950000Y-115570000D02*
G75*
G03*
X173950000Y-115570000I-2500000J0D01*
G01*
%TO.C,Q1*%
X198700000Y-124990000D02*
X198700000Y-121390000D01*
X198688478Y-121351522D02*
G75*
G03*
X194250000Y-123190000I-1838478J-1838478D01*
G01*
X194249999Y-123190000D02*
G75*
G03*
X198688478Y-125028478I2600001J0D01*
G01*
%TO.C,D64*%
X149860011Y-149585000D02*
X149860011Y-152675000D01*
X149860011Y-152674830D02*
G75*
G03*
X155410011Y-151129538I2560000J1544830D01*
G01*
X155410011Y-151130462D02*
G75*
G03*
X149860011Y-149585170I-2990000J462D01*
G01*
X154920011Y-151130000D02*
G75*
G03*
X154920011Y-151130000I-2500000J0D01*
G01*
%TO.C,D50*%
X140970011Y-131805000D02*
X140970011Y-134895000D01*
X140970011Y-134894830D02*
G75*
G03*
X146520011Y-133349538I2560000J1544830D01*
G01*
X146520011Y-133350462D02*
G75*
G03*
X140970011Y-131805170I-2990000J462D01*
G01*
X146030011Y-133350000D02*
G75*
G03*
X146030011Y-133350000I-2500000J0D01*
G01*
%TO.C,D60*%
X149860011Y-114025000D02*
X149860011Y-117115000D01*
X149860011Y-117114830D02*
G75*
G03*
X155410011Y-115569538I2560000J1544830D01*
G01*
X155410011Y-115570462D02*
G75*
G03*
X149860011Y-114025170I-2990000J462D01*
G01*
X154920011Y-115570000D02*
G75*
G03*
X154920011Y-115570000I-2500000J0D01*
G01*
%TO.C,D37*%
X177780000Y-35285000D02*
X177780000Y-38375000D01*
X183330000Y-36830462D02*
G75*
G03*
X177780000Y-35285170I-2990000J462D01*
G01*
X177780000Y-38374830D02*
G75*
G03*
X183330000Y-36829538I2560000J1544830D01*
G01*
X182840000Y-36830000D02*
G75*
G03*
X182840000Y-36830000I-2500000J0D01*
G01*
%TO.C,D61*%
X130790000Y-149585000D02*
X130790000Y-152675000D01*
X136340000Y-151130462D02*
G75*
G03*
X130790000Y-149585170I-2990000J462D01*
G01*
X130790000Y-152674830D02*
G75*
G03*
X136340000Y-151129538I2560000J1544830D01*
G01*
X135850000Y-151130000D02*
G75*
G03*
X135850000Y-151130000I-2500000J0D01*
G01*
%TO.C,D58*%
X158750011Y-149585000D02*
X158750011Y-152675000D01*
X158750011Y-152674830D02*
G75*
G03*
X164300011Y-151129538I2560000J1544830D01*
G01*
X164300011Y-151130462D02*
G75*
G03*
X158750011Y-149585170I-2990000J462D01*
G01*
X163810011Y-151130000D02*
G75*
G03*
X163810011Y-151130000I-2500000J0D01*
G01*
%TO.C,D44*%
X113010000Y-122915000D02*
X113010000Y-126005000D01*
X118560000Y-124460462D02*
G75*
G03*
X113010000Y-122915170I-2990000J462D01*
G01*
X113010000Y-126004830D02*
G75*
G03*
X118560000Y-124459538I2560000J1544830D01*
G01*
X118070000Y-124460000D02*
G75*
G03*
X118070000Y-124460000I-2500000J0D01*
G01*
%TO.C,Q5*%
X198700000Y-137690000D02*
X198700000Y-134090000D01*
X194249999Y-135890000D02*
G75*
G03*
X198688478Y-137728478I2600001J0D01*
G01*
X198688478Y-134051522D02*
G75*
G03*
X194250000Y-135890000I-1838478J-1838478D01*
G01*
%TO.C,D21*%
X130790000Y-53065000D02*
X130790000Y-56155000D01*
X136340000Y-54610462D02*
G75*
G03*
X130790000Y-53065170I-2990000J462D01*
G01*
X130790000Y-56154830D02*
G75*
G03*
X136340000Y-54609538I2560000J1544830D01*
G01*
X135850000Y-54610000D02*
G75*
G03*
X135850000Y-54610000I-2500000J0D01*
G01*
%TO.C,D36*%
X168890000Y-70845000D02*
X168890000Y-73935000D01*
X174440000Y-72390462D02*
G75*
G03*
X168890000Y-70845170I-2990000J462D01*
G01*
X168890000Y-73934830D02*
G75*
G03*
X174440000Y-72389538I2560000J1544830D01*
G01*
X173950000Y-72390000D02*
G75*
G03*
X173950000Y-72390000I-2500000J0D01*
G01*
%TO.C,D31*%
X158730000Y-70845000D02*
X158730000Y-73935000D01*
X158730000Y-73934830D02*
G75*
G03*
X164280000Y-72389538I2560000J1544830D01*
G01*
X164280000Y-72390462D02*
G75*
G03*
X158730000Y-70845170I-2990000J462D01*
G01*
X163790000Y-72390000D02*
G75*
G03*
X163790000Y-72390000I-2500000J0D01*
G01*
%TO.C,R10*%
X200660000Y-96750000D02*
X200660000Y-96060000D01*
X202380000Y-86820000D02*
X198940000Y-86820000D01*
X202380000Y-96060000D02*
X202380000Y-86820000D01*
X200660000Y-86130000D02*
X200660000Y-86820000D01*
X198940000Y-96060000D02*
X202380000Y-96060000D01*
X198940000Y-86820000D02*
X198940000Y-96060000D01*
%TO.C,Q2*%
X198700000Y-74190000D02*
X198700000Y-70590000D01*
X198688478Y-70551522D02*
G75*
G03*
X194250000Y-72390000I-1838478J-1838478D01*
G01*
X194249999Y-72390000D02*
G75*
G03*
X198688478Y-74228478I2600001J0D01*
G01*
%TO.C,D35*%
X168890000Y-61955000D02*
X168890000Y-65045000D01*
X174440000Y-63500462D02*
G75*
G03*
X168890000Y-61955170I-2990000J462D01*
G01*
X168890000Y-65044830D02*
G75*
G03*
X174440000Y-63499538I2560000J1544830D01*
G01*
X173950000Y-63500000D02*
G75*
G03*
X173950000Y-63500000I-2500000J0D01*
G01*
%TO.C,D29*%
X158730000Y-35285000D02*
X158730000Y-38375000D01*
X164280000Y-36830462D02*
G75*
G03*
X158730000Y-35285170I-2990000J462D01*
G01*
X158730000Y-38374830D02*
G75*
G03*
X164280000Y-36829538I2560000J1544830D01*
G01*
X163790000Y-36830000D02*
G75*
G03*
X163790000Y-36830000I-2500000J0D01*
G01*
%TO.C,D52*%
X149860011Y-131805000D02*
X149860011Y-134895000D01*
X149860011Y-134894830D02*
G75*
G03*
X155410011Y-133349538I2560000J1544830D01*
G01*
X155410011Y-133350462D02*
G75*
G03*
X149860011Y-131805170I-2990000J462D01*
G01*
X154920011Y-133350000D02*
G75*
G03*
X154920011Y-133350000I-2500000J0D01*
G01*
%TO.C,R2*%
X95710000Y-70670000D02*
X95710000Y-74110000D01*
X95020000Y-72390000D02*
X95710000Y-72390000D01*
X105640000Y-72390000D02*
X104950000Y-72390000D01*
X104950000Y-70670000D02*
X95710000Y-70670000D01*
X95710000Y-74110000D02*
X104950000Y-74110000D01*
X104950000Y-74110000D02*
X104950000Y-70670000D01*
%TO.C,D42*%
X113010000Y-114025000D02*
X113010000Y-117115000D01*
X113010000Y-117114830D02*
G75*
G03*
X118560000Y-115569538I2560000J1544830D01*
G01*
X118560000Y-115570462D02*
G75*
G03*
X113010000Y-114025170I-2990000J462D01*
G01*
X118070000Y-115570000D02*
G75*
G03*
X118070000Y-115570000I-2500000J0D01*
G01*
%TO.C,D8*%
X168890000Y-140695000D02*
X168890000Y-143785000D01*
X174440000Y-142240462D02*
G75*
G03*
X168890000Y-140695170I-2990000J462D01*
G01*
X168890000Y-143784830D02*
G75*
G03*
X174440000Y-142239538I2560000J1544830D01*
G01*
X173950000Y-142240000D02*
G75*
G03*
X173950000Y-142240000I-2500000J0D01*
G01*
%TO.C,D10*%
X168890000Y-149585000D02*
X168890000Y-152675000D01*
X168890000Y-152674830D02*
G75*
G03*
X174440000Y-151129538I2560000J1544830D01*
G01*
X174440000Y-151130462D02*
G75*
G03*
X168890000Y-149585170I-2990000J462D01*
G01*
X173950000Y-151130000D02*
G75*
G03*
X173950000Y-151130000I-2500000J0D01*
G01*
%TO.C,D7*%
X113010000Y-53065000D02*
X113010000Y-56155000D01*
X118560000Y-54610462D02*
G75*
G03*
X113010000Y-53065170I-2990000J462D01*
G01*
X113010000Y-56154830D02*
G75*
G03*
X118560000Y-54609538I2560000J1544830D01*
G01*
X118070000Y-54610000D02*
G75*
G03*
X118070000Y-54610000I-2500000J0D01*
G01*
%TO.C,D53*%
X130790000Y-114025000D02*
X130790000Y-117115000D01*
X136340000Y-115570462D02*
G75*
G03*
X130790000Y-114025170I-2990000J462D01*
G01*
X130790000Y-117114830D02*
G75*
G03*
X136340000Y-115569538I2560000J1544830D01*
G01*
X135850000Y-115570000D02*
G75*
G03*
X135850000Y-115570000I-2500000J0D01*
G01*
%TO.C,D56*%
X158750011Y-140695000D02*
X158750011Y-143785000D01*
X164300011Y-142240462D02*
G75*
G03*
X158750011Y-140695170I-2990000J462D01*
G01*
X158750011Y-143784830D02*
G75*
G03*
X164300011Y-142239538I2560000J1544830D01*
G01*
X163810011Y-142240000D02*
G75*
G03*
X163810011Y-142240000I-2500000J0D01*
G01*
%TO.C,D65*%
X140970011Y-149585000D02*
X140970011Y-152675000D01*
X146520011Y-151130462D02*
G75*
G03*
X140970011Y-149585170I-2990000J462D01*
G01*
X140970011Y-152674830D02*
G75*
G03*
X146520011Y-151129538I2560000J1544830D01*
G01*
X146030011Y-151130000D02*
G75*
G03*
X146030011Y-151130000I-2500000J0D01*
G01*
%TO.C,R4*%
X226870000Y-103320000D02*
X226870000Y-99880000D01*
X217630000Y-99880000D02*
X217630000Y-103320000D01*
X226870000Y-99880000D02*
X217630000Y-99880000D01*
X216940000Y-101600000D02*
X217630000Y-101600000D01*
X227560000Y-101600000D02*
X226870000Y-101600000D01*
X217630000Y-103320000D02*
X226870000Y-103320000D01*
%TO.C,D46*%
X140970011Y-114025000D02*
X140970011Y-117115000D01*
X146520011Y-115570462D02*
G75*
G03*
X140970011Y-114025170I-2990000J462D01*
G01*
X140970011Y-117114830D02*
G75*
G03*
X146520011Y-115569538I2560000J1544830D01*
G01*
X146030011Y-115570000D02*
G75*
G03*
X146030011Y-115570000I-2500000J0D01*
G01*
%TO.C,D54*%
X158750011Y-131805000D02*
X158750011Y-134895000D01*
X158750011Y-134894830D02*
G75*
G03*
X164300011Y-133349538I2560000J1544830D01*
G01*
X164300011Y-133350462D02*
G75*
G03*
X158750011Y-131805170I-2990000J462D01*
G01*
X163810011Y-133350000D02*
G75*
G03*
X163810011Y-133350000I-2500000J0D01*
G01*
%TO.C,D41*%
X177780000Y-70845000D02*
X177780000Y-73935000D01*
X183330000Y-72390462D02*
G75*
G03*
X177780000Y-70845170I-2990000J462D01*
G01*
X177780000Y-73934830D02*
G75*
G03*
X183330000Y-72389538I2560000J1544830D01*
G01*
X182840000Y-72390000D02*
G75*
G03*
X182840000Y-72390000I-2500000J0D01*
G01*
%TO.C,D43*%
X186670000Y-70845000D02*
X186670000Y-73935000D01*
X192220000Y-72390462D02*
G75*
G03*
X186670000Y-70845170I-2990000J462D01*
G01*
X186670000Y-73934830D02*
G75*
G03*
X192220000Y-72389538I2560000J1544830D01*
G01*
X191730000Y-72390000D02*
G75*
G03*
X191730000Y-72390000I-2500000J0D01*
G01*
%TO.C,R1*%
X105640000Y-118110000D02*
X104950000Y-118110000D01*
X95710000Y-119830000D02*
X104950000Y-119830000D01*
X104950000Y-119830000D02*
X104950000Y-116390000D01*
X95020000Y-118110000D02*
X95710000Y-118110000D01*
X95710000Y-116390000D02*
X95710000Y-119830000D01*
X104950000Y-116390000D02*
X95710000Y-116390000D01*
%TO.C,Q4*%
X198700000Y-61490000D02*
X198700000Y-57890000D01*
X198688478Y-57851522D02*
G75*
G03*
X194250000Y-59690000I-1838478J-1838478D01*
G01*
X194249999Y-59690000D02*
G75*
G03*
X198688478Y-61528478I2600001J0D01*
G01*
%TO.C,D23*%
X140950000Y-35285000D02*
X140950000Y-38375000D01*
X140950000Y-38374830D02*
G75*
G03*
X146500000Y-36829538I2560000J1544830D01*
G01*
X146500000Y-36830462D02*
G75*
G03*
X140950000Y-35285170I-2990000J462D01*
G01*
X146010000Y-36830000D02*
G75*
G03*
X146010000Y-36830000I-2500000J0D01*
G01*
D12*
%TO.C,BAT1*%
X77160000Y-109470000D02*
X77160000Y-110220000D01*
X132480000Y-109470000D02*
X132480000Y-110220000D01*
X77910000Y-79920000D02*
X77160000Y-79920000D01*
X132480000Y-110220000D02*
X131730000Y-110220000D01*
X132480000Y-79920000D02*
X132480000Y-80670000D01*
X77160000Y-79920000D02*
X77160000Y-80670000D01*
X77910000Y-110220000D02*
X77160000Y-110220000D01*
X132480000Y-79920000D02*
X131730000Y-79920000D01*
D11*
%TO.C,D19*%
X121900000Y-53065000D02*
X121900000Y-56155000D01*
X127450000Y-54610462D02*
G75*
G03*
X121900000Y-53065170I-2990000J462D01*
G01*
X121900000Y-56154830D02*
G75*
G03*
X127450000Y-54609538I2560000J1544830D01*
G01*
X126960000Y-54610000D02*
G75*
G03*
X126960000Y-54610000I-2500000J0D01*
G01*
D12*
%TO.C,S1*%
X137990000Y-85680000D02*
X137990000Y-86180000D01*
X133790000Y-85680000D02*
X134290000Y-85680000D01*
X137990000Y-85680000D02*
X137490000Y-85680000D01*
X137990000Y-97580000D02*
X137490000Y-97580000D01*
X133790000Y-97580000D02*
X134290000Y-97580000D01*
X133790000Y-85680000D02*
X133790000Y-86180000D01*
X133790000Y-97580000D02*
X133790000Y-97080000D01*
X137990000Y-97580000D02*
X137990000Y-97080000D01*
D11*
%TO.C,D13*%
X121900000Y-70845000D02*
X121900000Y-73935000D01*
X121900000Y-73934830D02*
G75*
G03*
X127450000Y-72389538I2560000J1544830D01*
G01*
X127450000Y-72390462D02*
G75*
G03*
X121900000Y-70845170I-2990000J462D01*
G01*
X126960000Y-72390000D02*
G75*
G03*
X126960000Y-72390000I-2500000J0D01*
G01*
%TO.C,D12*%
X177780000Y-149585000D02*
X177780000Y-152675000D01*
X183330000Y-151130462D02*
G75*
G03*
X177780000Y-149585170I-2990000J462D01*
G01*
X177780000Y-152674830D02*
G75*
G03*
X183330000Y-151129538I2560000J1544830D01*
G01*
X182840000Y-151130000D02*
G75*
G03*
X182840000Y-151130000I-2500000J0D01*
G01*
%TO.C,D11*%
X113010000Y-70845000D02*
X113010000Y-73935000D01*
X118560000Y-72390462D02*
G75*
G03*
X113010000Y-70845170I-2990000J462D01*
G01*
X113010000Y-73934830D02*
G75*
G03*
X118560000Y-72389538I2560000J1544830D01*
G01*
X118070000Y-72390000D02*
G75*
G03*
X118070000Y-72390000I-2500000J0D01*
G01*
%TO.C,D6*%
X186670000Y-140695000D02*
X186670000Y-143785000D01*
X186670000Y-143784830D02*
G75*
G03*
X192220000Y-142239538I2560000J1544830D01*
G01*
X192220000Y-142240462D02*
G75*
G03*
X186670000Y-140695170I-2990000J462D01*
G01*
X191730000Y-142240000D02*
G75*
G03*
X191730000Y-142240000I-2500000J0D01*
G01*
%TO.C,D59*%
X130790000Y-140695000D02*
X130790000Y-143785000D01*
X130790000Y-143784830D02*
G75*
G03*
X136340000Y-142239538I2560000J1544830D01*
G01*
X136340000Y-142240462D02*
G75*
G03*
X130790000Y-140695170I-2990000J462D01*
G01*
X135850000Y-142240000D02*
G75*
G03*
X135850000Y-142240000I-2500000J0D01*
G01*
%TO.C,C4*%
X206547000Y-65890000D02*
X202393000Y-65890000D01*
X206359000Y-66651000D02*
X205310000Y-66651000D01*
X206541000Y-65970000D02*
X205310000Y-65970000D01*
X203630000Y-66491000D02*
X202516000Y-66491000D01*
X203630000Y-66130000D02*
X202420000Y-66130000D01*
X203630000Y-67411000D02*
X203166000Y-67411000D01*
X203630000Y-66410000D02*
X202488000Y-66410000D01*
X203630000Y-66611000D02*
X202563000Y-66611000D01*
X206424000Y-66491000D02*
X205310000Y-66491000D01*
X203630000Y-67251000D02*
X202992000Y-67251000D01*
X206057000Y-67131000D02*
X205310000Y-67131000D01*
X203630000Y-66811000D02*
X202662000Y-66811000D01*
X203630000Y-67131000D02*
X202883000Y-67131000D01*
X203630000Y-67051000D02*
X202820000Y-67051000D01*
X204840000Y-67851000D02*
X204100000Y-67851000D01*
X205986000Y-67211000D02*
X205310000Y-67211000D01*
X203630000Y-67571000D02*
X203390000Y-67571000D01*
X206526000Y-66090000D02*
X205310000Y-66090000D01*
X205865000Y-63700199D02*
X205465000Y-63700199D01*
X206300000Y-66771000D02*
X205310000Y-66771000D01*
X203630000Y-66010000D02*
X202403000Y-66010000D01*
X203630000Y-66370000D02*
X202476000Y-66370000D01*
X203630000Y-67531000D02*
X203328000Y-67531000D01*
X203630000Y-67371000D02*
X203119000Y-67371000D01*
X203630000Y-67331000D02*
X203074000Y-67331000D01*
X206022000Y-67171000D02*
X205310000Y-67171000D01*
X206486000Y-66290000D02*
X205310000Y-66290000D01*
X206438000Y-66450000D02*
X205310000Y-66450000D01*
X205774000Y-67411000D02*
X205310000Y-67411000D01*
X206377000Y-66611000D02*
X205310000Y-66611000D01*
X203630000Y-66771000D02*
X202640000Y-66771000D01*
X203630000Y-66971000D02*
X202762000Y-66971000D01*
X205670000Y-67491000D02*
X205310000Y-67491000D01*
X206464000Y-66370000D02*
X205310000Y-66370000D01*
X203630000Y-66891000D02*
X202710000Y-66891000D01*
X205410000Y-67651000D02*
X203530000Y-67651000D01*
X203630000Y-66170000D02*
X202428000Y-66170000D01*
X203630000Y-65970000D02*
X202399000Y-65970000D01*
X206495000Y-66250000D02*
X205310000Y-66250000D01*
X206178000Y-66971000D02*
X205310000Y-66971000D01*
X206550000Y-65770000D02*
X202390000Y-65770000D01*
X203630000Y-67211000D02*
X202954000Y-67211000D01*
X203630000Y-66931000D02*
X202735000Y-66931000D01*
X203630000Y-66651000D02*
X202581000Y-66651000D01*
X206120000Y-67051000D02*
X205310000Y-67051000D01*
X203630000Y-66571000D02*
X202546000Y-66571000D01*
X203630000Y-67011000D02*
X202790000Y-67011000D01*
X205483000Y-67611000D02*
X203457000Y-67611000D01*
X205007000Y-67811000D02*
X203933000Y-67811000D01*
X203630000Y-66290000D02*
X202454000Y-66290000D01*
X206255000Y-66851000D02*
X205310000Y-66851000D01*
X205612000Y-67531000D02*
X205310000Y-67531000D01*
X206504000Y-66210000D02*
X205310000Y-66210000D01*
X205908000Y-67291000D02*
X205310000Y-67291000D01*
X203630000Y-66050000D02*
X202408000Y-66050000D01*
X206537000Y-66010000D02*
X205310000Y-66010000D01*
X205866000Y-67331000D02*
X205310000Y-67331000D01*
X203630000Y-66210000D02*
X202436000Y-66210000D01*
X203630000Y-67291000D02*
X203032000Y-67291000D01*
X206532000Y-66050000D02*
X205310000Y-66050000D01*
X205724000Y-67451000D02*
X205310000Y-67451000D01*
X206512000Y-66170000D02*
X205310000Y-66170000D01*
X205821000Y-67371000D02*
X205310000Y-67371000D01*
X203630000Y-66330000D02*
X202465000Y-66330000D01*
X206205000Y-66931000D02*
X205310000Y-66931000D01*
X205550000Y-67571000D02*
X205310000Y-67571000D01*
X206452000Y-66410000D02*
X205310000Y-66410000D01*
X206230000Y-66891000D02*
X205310000Y-66891000D01*
X203630000Y-66450000D02*
X202502000Y-66450000D01*
X206544000Y-65930000D02*
X202396000Y-65930000D01*
X203630000Y-67171000D02*
X202918000Y-67171000D01*
X203630000Y-67451000D02*
X203216000Y-67451000D01*
X206321000Y-66731000D02*
X205310000Y-66731000D01*
X203630000Y-67491000D02*
X203270000Y-67491000D01*
X206550000Y-65810000D02*
X202390000Y-65810000D01*
X203630000Y-66851000D02*
X202685000Y-66851000D01*
X205329000Y-67691000D02*
X203611000Y-67691000D01*
X206549000Y-65850000D02*
X202391000Y-65850000D01*
X203630000Y-66531000D02*
X202530000Y-66531000D01*
X206475000Y-66330000D02*
X205310000Y-66330000D01*
X206520000Y-66130000D02*
X205310000Y-66130000D01*
X205665000Y-63500199D02*
X205665000Y-63900199D01*
X203630000Y-66090000D02*
X202414000Y-66090000D01*
X206278000Y-66811000D02*
X205310000Y-66811000D01*
X206410000Y-66531000D02*
X205310000Y-66531000D01*
X203630000Y-66691000D02*
X202600000Y-66691000D01*
X203630000Y-67091000D02*
X202851000Y-67091000D01*
X206150000Y-67011000D02*
X205310000Y-67011000D01*
X206089000Y-67091000D02*
X205310000Y-67091000D01*
X206340000Y-66691000D02*
X205310000Y-66691000D01*
X205948000Y-67251000D02*
X205310000Y-67251000D01*
X203630000Y-66731000D02*
X202619000Y-66731000D01*
X203630000Y-66250000D02*
X202445000Y-66250000D01*
X205238000Y-67731000D02*
X203702000Y-67731000D01*
X205134000Y-67771000D02*
X203806000Y-67771000D01*
X206394000Y-66571000D02*
X205310000Y-66571000D01*
X206590000Y-65770000D02*
G75*
G03*
X206590000Y-65770000I-2120000J0D01*
G01*
%TO.C,D26*%
X140950000Y-61955000D02*
X140950000Y-65045000D01*
X140950000Y-65044830D02*
G75*
G03*
X146500000Y-63499538I2560000J1544830D01*
G01*
X146500000Y-63500462D02*
G75*
G03*
X140950000Y-61955170I-2990000J462D01*
G01*
X146010000Y-63500000D02*
G75*
G03*
X146010000Y-63500000I-2500000J0D01*
G01*
%TO.C,U2*%
X177860000Y-104250000D02*
X177860000Y-83690000D01*
X177860000Y-83690000D02*
X167580000Y-83690000D01*
X167580000Y-83690000D02*
X167580000Y-104250000D01*
X175370000Y-83750000D02*
X173720000Y-83750000D01*
X170070000Y-83750000D02*
X170070000Y-104190000D01*
X171720000Y-83750000D02*
X170070000Y-83750000D01*
X170070000Y-104190000D02*
X175370000Y-104190000D01*
X175370000Y-104190000D02*
X175370000Y-83750000D01*
X167580000Y-104250000D02*
X177860000Y-104250000D01*
X171720000Y-83750000D02*
G75*
G03*
X173720000Y-83750000I1000000J0D01*
G01*
%TO.C,D62*%
X158750011Y-114025000D02*
X158750011Y-117115000D01*
X164300011Y-115570462D02*
G75*
G03*
X158750011Y-114025170I-2990000J462D01*
G01*
X158750011Y-117114830D02*
G75*
G03*
X164300011Y-115569538I2560000J1544830D01*
G01*
X163810011Y-115570000D02*
G75*
G03*
X163810011Y-115570000I-2500000J0D01*
G01*
%TO.C,D34*%
X168890000Y-53065000D02*
X168890000Y-56155000D01*
X174440000Y-54610462D02*
G75*
G03*
X168890000Y-53065170I-2990000J462D01*
G01*
X168890000Y-56154830D02*
G75*
G03*
X174440000Y-54609538I2560000J1544830D01*
G01*
X173950000Y-54610000D02*
G75*
G03*
X173950000Y-54610000I-2500000J0D01*
G01*
%TO.C,D17*%
X121900000Y-35285000D02*
X121900000Y-38375000D01*
X127450000Y-36830462D02*
G75*
G03*
X121900000Y-35285170I-2990000J462D01*
G01*
X121900000Y-38374830D02*
G75*
G03*
X127450000Y-36829538I2560000J1544830D01*
G01*
X126960000Y-36830000D02*
G75*
G03*
X126960000Y-36830000I-2500000J0D01*
G01*
%TO.C,R12*%
X197300000Y-96060000D02*
X197300000Y-86820000D01*
X195580000Y-86130000D02*
X195580000Y-86820000D01*
X193860000Y-96060000D02*
X197300000Y-96060000D01*
X197300000Y-86820000D02*
X193860000Y-86820000D01*
X195580000Y-96750000D02*
X195580000Y-96060000D01*
X193860000Y-86820000D02*
X193860000Y-96060000D01*
%TO.C,R7*%
X104950000Y-129990000D02*
X104950000Y-126550000D01*
X95020000Y-128270000D02*
X95710000Y-128270000D01*
X95710000Y-126550000D02*
X95710000Y-129990000D01*
X104950000Y-126550000D02*
X95710000Y-126550000D01*
X105640000Y-128270000D02*
X104950000Y-128270000D01*
X95710000Y-129990000D02*
X104950000Y-129990000D01*
%TO.C,Q3*%
X198700000Y-67840000D02*
X198700000Y-64240000D01*
X194249999Y-66040000D02*
G75*
G03*
X198688478Y-67878478I2600001J0D01*
G01*
X198688478Y-64201522D02*
G75*
G03*
X194250000Y-66040000I-1838478J-1838478D01*
G01*
%TO.C,D45*%
X113010000Y-131805000D02*
X113010000Y-134895000D01*
X113010000Y-134894830D02*
G75*
G03*
X118560000Y-133349538I2560000J1544830D01*
G01*
X118560000Y-133350462D02*
G75*
G03*
X113010000Y-131805170I-2990000J462D01*
G01*
X118070000Y-133350000D02*
G75*
G03*
X118070000Y-133350000I-2500000J0D01*
G01*
%TO.C,R5*%
X104950000Y-69030000D02*
X104950000Y-65590000D01*
X95710000Y-65590000D02*
X95710000Y-69030000D01*
X104950000Y-65590000D02*
X95710000Y-65590000D01*
X105640000Y-67310000D02*
X104950000Y-67310000D01*
X95020000Y-67310000D02*
X95710000Y-67310000D01*
X95710000Y-69030000D02*
X104950000Y-69030000D01*
%TO.C,R14*%
X202380000Y-107140000D02*
X198940000Y-107140000D01*
X198940000Y-116380000D02*
X202380000Y-116380000D01*
X200660000Y-106450000D02*
X200660000Y-107140000D01*
X202380000Y-116380000D02*
X202380000Y-107140000D01*
X200660000Y-117070000D02*
X200660000Y-116380000D01*
X198940000Y-107140000D02*
X198940000Y-116380000D01*
%TO.C,R9*%
X205740000Y-117070000D02*
X205740000Y-116380000D01*
X205740000Y-106450000D02*
X205740000Y-107140000D01*
X207460000Y-107140000D02*
X204020000Y-107140000D01*
X204020000Y-116380000D02*
X207460000Y-116380000D01*
X207460000Y-116380000D02*
X207460000Y-107140000D01*
X204020000Y-107140000D02*
X204020000Y-116380000D01*
%TO.C,D2*%
X168890000Y-122915000D02*
X168890000Y-126005000D01*
X168890000Y-126004830D02*
G75*
G03*
X174440000Y-124459538I2560000J1544830D01*
G01*
X174440000Y-124460462D02*
G75*
G03*
X168890000Y-122915170I-2990000J462D01*
G01*
X173950000Y-124460000D02*
G75*
G03*
X173950000Y-124460000I-2500000J0D01*
G01*
%TO.C,D27*%
X140950000Y-70845000D02*
X140950000Y-73935000D01*
X140950000Y-73934830D02*
G75*
G03*
X146500000Y-72389538I2560000J1544830D01*
G01*
X146500000Y-72390462D02*
G75*
G03*
X140950000Y-70845170I-2990000J462D01*
G01*
X146010000Y-72390000D02*
G75*
G03*
X146010000Y-72390000I-2500000J0D01*
G01*
%TO.C,R11*%
X204020000Y-96060000D02*
X207460000Y-96060000D01*
X204020000Y-86820000D02*
X204020000Y-96060000D01*
X205740000Y-96750000D02*
X205740000Y-96060000D01*
X205740000Y-86130000D02*
X205740000Y-86820000D01*
X207460000Y-96060000D02*
X207460000Y-86820000D01*
X207460000Y-86820000D02*
X204020000Y-86820000D01*
%TO.C,R8*%
X104950000Y-121470000D02*
X95710000Y-121470000D01*
X104950000Y-124910000D02*
X104950000Y-121470000D01*
X95710000Y-124910000D02*
X104950000Y-124910000D01*
X95020000Y-123190000D02*
X95710000Y-123190000D01*
X95710000Y-121470000D02*
X95710000Y-124910000D01*
X105640000Y-123190000D02*
X104950000Y-123190000D01*
%TO.C,D39*%
X177780000Y-53065000D02*
X177780000Y-56155000D01*
X177780000Y-56154830D02*
G75*
G03*
X183330000Y-54609538I2560000J1544830D01*
G01*
X183330000Y-54610462D02*
G75*
G03*
X177780000Y-53065170I-2990000J462D01*
G01*
X182840000Y-54610000D02*
G75*
G03*
X182840000Y-54610000I-2500000J0D01*
G01*
%TO.C,D49*%
X113010000Y-149585000D02*
X113010000Y-152675000D01*
X113010000Y-152674830D02*
G75*
G03*
X118560000Y-151129538I2560000J1544830D01*
G01*
X118560000Y-151130462D02*
G75*
G03*
X113010000Y-149585170I-2990000J462D01*
G01*
X118070000Y-151130000D02*
G75*
G03*
X118070000Y-151130000I-2500000J0D01*
G01*
%TO.C,D48*%
X140970011Y-122915000D02*
X140970011Y-126005000D01*
X140970011Y-126004830D02*
G75*
G03*
X146520011Y-124459538I2560000J1544830D01*
G01*
X146520011Y-124460462D02*
G75*
G03*
X140970011Y-122915170I-2990000J462D01*
G01*
X146030011Y-124460000D02*
G75*
G03*
X146030011Y-124460000I-2500000J0D01*
G01*
%TO.C,D57*%
X130790000Y-131805000D02*
X130790000Y-134895000D01*
X130790000Y-134894830D02*
G75*
G03*
X136340000Y-133349538I2560000J1544830D01*
G01*
X136340000Y-133350462D02*
G75*
G03*
X130790000Y-131805170I-2990000J462D01*
G01*
X135850000Y-133350000D02*
G75*
G03*
X135850000Y-133350000I-2500000J0D01*
G01*
%TO.C,Q6*%
X198700000Y-131340000D02*
X198700000Y-127740000D01*
X194249999Y-129540000D02*
G75*
G03*
X198688478Y-131378478I2600001J0D01*
G01*
X198688478Y-127701522D02*
G75*
G03*
X194250000Y-129540000I-1838478J-1838478D01*
G01*
%TO.C,D9*%
X113010000Y-61955000D02*
X113010000Y-65045000D01*
X113010000Y-65044830D02*
G75*
G03*
X118560000Y-63499538I2560000J1544830D01*
G01*
X118560000Y-63500462D02*
G75*
G03*
X113010000Y-61955170I-2990000J462D01*
G01*
X118070000Y-63500000D02*
G75*
G03*
X118070000Y-63500000I-2500000J0D01*
G01*
%TO.C,D55*%
X130790000Y-122915000D02*
X130790000Y-126005000D01*
X130790000Y-126004830D02*
G75*
G03*
X136340000Y-124459538I2560000J1544830D01*
G01*
X136340000Y-124460462D02*
G75*
G03*
X130790000Y-122915170I-2990000J462D01*
G01*
X135850000Y-124460000D02*
G75*
G03*
X135850000Y-124460000I-2500000J0D01*
G01*
%TD*%
M02*
