M48
; DRILL file {KiCad (6.0.2)} date Thu Apr  7 11:24:44 2022
; FORMAT={-:-/ absolute / inch / decimal}
; #@! TF.CreationDate,2022-04-07T11:24:44-04:00
; #@! TF.GenerationSoftware,Kicad,Pcbnew,(6.0.2)
; #@! TF.FileFunction,Plated,1,2,PTH
FMAT,2
INCH
; #@! TA.AperFunction,Plated,PTH,ComponentDrill
T1C0.0236
; #@! TA.AperFunction,Plated,PTH,ComponentDrill
T2C0.0295
; #@! TA.AperFunction,Plated,PTH,ComponentDrill
T3C0.0315
; #@! TA.AperFunction,Plated,PTH,ComponentDrill
T4C0.0354
%
G90
G05
T1
X8.05Y-2.3
X8.05Y-2.3787
X8.05Y-2.55
X8.05Y-2.6287
X8.05Y-2.8
X8.05Y-2.8787
X8.05Y-4.8
X8.05Y-4.8787
X8.05Y-5.05
X8.05Y-5.1287
X8.05Y-5.3
X8.05Y-5.3787
X8.45Y-4.5
X8.45Y-4.5787
T2
X7.75Y-2.3
X7.75Y-2.35
X7.75Y-2.4
X7.75Y-2.55
X7.75Y-2.6
X7.75Y-2.65
X7.75Y-2.8
X7.75Y-2.85
X7.75Y-2.9
X7.75Y-4.8
X7.75Y-4.85
X7.75Y-4.9
X7.75Y-5.05
X7.75Y-5.1
X7.75Y-5.15
X7.75Y-5.3
X7.75Y-5.35
X7.75Y-5.4
T3
X3.7Y-2.45
X3.7Y-2.65
X3.7Y-2.85
X3.7Y-4.65
X3.7Y-4.85
X3.7Y-5.05
X4.2Y-2.45
X4.2Y-2.65
X4.2Y-2.85
X4.2Y-4.65
X4.2Y-4.85
X4.2Y-5.05
X6.65Y-3.3496
X6.65Y-3.4496
X6.65Y-3.5496
X6.65Y-3.6496
X6.65Y-3.7496
X6.65Y-3.8496
X6.65Y-3.9496
X6.65Y-4.0496
X6.95Y-3.3496
X6.95Y-3.4496
X6.95Y-3.5496
X6.95Y-3.6496
X6.95Y-3.7496
X6.95Y-3.8496
X6.95Y-3.9496
X6.95Y-4.0496
X7.1504Y-3.3496
X7.1504Y-3.4496
X7.1504Y-3.5496
X7.1504Y-3.6496
X7.1504Y-3.7496
X7.1504Y-3.8496
X7.1504Y-3.9496
X7.4504Y-3.3496
X7.4504Y-3.4496
X7.4504Y-3.5496
X7.4504Y-3.6496
X7.4504Y-3.7496
X7.4504Y-3.8496
X7.4504Y-3.9496
X7.7Y-3.35
X7.7Y-3.85
X7.7Y-4.15
X7.7Y-4.65
X7.9Y-3.35
X7.9Y-3.85
X7.9Y-4.15
X7.9Y-4.65
X8.1Y-3.35
X8.1Y-3.85
X8.1Y-4.15
X8.1Y-4.65
X8.3504Y-3.3504
X8.3504Y-3.4504
X8.3504Y-3.5504
X8.3504Y-3.6504
X8.5Y-4.0
X8.6504Y-3.3504
X8.6504Y-3.4504
X8.6504Y-3.5504
X8.6504Y-3.6504
X9.0Y-3.35
X9.0Y-3.85
X9.0Y-4.0
T4
X4.5Y-1.45
X4.5Y-1.8
X4.5Y-2.15
X4.5Y-2.5
X4.5Y-2.85
X4.5Y-4.55
X4.5Y-4.9
X4.5Y-5.25
X4.5Y-5.6
X4.5Y-5.95
X4.6Y-1.45
X4.6Y-1.8
X4.6Y-2.15
X4.6Y-2.5
X4.6Y-2.85
X4.6Y-4.55
X4.6Y-4.9
X4.6Y-5.25
X4.6Y-5.6
X4.6Y-5.95
X4.85Y-1.45
X4.85Y-2.15
X4.85Y-2.85
X4.85Y-4.55
X4.85Y-5.95
X4.95Y-1.45
X4.95Y-2.15
X4.95Y-2.85
X4.95Y-4.55
X4.95Y-5.95
X5.2Y-1.45
X5.2Y-2.15
X5.2Y-2.85
X5.2Y-4.55
X5.2Y-4.9
X5.2Y-5.25
X5.2Y-5.6
X5.2Y-5.95
X5.3Y-1.45
X5.3Y-2.15
X5.3Y-2.85
X5.3Y-4.55
X5.3Y-4.9
X5.3Y-5.25
X5.3Y-5.6
X5.3Y-5.95
X5.35Y-3.5031
X5.35Y-3.6016
X5.35Y-3.7
X5.6Y-1.45
X5.6Y-1.8
X5.6Y-2.15
X5.6Y-2.5
X5.6Y-2.85
X5.6008Y-4.55
X5.6008Y-4.9
X5.6008Y-5.25
X5.6008Y-5.95
X5.7Y-1.45
X5.7Y-1.8
X5.7Y-2.15
X5.7Y-2.5
X5.7Y-2.85
X5.7008Y-4.55
X5.7008Y-4.9
X5.7008Y-5.25
X5.7008Y-5.95
X5.95Y-1.45
X5.95Y-2.85
X5.9508Y-4.55
X5.9508Y-5.25
X5.9508Y-5.95
X6.05Y-1.45
X6.05Y-2.85
X6.0508Y-4.55
X6.0508Y-5.25
X6.0508Y-5.95
X6.3Y-1.45
X6.3Y-2.85
X6.3008Y-4.55
X6.3008Y-5.25
X6.3008Y-5.6
X6.3008Y-5.95
X6.4Y-1.45
X6.4Y-2.85
X6.4008Y-4.55
X6.4008Y-5.25
X6.4008Y-5.6
X6.4008Y-5.95
X6.7Y-1.45
X6.7Y-1.8
X6.7Y-2.15
X6.7Y-2.5
X6.7Y-2.85
X6.7Y-4.55
X6.7Y-4.9
X6.7Y-5.25
X6.7Y-5.6
X6.7Y-5.95
X6.8Y-1.45
X6.8Y-1.8
X6.8Y-2.15
X6.8Y-2.5
X6.8Y-2.85
X6.8Y-4.55
X6.8Y-4.9
X6.8Y-5.25
X6.8Y-5.6
X6.8Y-5.95
X7.05Y-1.45
X7.05Y-2.15
X7.05Y-2.85
X7.05Y-5.95
X7.15Y-1.45
X7.15Y-2.15
X7.15Y-2.85
X7.15Y-5.95
X7.4Y-1.45
X7.4Y-2.15
X7.4Y-2.85
X7.4Y-4.55
X7.4Y-4.9
X7.4Y-5.25
X7.4Y-5.6
X7.4Y-5.95
X7.5Y-1.45
X7.5Y-2.15
X7.5Y-2.85
X7.5Y-4.55
X7.5Y-4.9
X7.5Y-5.25
X7.5Y-5.6
X7.5Y-5.95
T2
G00X5.1469Y-3.4561
M15
G01X5.1469Y-3.5171
M16
G05
G00X5.1469Y-3.9659
M15
G01X5.1469Y-4.027
M16
G05
T0
M30
