%TF.GenerationSoftware,KiCad,Pcbnew,(6.0.2)*%
%TF.CreationDate,2022-04-07T11:24:37-04:00*%
%TF.ProjectId,Grad_Cap_v2,47726164-5f43-4617-905f-76322e6b6963,v01*%
%TF.SameCoordinates,Original*%
%TF.FileFunction,Copper,L1,Top*%
%TF.FilePolarity,Positive*%
%FSLAX46Y46*%
G04 Gerber Fmt 4.6, Leading zero omitted, Abs format (unit mm)*
G04 Created by KiCad (PCBNEW (6.0.2)) date 2022-04-07 11:24:37*
%MOMM*%
%LPD*%
G01*
G04 APERTURE LIST*
%TA.AperFunction,ComponentPad*%
%ADD10R,1.600000X1.600000*%
%TD*%
%TA.AperFunction,ComponentPad*%
%ADD11O,1.600000X1.600000*%
%TD*%
%TA.AperFunction,ComponentPad*%
%ADD12R,1.800000X1.800000*%
%TD*%
%TA.AperFunction,ComponentPad*%
%ADD13C,1.800000*%
%TD*%
%TA.AperFunction,ComponentPad*%
%ADD14R,1.200000X1.200000*%
%TD*%
%TA.AperFunction,ComponentPad*%
%ADD15C,1.200000*%
%TD*%
%TA.AperFunction,ComponentPad*%
%ADD16C,1.600000*%
%TD*%
%TA.AperFunction,ComponentPad*%
%ADD17R,1.500000X1.050000*%
%TD*%
%TA.AperFunction,ComponentPad*%
%ADD18O,1.500000X1.050000*%
%TD*%
%TA.AperFunction,ComponentPad*%
%ADD19O,1.750000X3.300000*%
%TD*%
%TA.AperFunction,ComponentPad*%
%ADD20R,1.900000X1.900000*%
%TD*%
%TA.AperFunction,ComponentPad*%
%ADD21C,1.900000*%
%TD*%
%TA.AperFunction,Conductor*%
%ADD22C,0.762000*%
%TD*%
%TA.AperFunction,Conductor*%
%ADD23C,0.381000*%
%TD*%
%TA.AperFunction,Conductor*%
%ADD24C,0.250000*%
%TD*%
G04 APERTURE END LIST*
D10*
%TO.P,U3,1,DSA*%
%TO.N,Net-(U2-Pad7)*%
X181620000Y-85080000D03*
D11*
%TO.P,U3,2,DSB*%
X181620000Y-87620000D03*
%TO.P,U3,3,Q0*%
%TO.N,Net-(R10-Pad1)*%
X181620000Y-90160000D03*
%TO.P,U3,4,Q1*%
%TO.N,Net-(R11-Pad1)*%
X181620000Y-92700000D03*
%TO.P,U3,5,Q2*%
%TO.N,Net-(R12-Pad1)*%
X181620000Y-95240000D03*
%TO.P,U3,6,Q3*%
%TO.N,Net-(R13-Pad1)*%
X181620000Y-97780000D03*
%TO.P,U3,7,GND*%
%TO.N,GND*%
X181620000Y-100320000D03*
%TO.P,U3,8,CP*%
%TO.N,Net-(U1-Pad3)*%
X189240000Y-100320000D03*
%TO.P,U3,9,~{MR}*%
%TO.N,VCC*%
X189240000Y-97780000D03*
%TO.P,U3,10,Q4*%
%TO.N,Net-(R14-Pad1)*%
X189240000Y-95240000D03*
%TO.P,U3,11,Q5*%
%TO.N,Net-(R9-Pad1)*%
X189240000Y-92700000D03*
%TO.P,U3,12,Q6*%
%TO.N,unconnected-(U3-Pad12)*%
X189240000Y-90160000D03*
%TO.P,U3,13,Q7*%
%TO.N,unconnected-(U3-Pad13)*%
X189240000Y-87620000D03*
%TO.P,U3,14,VCC*%
%TO.N,VCC*%
X189240000Y-85080000D03*
%TD*%
D12*
%TO.P,D30,1,K*%
%TO.N,Net-(C4-Pad1)*%
X151130000Y-72390000D03*
D13*
%TO.P,D30,2,A*%
%TO.N,Net-(D23-Pad2)*%
X153670000Y-72390000D03*
%TD*%
D12*
%TO.P,D4,1,K*%
%TO.N,Net-(C2-Pad1)*%
X170180000Y-133350000D03*
D13*
%TO.P,D4,2,A*%
%TO.N,Net-(D1-Pad2)*%
X172720000Y-133350000D03*
%TD*%
D12*
%TO.P,D32,1,K*%
%TO.N,Net-(C5-Pad1)*%
X170180000Y-36830000D03*
D13*
%TO.P,D32,2,A*%
%TO.N,Net-(D32-Pad2)*%
X172720000Y-36830000D03*
%TD*%
D14*
%TO.P,C7,1*%
%TO.N,Net-(C7-Pad1)*%
X204470000Y-128270000D03*
D15*
%TO.P,C7,2*%
%TO.N,GND*%
X204470000Y-130270000D03*
%TD*%
D10*
%TO.P,U1,1,GND*%
%TO.N,GND*%
X212100000Y-85100000D03*
D11*
%TO.P,U1,2,TR*%
%TO.N,Net-(C1-Pad1)*%
X212100000Y-87640000D03*
%TO.P,U1,3,Q*%
%TO.N,Net-(U1-Pad3)*%
X212100000Y-90180000D03*
%TO.P,U1,4,R*%
%TO.N,unconnected-(U1-Pad4)*%
X212100000Y-92720000D03*
%TO.P,U1,5,CV*%
%TO.N,unconnected-(U1-Pad5)*%
X219720000Y-92720000D03*
%TO.P,U1,6,THR*%
%TO.N,Net-(C1-Pad1)*%
X219720000Y-90180000D03*
%TO.P,U1,7,DIS*%
%TO.N,Net-(R3-Pad2)*%
X219720000Y-87640000D03*
%TO.P,U1,8,VCC*%
%TO.N,VCC*%
X219720000Y-85100000D03*
%TD*%
D12*
%TO.P,D18,1,K*%
%TO.N,Net-(C2-Pad1)*%
X187960000Y-124460000D03*
D13*
%TO.P,D18,2,A*%
%TO.N,Net-(D1-Pad2)*%
X190500000Y-124460000D03*
%TD*%
D12*
%TO.P,D20,1,K*%
%TO.N,Net-(C2-Pad1)*%
X187960000Y-115570000D03*
D13*
%TO.P,D20,2,A*%
%TO.N,Net-(D1-Pad2)*%
X190500000Y-115570000D03*
%TD*%
D12*
%TO.P,D14,1,K*%
%TO.N,Net-(C2-Pad1)*%
X187960000Y-151130000D03*
D13*
%TO.P,D14,2,A*%
%TO.N,Net-(D1-Pad2)*%
X190500000Y-151130000D03*
%TD*%
D12*
%TO.P,D3,1,K*%
%TO.N,Net-(C3-Pad1)*%
X114300000Y-36830000D03*
D13*
%TO.P,D3,2,A*%
%TO.N,Net-(D11-Pad2)*%
X116840000Y-36830000D03*
%TD*%
D12*
%TO.P,D47,1,K*%
%TO.N,Net-(C6-Pad1)*%
X114300000Y-142240000D03*
D13*
%TO.P,D47,2,A*%
%TO.N,Net-(D42-Pad2)*%
X116840000Y-142240000D03*
%TD*%
D12*
%TO.P,D63,1,K*%
%TO.N,Net-(C6-Pad1)*%
X123190000Y-151130000D03*
D13*
%TO.P,D63,2,A*%
%TO.N,Net-(D42-Pad2)*%
X125730000Y-151130000D03*
%TD*%
D14*
%TO.P,C3,1*%
%TO.N,Net-(C3-Pad1)*%
X204470000Y-71120000D03*
D15*
%TO.P,C3,2*%
%TO.N,GND*%
X204470000Y-73120000D03*
%TD*%
D12*
%TO.P,D5,1,K*%
%TO.N,Net-(C3-Pad1)*%
X114300000Y-45720000D03*
D13*
%TO.P,D5,2,A*%
%TO.N,Net-(D11-Pad2)*%
X116840000Y-45720000D03*
%TD*%
D12*
%TO.P,D33,1,K*%
%TO.N,Net-(C5-Pad1)*%
X170180000Y-45720000D03*
D13*
%TO.P,D33,2,A*%
%TO.N,Net-(D32-Pad2)*%
X172720000Y-45720000D03*
%TD*%
D14*
%TO.P,C6,1*%
%TO.N,Net-(C6-Pad1)*%
X204470000Y-134620000D03*
D15*
%TO.P,C6,2*%
%TO.N,GND*%
X204470000Y-136620000D03*
%TD*%
D12*
%TO.P,D25,1,K*%
%TO.N,Net-(C4-Pad1)*%
X142240000Y-54610000D03*
D13*
%TO.P,D25,2,A*%
%TO.N,Net-(D23-Pad2)*%
X144780000Y-54610000D03*
%TD*%
D16*
%TO.P,R6,1*%
%TO.N,VCC*%
X93980000Y-62230000D03*
D11*
%TO.P,R6,2*%
%TO.N,Net-(D32-Pad2)*%
X106680000Y-62230000D03*
%TD*%
D14*
%TO.P,C1,1*%
%TO.N,Net-(C1-Pad1)*%
X214630000Y-114300000D03*
D15*
%TO.P,C1,2*%
%TO.N,GND*%
X214630000Y-116300000D03*
%TD*%
D16*
%TO.P,R13,1*%
%TO.N,Net-(R13-Pad1)*%
X195580000Y-105410000D03*
D11*
%TO.P,R13,2*%
%TO.N,Net-(Q5-Pad2)*%
X195580000Y-118110000D03*
%TD*%
D12*
%TO.P,D38,1,K*%
%TO.N,Net-(C5-Pad1)*%
X187960000Y-36830000D03*
D13*
%TO.P,D38,2,A*%
%TO.N,Net-(D32-Pad2)*%
X190500000Y-36830000D03*
%TD*%
D12*
%TO.P,D16,1,K*%
%TO.N,Net-(C2-Pad1)*%
X187960000Y-133350000D03*
D13*
%TO.P,D16,2,A*%
%TO.N,Net-(D1-Pad2)*%
X190500000Y-133350000D03*
%TD*%
D12*
%TO.P,D51,1,K*%
%TO.N,Net-(C6-Pad1)*%
X123190000Y-115570000D03*
D13*
%TO.P,D51,2,A*%
%TO.N,Net-(D42-Pad2)*%
X125730000Y-115570000D03*
%TD*%
D12*
%TO.P,D40,1,K*%
%TO.N,Net-(C5-Pad1)*%
X187960000Y-54610000D03*
D13*
%TO.P,D40,2,A*%
%TO.N,Net-(D32-Pad2)*%
X190500000Y-54610000D03*
%TD*%
D16*
%TO.P,R3,1*%
%TO.N,VCC*%
X228600000Y-85090000D03*
D11*
%TO.P,R3,2*%
%TO.N,Net-(R3-Pad2)*%
X228600000Y-97790000D03*
%TD*%
D12*
%TO.P,D24,1,K*%
%TO.N,Net-(C4-Pad1)*%
X142240000Y-45720000D03*
D13*
%TO.P,D24,2,A*%
%TO.N,Net-(D23-Pad2)*%
X144780000Y-45720000D03*
%TD*%
D14*
%TO.P,C2,1*%
%TO.N,Net-(C2-Pad1)*%
X204470000Y-121920000D03*
D15*
%TO.P,C2,2*%
%TO.N,GND*%
X204470000Y-123920000D03*
%TD*%
D14*
%TO.P,C5,1*%
%TO.N,Net-(C5-Pad1)*%
X204470000Y-58420000D03*
D15*
%TO.P,C5,2*%
%TO.N,GND*%
X204470000Y-60420000D03*
%TD*%
D12*
%TO.P,D28,1,K*%
%TO.N,Net-(C4-Pad1)*%
X151130000Y-36830000D03*
D13*
%TO.P,D28,2,A*%
%TO.N,Net-(D23-Pad2)*%
X153670000Y-36830000D03*
%TD*%
D12*
%TO.P,D22,1,K*%
%TO.N,Net-(C3-Pad1)*%
X132080000Y-72390000D03*
D13*
%TO.P,D22,2,A*%
%TO.N,Net-(D11-Pad2)*%
X134620000Y-72390000D03*
%TD*%
D12*
%TO.P,D15,1,K*%
%TO.N,Net-(C3-Pad1)*%
X132080000Y-36830000D03*
D13*
%TO.P,D15,2,A*%
%TO.N,Net-(D11-Pad2)*%
X134620000Y-36830000D03*
%TD*%
D12*
%TO.P,D1,1,K*%
%TO.N,Net-(C2-Pad1)*%
X170180000Y-115570000D03*
D13*
%TO.P,D1,2,A*%
%TO.N,Net-(D1-Pad2)*%
X172720000Y-115570000D03*
%TD*%
D17*
%TO.P,Q1,1,E*%
%TO.N,GND*%
X196850000Y-124460000D03*
D18*
%TO.P,Q1,2,B*%
%TO.N,Net-(Q1-Pad2)*%
X196850000Y-123190000D03*
%TO.P,Q1,3,C*%
%TO.N,Net-(C2-Pad1)*%
X196850000Y-121920000D03*
%TD*%
D12*
%TO.P,D64,1,K*%
%TO.N,Net-(C7-Pad1)*%
X151150011Y-151130000D03*
D13*
%TO.P,D64,2,A*%
%TO.N,Net-(D46-Pad2)*%
X153690011Y-151130000D03*
%TD*%
D12*
%TO.P,D50,1,K*%
%TO.N,Net-(C7-Pad1)*%
X142260011Y-133350000D03*
D13*
%TO.P,D50,2,A*%
%TO.N,Net-(D46-Pad2)*%
X144800011Y-133350000D03*
%TD*%
D12*
%TO.P,D60,1,K*%
%TO.N,Net-(C7-Pad1)*%
X151150011Y-115570000D03*
D13*
%TO.P,D60,2,A*%
%TO.N,Net-(D46-Pad2)*%
X153690011Y-115570000D03*
%TD*%
D12*
%TO.P,D37,1,K*%
%TO.N,Net-(C5-Pad1)*%
X179070000Y-36830000D03*
D13*
%TO.P,D37,2,A*%
%TO.N,Net-(D32-Pad2)*%
X181610000Y-36830000D03*
%TD*%
D12*
%TO.P,D61,1,K*%
%TO.N,Net-(C6-Pad1)*%
X132080000Y-151130000D03*
D13*
%TO.P,D61,2,A*%
%TO.N,Net-(D42-Pad2)*%
X134620000Y-151130000D03*
%TD*%
D12*
%TO.P,D58,1,K*%
%TO.N,Net-(C7-Pad1)*%
X160040011Y-151130000D03*
D13*
%TO.P,D58,2,A*%
%TO.N,Net-(D46-Pad2)*%
X162580011Y-151130000D03*
%TD*%
D12*
%TO.P,D44,1,K*%
%TO.N,Net-(C6-Pad1)*%
X114300000Y-124460000D03*
D13*
%TO.P,D44,2,A*%
%TO.N,Net-(D42-Pad2)*%
X116840000Y-124460000D03*
%TD*%
D17*
%TO.P,Q5,1,E*%
%TO.N,GND*%
X196850000Y-137160000D03*
D18*
%TO.P,Q5,2,B*%
%TO.N,Net-(Q5-Pad2)*%
X196850000Y-135890000D03*
%TO.P,Q5,3,C*%
%TO.N,Net-(C6-Pad1)*%
X196850000Y-134620000D03*
%TD*%
D12*
%TO.P,D21,1,K*%
%TO.N,Net-(C3-Pad1)*%
X132080000Y-54610000D03*
D13*
%TO.P,D21,2,A*%
%TO.N,Net-(D11-Pad2)*%
X134620000Y-54610000D03*
%TD*%
D12*
%TO.P,D36,1,K*%
%TO.N,Net-(C5-Pad1)*%
X170180000Y-72390000D03*
D13*
%TO.P,D36,2,A*%
%TO.N,Net-(D32-Pad2)*%
X172720000Y-72390000D03*
%TD*%
D12*
%TO.P,D31,1,K*%
%TO.N,Net-(C4-Pad1)*%
X160020000Y-72390000D03*
D13*
%TO.P,D31,2,A*%
%TO.N,Net-(D23-Pad2)*%
X162560000Y-72390000D03*
%TD*%
D16*
%TO.P,R10,1*%
%TO.N,Net-(R10-Pad1)*%
X200660000Y-97790000D03*
D11*
%TO.P,R10,2*%
%TO.N,Net-(Q2-Pad2)*%
X200660000Y-85090000D03*
%TD*%
D17*
%TO.P,Q2,1,E*%
%TO.N,GND*%
X196850000Y-73660000D03*
D18*
%TO.P,Q2,2,B*%
%TO.N,Net-(Q2-Pad2)*%
X196850000Y-72390000D03*
%TO.P,Q2,3,C*%
%TO.N,Net-(C3-Pad1)*%
X196850000Y-71120000D03*
%TD*%
D12*
%TO.P,D35,1,K*%
%TO.N,Net-(C5-Pad1)*%
X170180000Y-63500000D03*
D13*
%TO.P,D35,2,A*%
%TO.N,Net-(D32-Pad2)*%
X172720000Y-63500000D03*
%TD*%
D12*
%TO.P,D29,1,K*%
%TO.N,Net-(C4-Pad1)*%
X160020000Y-36830000D03*
D13*
%TO.P,D29,2,A*%
%TO.N,Net-(D23-Pad2)*%
X162560000Y-36830000D03*
%TD*%
D12*
%TO.P,D52,1,K*%
%TO.N,Net-(C7-Pad1)*%
X151150011Y-133350000D03*
D13*
%TO.P,D52,2,A*%
%TO.N,Net-(D46-Pad2)*%
X153690011Y-133350000D03*
%TD*%
D16*
%TO.P,R2,1*%
%TO.N,VCC*%
X93980000Y-72390000D03*
D11*
%TO.P,R2,2*%
%TO.N,Net-(D11-Pad2)*%
X106680000Y-72390000D03*
%TD*%
D12*
%TO.P,D42,1,K*%
%TO.N,Net-(C6-Pad1)*%
X114300000Y-115570000D03*
D13*
%TO.P,D42,2,A*%
%TO.N,Net-(D42-Pad2)*%
X116840000Y-115570000D03*
%TD*%
D12*
%TO.P,D8,1,K*%
%TO.N,Net-(C2-Pad1)*%
X170180000Y-142240000D03*
D13*
%TO.P,D8,2,A*%
%TO.N,Net-(D1-Pad2)*%
X172720000Y-142240000D03*
%TD*%
D12*
%TO.P,D10,1,K*%
%TO.N,Net-(C2-Pad1)*%
X170180000Y-151130000D03*
D13*
%TO.P,D10,2,A*%
%TO.N,Net-(D1-Pad2)*%
X172720000Y-151130000D03*
%TD*%
D12*
%TO.P,D7,1,K*%
%TO.N,Net-(C3-Pad1)*%
X114300000Y-54610000D03*
D13*
%TO.P,D7,2,A*%
%TO.N,Net-(D11-Pad2)*%
X116840000Y-54610000D03*
%TD*%
D12*
%TO.P,D53,1,K*%
%TO.N,Net-(C6-Pad1)*%
X132080000Y-115570000D03*
D13*
%TO.P,D53,2,A*%
%TO.N,Net-(D42-Pad2)*%
X134620000Y-115570000D03*
%TD*%
D12*
%TO.P,D56,1,K*%
%TO.N,Net-(C7-Pad1)*%
X160040011Y-142240000D03*
D13*
%TO.P,D56,2,A*%
%TO.N,Net-(D46-Pad2)*%
X162580011Y-142240000D03*
%TD*%
D12*
%TO.P,D65,1,K*%
%TO.N,Net-(C7-Pad1)*%
X142260011Y-151130000D03*
D13*
%TO.P,D65,2,A*%
%TO.N,Net-(D46-Pad2)*%
X144800011Y-151130000D03*
%TD*%
D16*
%TO.P,R4,1*%
%TO.N,Net-(R3-Pad2)*%
X228600000Y-101600000D03*
D11*
%TO.P,R4,2*%
%TO.N,Net-(C1-Pad1)*%
X215900000Y-101600000D03*
%TD*%
D12*
%TO.P,D46,1,K*%
%TO.N,Net-(C7-Pad1)*%
X142260011Y-115570000D03*
D13*
%TO.P,D46,2,A*%
%TO.N,Net-(D46-Pad2)*%
X144800011Y-115570000D03*
%TD*%
D12*
%TO.P,D54,1,K*%
%TO.N,Net-(C7-Pad1)*%
X160040011Y-133350000D03*
D13*
%TO.P,D54,2,A*%
%TO.N,Net-(D46-Pad2)*%
X162580011Y-133350000D03*
%TD*%
D12*
%TO.P,D41,1,K*%
%TO.N,Net-(C5-Pad1)*%
X179070000Y-72390000D03*
D13*
%TO.P,D41,2,A*%
%TO.N,Net-(D32-Pad2)*%
X181610000Y-72390000D03*
%TD*%
D12*
%TO.P,D43,1,K*%
%TO.N,Net-(C5-Pad1)*%
X187960000Y-72390000D03*
D13*
%TO.P,D43,2,A*%
%TO.N,Net-(D32-Pad2)*%
X190500000Y-72390000D03*
%TD*%
D16*
%TO.P,R1,1*%
%TO.N,VCC*%
X93980000Y-118110000D03*
D11*
%TO.P,R1,2*%
%TO.N,Net-(D1-Pad2)*%
X106680000Y-118110000D03*
%TD*%
D17*
%TO.P,Q4,1,E*%
%TO.N,GND*%
X196850000Y-60960000D03*
D18*
%TO.P,Q4,2,B*%
%TO.N,Net-(Q4-Pad2)*%
X196850000Y-59690000D03*
%TO.P,Q4,3,C*%
%TO.N,Net-(C5-Pad1)*%
X196850000Y-58420000D03*
%TD*%
D12*
%TO.P,D23,1,K*%
%TO.N,Net-(C4-Pad1)*%
X142240000Y-36830000D03*
D13*
%TO.P,D23,2,A*%
%TO.N,Net-(D23-Pad2)*%
X144780000Y-36830000D03*
%TD*%
D19*
%TO.P,BAT1,NEG*%
%TO.N,GND*%
X130730000Y-101510000D03*
%TO.P,BAT1,POS*%
%TO.N,Net-(BAT1-PadPOS)*%
X130730000Y-88560000D03*
%TD*%
D12*
%TO.P,D19,1,K*%
%TO.N,Net-(C3-Pad1)*%
X123190000Y-54610000D03*
D13*
%TO.P,D19,2,A*%
%TO.N,Net-(D11-Pad2)*%
X125730000Y-54610000D03*
%TD*%
D20*
%TO.P,S1,1*%
%TO.N,unconnected-(S1-Pad1)*%
X135890000Y-93980000D03*
D21*
%TO.P,S1,2*%
%TO.N,VCC*%
X135890000Y-91480000D03*
%TO.P,S1,3*%
%TO.N,Net-(BAT1-PadPOS)*%
X135890000Y-88980000D03*
%TD*%
D12*
%TO.P,D13,1,K*%
%TO.N,Net-(C3-Pad1)*%
X123190000Y-72390000D03*
D13*
%TO.P,D13,2,A*%
%TO.N,Net-(D11-Pad2)*%
X125730000Y-72390000D03*
%TD*%
D12*
%TO.P,D12,1,K*%
%TO.N,Net-(C2-Pad1)*%
X179070000Y-151130000D03*
D13*
%TO.P,D12,2,A*%
%TO.N,Net-(D1-Pad2)*%
X181610000Y-151130000D03*
%TD*%
D12*
%TO.P,D11,1,K*%
%TO.N,Net-(C3-Pad1)*%
X114300000Y-72390000D03*
D13*
%TO.P,D11,2,A*%
%TO.N,Net-(D11-Pad2)*%
X116840000Y-72390000D03*
%TD*%
D12*
%TO.P,D6,1,K*%
%TO.N,Net-(C2-Pad1)*%
X187960000Y-142240000D03*
D13*
%TO.P,D6,2,A*%
%TO.N,Net-(D1-Pad2)*%
X190500000Y-142240000D03*
%TD*%
D12*
%TO.P,D59,1,K*%
%TO.N,Net-(C6-Pad1)*%
X132080000Y-142240000D03*
D13*
%TO.P,D59,2,A*%
%TO.N,Net-(D42-Pad2)*%
X134620000Y-142240000D03*
%TD*%
D14*
%TO.P,C4,1*%
%TO.N,Net-(C4-Pad1)*%
X204470000Y-64770000D03*
D15*
%TO.P,C4,2*%
%TO.N,GND*%
X204470000Y-66770000D03*
%TD*%
D12*
%TO.P,D26,1,K*%
%TO.N,Net-(C4-Pad1)*%
X142240000Y-63500000D03*
D13*
%TO.P,D26,2,A*%
%TO.N,Net-(D23-Pad2)*%
X144780000Y-63500000D03*
%TD*%
D10*
%TO.P,U2,1,B*%
%TO.N,unconnected-(U2-Pad1)*%
X168910000Y-85080000D03*
D11*
%TO.P,U2,2,QB*%
%TO.N,unconnected-(U2-Pad2)*%
X168910000Y-87620000D03*
%TO.P,U2,3,QA*%
%TO.N,unconnected-(U2-Pad3)*%
X168910000Y-90160000D03*
%TO.P,U2,4,DOWN*%
%TO.N,VCC*%
X168910000Y-92700000D03*
%TO.P,U2,5,UP*%
%TO.N,Net-(U1-Pad3)*%
X168910000Y-95240000D03*
%TO.P,U2,6,QC*%
%TO.N,unconnected-(U2-Pad6)*%
X168910000Y-97780000D03*
%TO.P,U2,7,QD*%
%TO.N,Net-(U2-Pad7)*%
X168910000Y-100320000D03*
%TO.P,U2,8,GND*%
%TO.N,GND*%
X168910000Y-102860000D03*
%TO.P,U2,9,D*%
%TO.N,unconnected-(U2-Pad9)*%
X176530000Y-102860000D03*
%TO.P,U2,10,C*%
%TO.N,unconnected-(U2-Pad10)*%
X176530000Y-100320000D03*
%TO.P,U2,11,~{LOAD}*%
%TO.N,VCC*%
X176530000Y-97780000D03*
%TO.P,U2,12,~{CO}*%
%TO.N,unconnected-(U2-Pad12)*%
X176530000Y-95240000D03*
%TO.P,U2,13,~{BO}*%
%TO.N,unconnected-(U2-Pad13)*%
X176530000Y-92700000D03*
%TO.P,U2,14,CLR*%
%TO.N,GND*%
X176530000Y-90160000D03*
%TO.P,U2,15,A*%
%TO.N,unconnected-(U2-Pad15)*%
X176530000Y-87620000D03*
%TO.P,U2,16,VCC*%
%TO.N,VCC*%
X176530000Y-85080000D03*
%TD*%
D12*
%TO.P,D62,1,K*%
%TO.N,Net-(C7-Pad1)*%
X160040011Y-115570000D03*
D13*
%TO.P,D62,2,A*%
%TO.N,Net-(D46-Pad2)*%
X162580011Y-115570000D03*
%TD*%
D12*
%TO.P,D34,1,K*%
%TO.N,Net-(C5-Pad1)*%
X170180000Y-54610000D03*
D13*
%TO.P,D34,2,A*%
%TO.N,Net-(D32-Pad2)*%
X172720000Y-54610000D03*
%TD*%
D12*
%TO.P,D17,1,K*%
%TO.N,Net-(C3-Pad1)*%
X123190000Y-36830000D03*
D13*
%TO.P,D17,2,A*%
%TO.N,Net-(D11-Pad2)*%
X125730000Y-36830000D03*
%TD*%
D16*
%TO.P,R12,1*%
%TO.N,Net-(R12-Pad1)*%
X195580000Y-97790000D03*
D11*
%TO.P,R12,2*%
%TO.N,Net-(Q4-Pad2)*%
X195580000Y-85090000D03*
%TD*%
D16*
%TO.P,R7,1*%
%TO.N,VCC*%
X93980000Y-128270000D03*
D11*
%TO.P,R7,2*%
%TO.N,Net-(D42-Pad2)*%
X106680000Y-128270000D03*
%TD*%
D17*
%TO.P,Q3,1,E*%
%TO.N,GND*%
X196850000Y-67310000D03*
D18*
%TO.P,Q3,2,B*%
%TO.N,Net-(Q3-Pad2)*%
X196850000Y-66040000D03*
%TO.P,Q3,3,C*%
%TO.N,Net-(C4-Pad1)*%
X196850000Y-64770000D03*
%TD*%
D12*
%TO.P,D45,1,K*%
%TO.N,Net-(C6-Pad1)*%
X114300000Y-133350000D03*
D13*
%TO.P,D45,2,A*%
%TO.N,Net-(D42-Pad2)*%
X116840000Y-133350000D03*
%TD*%
D16*
%TO.P,R5,1*%
%TO.N,VCC*%
X93980000Y-67310000D03*
D11*
%TO.P,R5,2*%
%TO.N,Net-(D23-Pad2)*%
X106680000Y-67310000D03*
%TD*%
D16*
%TO.P,R14,1*%
%TO.N,Net-(R14-Pad1)*%
X200660000Y-105410000D03*
D11*
%TO.P,R14,2*%
%TO.N,Net-(Q6-Pad2)*%
X200660000Y-118110000D03*
%TD*%
D16*
%TO.P,R9,1*%
%TO.N,Net-(R9-Pad1)*%
X205740000Y-105410000D03*
D11*
%TO.P,R9,2*%
%TO.N,Net-(Q1-Pad2)*%
X205740000Y-118110000D03*
%TD*%
D12*
%TO.P,D2,1,K*%
%TO.N,Net-(C2-Pad1)*%
X170180000Y-124460000D03*
D13*
%TO.P,D2,2,A*%
%TO.N,Net-(D1-Pad2)*%
X172720000Y-124460000D03*
%TD*%
D12*
%TO.P,D27,1,K*%
%TO.N,Net-(C4-Pad1)*%
X142240000Y-72390000D03*
D13*
%TO.P,D27,2,A*%
%TO.N,Net-(D23-Pad2)*%
X144780000Y-72390000D03*
%TD*%
D16*
%TO.P,R11,1*%
%TO.N,Net-(R11-Pad1)*%
X205740000Y-97790000D03*
D11*
%TO.P,R11,2*%
%TO.N,Net-(Q3-Pad2)*%
X205740000Y-85090000D03*
%TD*%
D16*
%TO.P,R8,1*%
%TO.N,VCC*%
X93980000Y-123190000D03*
D11*
%TO.P,R8,2*%
%TO.N,Net-(D46-Pad2)*%
X106680000Y-123190000D03*
%TD*%
D12*
%TO.P,D39,1,K*%
%TO.N,Net-(C5-Pad1)*%
X179070000Y-54610000D03*
D13*
%TO.P,D39,2,A*%
%TO.N,Net-(D32-Pad2)*%
X181610000Y-54610000D03*
%TD*%
D12*
%TO.P,D49,1,K*%
%TO.N,Net-(C6-Pad1)*%
X114300000Y-151130000D03*
D13*
%TO.P,D49,2,A*%
%TO.N,Net-(D42-Pad2)*%
X116840000Y-151130000D03*
%TD*%
D12*
%TO.P,D48,1,K*%
%TO.N,Net-(C7-Pad1)*%
X142260011Y-124460000D03*
D13*
%TO.P,D48,2,A*%
%TO.N,Net-(D46-Pad2)*%
X144800011Y-124460000D03*
%TD*%
D12*
%TO.P,D57,1,K*%
%TO.N,Net-(C6-Pad1)*%
X132080000Y-133350000D03*
D13*
%TO.P,D57,2,A*%
%TO.N,Net-(D42-Pad2)*%
X134620000Y-133350000D03*
%TD*%
D17*
%TO.P,Q6,1,E*%
%TO.N,GND*%
X196850000Y-130810000D03*
D18*
%TO.P,Q6,2,B*%
%TO.N,Net-(Q6-Pad2)*%
X196850000Y-129540000D03*
%TO.P,Q6,3,C*%
%TO.N,Net-(C7-Pad1)*%
X196850000Y-128270000D03*
%TD*%
D12*
%TO.P,D9,1,K*%
%TO.N,Net-(C3-Pad1)*%
X114300000Y-63500000D03*
D13*
%TO.P,D9,2,A*%
%TO.N,Net-(D11-Pad2)*%
X116840000Y-63500000D03*
%TD*%
D12*
%TO.P,D55,1,K*%
%TO.N,Net-(C6-Pad1)*%
X132080000Y-124460000D03*
D13*
%TO.P,D55,2,A*%
%TO.N,Net-(D42-Pad2)*%
X134620000Y-124460000D03*
%TD*%
D22*
%TO.N,VCC*%
X187859489Y-86460511D02*
X187859489Y-96399489D01*
X187859489Y-96399489D02*
X189240000Y-97780000D01*
X189240000Y-85080000D02*
X187859489Y-86460511D01*
D23*
%TO.N,Net-(R14-Pad1)*%
X190490000Y-95240000D02*
X200660000Y-105410000D01*
X189240000Y-95240000D02*
X190490000Y-95240000D01*
%TO.N,Net-(R9-Pad1)*%
X193030000Y-92700000D02*
X205740000Y-105410000D01*
X189240000Y-92700000D02*
X193030000Y-92700000D01*
D22*
%TO.N,VCC*%
X186710000Y-82550000D02*
X189240000Y-85080000D01*
X177810000Y-85080000D02*
X180340000Y-82550000D01*
X176530000Y-85080000D02*
X177810000Y-85080000D01*
X180340000Y-82550000D02*
X186710000Y-82550000D01*
X113070000Y-91480000D02*
X93980000Y-72390000D01*
X171450000Y-90160000D02*
X176530000Y-85080000D01*
X93980000Y-118110000D02*
X93980000Y-110570000D01*
X167529489Y-91319489D02*
X168910000Y-92700000D01*
X168910000Y-92700000D02*
X171450000Y-92700000D01*
X171450000Y-92700000D02*
X171450000Y-90160000D01*
X167529489Y-87519489D02*
X167529489Y-91319489D01*
X93980000Y-128270000D02*
X93980000Y-123190000D01*
X93980000Y-110570000D02*
X113070000Y-91480000D01*
X93980000Y-67310000D02*
X93980000Y-62230000D01*
X93980000Y-118110000D02*
X93980000Y-123190000D01*
X93980000Y-72390000D02*
X93980000Y-67310000D01*
X171450000Y-92700000D02*
X176530000Y-97780000D01*
X135890000Y-91480000D02*
X113070000Y-91480000D01*
X135890000Y-91480000D02*
X147360000Y-80010000D01*
X147360000Y-80010000D02*
X160020000Y-80010000D01*
X160020000Y-80010000D02*
X167529489Y-87519489D01*
%TO.N,Net-(BAT1-PadPOS)*%
X131150000Y-88980000D02*
X130730000Y-88560000D01*
X135890000Y-88980000D02*
X131150000Y-88980000D01*
%TO.N,GND*%
X204470000Y-123920000D02*
X207010000Y-123920000D01*
X168910000Y-102860000D02*
X170290511Y-104240511D01*
X196850000Y-124460000D02*
X203930000Y-124460000D01*
D23*
X205460011Y-67760011D02*
X205460011Y-72129989D01*
X203930000Y-67310000D02*
X204470000Y-66770000D01*
D22*
X163820000Y-107950000D02*
X168910000Y-102860000D01*
X177910511Y-96610511D02*
X177910511Y-91540511D01*
X140880000Y-101510000D02*
X147320000Y-107950000D01*
X193040000Y-116016240D02*
X193040000Y-122162000D01*
X177910511Y-91540511D02*
X176530000Y-90160000D01*
X195338000Y-124460000D02*
X196850000Y-124460000D01*
D23*
X196850000Y-60960000D02*
X203930000Y-60960000D01*
D22*
X207010000Y-123920000D02*
X214630000Y-116300000D01*
D23*
X203930000Y-130810000D02*
X204470000Y-130270000D01*
X203930000Y-60960000D02*
X204470000Y-60420000D01*
D22*
X205650511Y-125100511D02*
X205650511Y-129938017D01*
X205318528Y-130270000D02*
X204470000Y-130270000D01*
D23*
X196850000Y-137160000D02*
X203930000Y-137160000D01*
D22*
X181264271Y-104240511D02*
X193040000Y-116016240D01*
X177699489Y-104240511D02*
X181264271Y-104240511D01*
D23*
X204470000Y-66770000D02*
X205460011Y-67760011D01*
X196850000Y-130810000D02*
X203930000Y-130810000D01*
X196850000Y-67310000D02*
X203930000Y-67310000D01*
X205460011Y-135629989D02*
X204470000Y-136620000D01*
X204470000Y-73120000D02*
X204470000Y-77470000D01*
D22*
X203930000Y-124460000D02*
X204470000Y-123920000D01*
X177699489Y-104240511D02*
X181620000Y-100320000D01*
D23*
X205460011Y-65779989D02*
X204470000Y-66770000D01*
X204470000Y-60420000D02*
X205460011Y-61410011D01*
X205460011Y-131260011D02*
X205460011Y-135629989D01*
D22*
X205650511Y-129938017D02*
X205318528Y-130270000D01*
X147320000Y-107950000D02*
X163820000Y-107950000D01*
D23*
X205460011Y-72129989D02*
X204470000Y-73120000D01*
X203930000Y-73660000D02*
X204470000Y-73120000D01*
D22*
X204470000Y-123920000D02*
X205650511Y-125100511D01*
D23*
X204470000Y-130270000D02*
X205460011Y-131260011D01*
X196850000Y-73660000D02*
X203930000Y-73660000D01*
X203930000Y-137160000D02*
X204470000Y-136620000D01*
X205460011Y-61410011D02*
X205460011Y-65779989D01*
X204470000Y-77470000D02*
X212100000Y-85100000D01*
D22*
X193040000Y-122162000D02*
X195338000Y-124460000D01*
X170290511Y-104240511D02*
X177699489Y-104240511D01*
X130730000Y-101510000D02*
X140880000Y-101510000D01*
X181620000Y-100320000D02*
X177910511Y-96610511D01*
D23*
%TO.N,Net-(D32-Pad2)*%
X189209989Y-53319989D02*
X190500000Y-54610000D01*
X181610000Y-72390000D02*
X182900011Y-71099989D01*
X172720000Y-54610000D02*
X172720000Y-63500000D01*
X172720000Y-63500000D02*
X172720000Y-72390000D01*
X182900011Y-71099989D02*
X189209989Y-71099989D01*
X189209989Y-71099989D02*
X190500000Y-72390000D01*
X172720000Y-45720000D02*
X172720000Y-54610000D01*
X174010011Y-38120011D02*
X172720000Y-36830000D01*
X182900011Y-38120011D02*
X181610000Y-36830000D01*
X182900011Y-53319989D02*
X189209989Y-53319989D01*
X174010011Y-71099989D02*
X180319989Y-71099989D01*
X180319989Y-71099989D02*
X181610000Y-72390000D01*
X180319989Y-38120011D02*
X174010011Y-38120011D01*
X172720000Y-72390000D02*
X174010011Y-71099989D01*
X181610000Y-54610000D02*
X182900011Y-53319989D01*
X172720000Y-36830000D02*
X172720000Y-45720000D01*
X190500000Y-36830000D02*
X189209989Y-38120011D01*
X180319989Y-53319989D02*
X181610000Y-54610000D01*
X172720000Y-54610000D02*
X174010011Y-53319989D01*
X189209989Y-38120011D02*
X182900011Y-38120011D01*
X174010011Y-53319989D02*
X180319989Y-53319989D01*
X181610000Y-36830000D02*
X180319989Y-38120011D01*
%TO.N,Net-(D1-Pad2)*%
X172720000Y-142240000D02*
X172720000Y-133350000D01*
X190500000Y-151130000D02*
X190500000Y-142240000D01*
X190500000Y-133350000D02*
X190500000Y-142240000D01*
X190500000Y-115570000D02*
X190500000Y-124460000D01*
X189209989Y-149839989D02*
X190500000Y-151130000D01*
X182900011Y-149839989D02*
X189209989Y-149839989D01*
X172720000Y-151130000D02*
X174010011Y-149839989D01*
X190500000Y-133350000D02*
X190500000Y-124460000D01*
X172720000Y-151130000D02*
X172720000Y-142240000D01*
X180319989Y-149839989D02*
X181610000Y-151130000D01*
X172720000Y-124460000D02*
X172720000Y-115570000D01*
X174010011Y-149839989D02*
X180319989Y-149839989D01*
X172720000Y-133350000D02*
X172720000Y-124460000D01*
X181610000Y-151130000D02*
X182900011Y-149839989D01*
%TO.N,Net-(D11-Pad2)*%
X118130011Y-53319989D02*
X124439989Y-53319989D01*
X125730000Y-72390000D02*
X127020011Y-71099989D01*
X116840000Y-45720000D02*
X116840000Y-54610000D01*
X133329989Y-71099989D02*
X134620000Y-72390000D01*
X127020011Y-38120011D02*
X125730000Y-36830000D01*
X124439989Y-53319989D02*
X125730000Y-54610000D01*
X116840000Y-63500000D02*
X116840000Y-72390000D01*
X118130011Y-71099989D02*
X124439989Y-71099989D01*
X116840000Y-36830000D02*
X116840000Y-45720000D01*
X127020011Y-71099989D02*
X133329989Y-71099989D01*
X125730000Y-36830000D02*
X124439989Y-38120011D01*
X127020011Y-53319989D02*
X133329989Y-53319989D01*
X134620000Y-36830000D02*
X133329989Y-38120011D01*
X124439989Y-71099989D02*
X125730000Y-72390000D01*
X118130011Y-38120011D02*
X116840000Y-36830000D01*
X116840000Y-72390000D02*
X118130011Y-71099989D01*
X133329989Y-53319989D02*
X134620000Y-54610000D01*
X125730000Y-54610000D02*
X127020011Y-53319989D01*
X133329989Y-38120011D02*
X127020011Y-38120011D01*
X124439989Y-38120011D02*
X118130011Y-38120011D01*
X116840000Y-54610000D02*
X118130011Y-53319989D01*
%TO.N,Net-(R3-Pad2)*%
X228600000Y-97790000D02*
X228600000Y-101600000D01*
X219720000Y-87640000D02*
X228600000Y-96520000D01*
X228600000Y-96520000D02*
X228600000Y-97790000D01*
%TO.N,Net-(C1-Pad1)*%
X219720000Y-90180000D02*
X215900000Y-94000000D01*
X215900000Y-91440000D02*
X212100000Y-87640000D01*
X215900000Y-94000000D02*
X215900000Y-91440000D01*
X215900000Y-101600000D02*
X215900000Y-113030000D01*
X215900000Y-113030000D02*
X214630000Y-114300000D01*
X215900000Y-94000000D02*
X215900000Y-101600000D01*
%TO.N,Net-(D23-Pad2)*%
X153670000Y-36830000D02*
X152379989Y-35539989D01*
X144780000Y-45720000D02*
X144780000Y-54610000D01*
X144780000Y-54610000D02*
X144780000Y-63500000D01*
X152379989Y-35539989D02*
X146070011Y-35539989D01*
X144780000Y-63500000D02*
X144780000Y-72390000D01*
X144780000Y-72390000D02*
X146070011Y-71099989D01*
X152379989Y-71099989D02*
X153670000Y-72390000D01*
X161269989Y-35539989D02*
X154960011Y-35539989D01*
X146070011Y-71099989D02*
X152379989Y-71099989D01*
X154960011Y-35539989D02*
X153670000Y-36830000D01*
X153670000Y-72390000D02*
X154960011Y-71099989D01*
X146070011Y-35539989D02*
X144780000Y-36830000D01*
X161269989Y-71099989D02*
X162560000Y-72390000D01*
X154960011Y-71099989D02*
X161269989Y-71099989D01*
X144780000Y-36830000D02*
X144780000Y-45720000D01*
X162560000Y-36830000D02*
X161269989Y-35539989D01*
%TO.N,Net-(D42-Pad2)*%
X134620000Y-115570000D02*
X134620000Y-124460000D01*
X125730000Y-115570000D02*
X127020011Y-116860011D01*
X134620000Y-142240000D02*
X134620000Y-133350000D01*
X134620000Y-151130000D02*
X134620000Y-142240000D01*
X116840000Y-115570000D02*
X116840000Y-124460000D01*
X125730000Y-151130000D02*
X127020011Y-149839989D01*
X116840000Y-142240000D02*
X116840000Y-151130000D01*
X133329989Y-116860011D02*
X134620000Y-115570000D01*
X116840000Y-133350000D02*
X116840000Y-142240000D01*
X127020011Y-149839989D02*
X133329989Y-149839989D01*
X116840000Y-124460000D02*
X116840000Y-133350000D01*
X116840000Y-115570000D02*
X118130011Y-116860011D01*
X118130011Y-149839989D02*
X124439989Y-149839989D01*
X124439989Y-149839989D02*
X125730000Y-151130000D01*
X124439989Y-116860011D02*
X125730000Y-115570000D01*
X118130011Y-116860011D02*
X124439989Y-116860011D01*
X134620000Y-124460000D02*
X134620000Y-133350000D01*
X133329989Y-149839989D02*
X134620000Y-151130000D01*
X116840000Y-151130000D02*
X118130011Y-149839989D01*
X127020011Y-116860011D02*
X133329989Y-116860011D01*
%TO.N,Net-(D46-Pad2)*%
X144800011Y-133350000D02*
X146090022Y-132059989D01*
X152400000Y-132059989D02*
X153690011Y-133350000D01*
X146090022Y-114279989D02*
X144800011Y-115570000D01*
X152400000Y-152420011D02*
X146090022Y-152420011D01*
X152400000Y-114279989D02*
X146090022Y-114279989D01*
X161290000Y-132059989D02*
X162580011Y-133350000D01*
X146090022Y-132059989D02*
X152400000Y-132059989D01*
X154980022Y-132059989D02*
X161290000Y-132059989D01*
X162580011Y-151130000D02*
X161290000Y-152420011D01*
X154980022Y-114279989D02*
X153690011Y-115570000D01*
X161290000Y-114279989D02*
X154980022Y-114279989D01*
X153690011Y-133350000D02*
X154980022Y-132059989D01*
X154980022Y-152420011D02*
X153690011Y-151130000D01*
X162580011Y-115570000D02*
X161290000Y-114279989D01*
X144800011Y-124460000D02*
X144800011Y-133350000D01*
X146090022Y-152420011D02*
X144800011Y-151130000D01*
X162580011Y-142240000D02*
X162580011Y-151130000D01*
X153690011Y-151130000D02*
X152400000Y-152420011D01*
X161290000Y-152420011D02*
X154980022Y-152420011D01*
X153690011Y-115570000D02*
X152400000Y-114279989D01*
X162580011Y-133350000D02*
X162580011Y-142240000D01*
%TO.N,Net-(Q4-Pad2)*%
X193040000Y-62369000D02*
X193040000Y-82550000D01*
X195719000Y-59690000D02*
X193040000Y-62369000D01*
X196850000Y-59690000D02*
X195719000Y-59690000D01*
X193040000Y-82550000D02*
X195580000Y-85090000D01*
%TO.N,Net-(R13-Pad1)*%
X181620000Y-97780000D02*
X189250000Y-105410000D01*
X189250000Y-105410000D02*
X195580000Y-105410000D01*
%TO.N,Net-(C7-Pad1)*%
X142260011Y-124460000D02*
X142260011Y-133350000D01*
X151150011Y-115570000D02*
X149860000Y-116860011D01*
X158750000Y-134640011D02*
X160040011Y-133350000D01*
X149860000Y-134640011D02*
X151150011Y-133350000D01*
X160040011Y-142240000D02*
X160040011Y-151130000D01*
X158750000Y-116860011D02*
X152440022Y-116860011D01*
X152440022Y-116860011D02*
X151150011Y-115570000D01*
X152440022Y-134640011D02*
X158750000Y-134640011D01*
X158750000Y-149839989D02*
X152440022Y-149839989D01*
X151150011Y-133350000D02*
X152440022Y-134640011D01*
X149860000Y-149839989D02*
X143550022Y-149839989D01*
X160040011Y-115570000D02*
X158750000Y-116860011D01*
X196850000Y-128270000D02*
X204470000Y-128270000D01*
X151150011Y-151130000D02*
X149860000Y-149839989D01*
X143550022Y-149839989D02*
X142260011Y-151130000D01*
X142260011Y-115570000D02*
X142260011Y-124460000D01*
X160040011Y-133350000D02*
X160040011Y-142240000D01*
X143550022Y-134640011D02*
X149860000Y-134640011D01*
X142260011Y-133350000D02*
X143550022Y-134640011D01*
X149860000Y-116860011D02*
X143550022Y-116860011D01*
X143550022Y-116860011D02*
X142260011Y-115570000D01*
X160040011Y-151130000D02*
X158750000Y-149839989D01*
X152440022Y-149839989D02*
X151150011Y-151130000D01*
%TO.N,Net-(C6-Pad1)*%
X114300000Y-133350000D02*
X114300000Y-142240000D01*
X132080000Y-133350000D02*
X132080000Y-124460000D01*
X124480011Y-114279989D02*
X123190000Y-115570000D01*
X196850000Y-134620000D02*
X204470000Y-134620000D01*
X114300000Y-124460000D02*
X114300000Y-133350000D01*
X123190000Y-115570000D02*
X121899989Y-114279989D01*
X124480011Y-152420011D02*
X130789989Y-152420011D01*
X114300000Y-115570000D02*
X114300000Y-124460000D01*
X132080000Y-142240000D02*
X132080000Y-133350000D01*
X115590011Y-152420011D02*
X121899989Y-152420011D01*
X114300000Y-142240000D02*
X114300000Y-151130000D01*
X123190000Y-151130000D02*
X124480011Y-152420011D01*
X132080000Y-115570000D02*
X130789989Y-114279989D01*
X114300000Y-151130000D02*
X115590011Y-152420011D01*
X130789989Y-152420011D02*
X132080000Y-151130000D01*
X130789989Y-114279989D02*
X124480011Y-114279989D01*
X121899989Y-114279989D02*
X115590011Y-114279989D01*
X121899989Y-152420011D02*
X123190000Y-151130000D01*
X115590011Y-114279989D02*
X114300000Y-115570000D01*
%TO.N,Net-(C5-Pad1)*%
X191770000Y-58420000D02*
X196850000Y-58420000D01*
X179070000Y-72390000D02*
X180360011Y-73680011D01*
X170180000Y-36830000D02*
X170180000Y-45720000D01*
X179070000Y-36830000D02*
X177779989Y-35539989D01*
X171470011Y-73680011D02*
X177779989Y-73680011D01*
X171470011Y-35539989D02*
X170180000Y-36830000D01*
X196850000Y-58420000D02*
X204470000Y-58420000D01*
X186669989Y-73680011D02*
X187960000Y-72390000D01*
X186669989Y-35539989D02*
X180360011Y-35539989D01*
X170180000Y-45720000D02*
X170180000Y-54610000D01*
X170180000Y-54610000D02*
X170180000Y-63500000D01*
X187960000Y-54610000D02*
X191770000Y-58420000D01*
X177779989Y-73680011D02*
X179070000Y-72390000D01*
X180360011Y-35539989D02*
X179070000Y-36830000D01*
X170180000Y-72390000D02*
X171470011Y-73680011D01*
X170180000Y-63500000D02*
X170180000Y-72390000D01*
X177779989Y-35539989D02*
X171470011Y-35539989D01*
X187960000Y-36830000D02*
X186669989Y-35539989D01*
X180360011Y-73680011D02*
X186669989Y-73680011D01*
%TO.N,Net-(C4-Pad1)*%
X152420011Y-38120011D02*
X151130000Y-36830000D01*
X142240000Y-63500000D02*
X142240000Y-54610000D01*
X160020000Y-36830000D02*
X158729989Y-38120011D01*
X142240000Y-45720000D02*
X142240000Y-36830000D01*
X158729989Y-73680011D02*
X160020000Y-72390000D01*
X158729989Y-38120011D02*
X152420011Y-38120011D01*
X142240000Y-72390000D02*
X143530011Y-73680011D01*
X142240000Y-54610000D02*
X142240000Y-45720000D01*
X151130000Y-72390000D02*
X152420011Y-73680011D01*
X152420011Y-73680011D02*
X158729989Y-73680011D01*
X142240000Y-63500000D02*
X142240000Y-72390000D01*
X149839989Y-73680011D02*
X151130000Y-72390000D01*
X196850000Y-64770000D02*
X204470000Y-64770000D01*
X143530011Y-73680011D02*
X149839989Y-73680011D01*
%TO.N,Net-(C3-Pad1)*%
X124480011Y-55900011D02*
X130789989Y-55900011D01*
X114300000Y-63500000D02*
X114300000Y-72390000D01*
X114300000Y-54610000D02*
X115590011Y-55900011D01*
X130789989Y-55900011D02*
X132080000Y-54610000D01*
X124480011Y-35539989D02*
X123190000Y-36830000D01*
X130789989Y-73680011D02*
X132080000Y-72390000D01*
X121899989Y-55900011D02*
X123190000Y-54610000D01*
X114300000Y-54610000D02*
X114300000Y-63500000D01*
X121899989Y-35539989D02*
X115590011Y-35539989D01*
X132080000Y-36830000D02*
X130789989Y-35539989D01*
X115590011Y-73680011D02*
X121899989Y-73680011D01*
X130789989Y-35539989D02*
X124480011Y-35539989D01*
X123190000Y-36830000D02*
X121899989Y-35539989D01*
X114300000Y-72390000D02*
X115590011Y-73680011D01*
X121899989Y-73680011D02*
X123190000Y-72390000D01*
X196850000Y-71120000D02*
X204470000Y-71120000D01*
X114300000Y-45720000D02*
X114300000Y-54610000D01*
X124480011Y-73680011D02*
X130789989Y-73680011D01*
X115590011Y-35539989D02*
X114300000Y-36830000D01*
X115590011Y-55900011D02*
X121899989Y-55900011D01*
X114300000Y-36830000D02*
X114300000Y-45720000D01*
X123190000Y-72390000D02*
X124480011Y-73680011D01*
X123190000Y-54610000D02*
X124480011Y-55900011D01*
%TO.N,Net-(C2-Pad1)*%
X170180000Y-133350000D02*
X170180000Y-142240000D01*
X170180000Y-142240000D02*
X170180000Y-151130000D01*
X171470011Y-152420011D02*
X177779989Y-152420011D01*
X187960000Y-124460000D02*
X187960000Y-133350000D01*
X187960000Y-142240000D02*
X187960000Y-133350000D01*
X186669989Y-152420011D02*
X187960000Y-151130000D01*
X196850000Y-121920000D02*
X204470000Y-121920000D01*
X187960000Y-124460000D02*
X187960000Y-115570000D01*
X170180000Y-151130000D02*
X171470011Y-152420011D01*
X177779989Y-152420011D02*
X179070000Y-151130000D01*
X170180000Y-115570000D02*
X170180000Y-124460000D01*
X180360011Y-152420011D02*
X186669989Y-152420011D01*
X179070000Y-151130000D02*
X180360011Y-152420011D01*
X170180000Y-124460000D02*
X170180000Y-133350000D01*
D24*
%TO.N,Net-(U2-Pad7)*%
X181620000Y-85080000D02*
X181620000Y-87620000D01*
%TD*%
M02*
