%TF.GenerationSoftware,KiCad,Pcbnew,(6.0.2)*%
%TF.CreationDate,2022-04-07T11:24:37-04:00*%
%TF.ProjectId,Grad_Cap_v2,47726164-5f43-4617-905f-76322e6b6963,v01*%
%TF.SameCoordinates,Original*%
%TF.FileFunction,Soldermask,Top*%
%TF.FilePolarity,Negative*%
%FSLAX46Y46*%
G04 Gerber Fmt 4.6, Leading zero omitted, Abs format (unit mm)*
G04 Created by KiCad (PCBNEW (6.0.2)) date 2022-04-07 11:24:37*
%MOMM*%
%LPD*%
G01*
G04 APERTURE LIST*
%ADD10R,1.600000X1.600000*%
%ADD11O,1.600000X1.600000*%
%ADD12R,1.800000X1.800000*%
%ADD13C,1.800000*%
%ADD14R,1.200000X1.200000*%
%ADD15C,1.200000*%
%ADD16C,1.600000*%
%ADD17C,2.700000*%
%ADD18R,1.500000X1.050000*%
%ADD19O,1.500000X1.050000*%
%ADD20C,5.570000*%
%ADD21O,1.750000X3.300000*%
%ADD22R,1.900000X1.900000*%
%ADD23C,1.900000*%
G04 APERTURE END LIST*
D10*
%TO.C,U3*%
X181620000Y-85080000D03*
D11*
X181620000Y-87620000D03*
X181620000Y-90160000D03*
X181620000Y-92700000D03*
X181620000Y-95240000D03*
X181620000Y-97780000D03*
X181620000Y-100320000D03*
X189240000Y-100320000D03*
X189240000Y-97780000D03*
X189240000Y-95240000D03*
X189240000Y-92700000D03*
X189240000Y-90160000D03*
X189240000Y-87620000D03*
X189240000Y-85080000D03*
%TD*%
D12*
%TO.C,D30*%
X151130000Y-72390000D03*
D13*
X153670000Y-72390000D03*
%TD*%
D12*
%TO.C,D4*%
X170180000Y-133350000D03*
D13*
X172720000Y-133350000D03*
%TD*%
D12*
%TO.C,D32*%
X170180000Y-36830000D03*
D13*
X172720000Y-36830000D03*
%TD*%
D14*
%TO.C,C7*%
X204470000Y-128270000D03*
D15*
X204470000Y-130270000D03*
%TD*%
D10*
%TO.C,U1*%
X212100000Y-85100000D03*
D11*
X212100000Y-87640000D03*
X212100000Y-90180000D03*
X212100000Y-92720000D03*
X219720000Y-92720000D03*
X219720000Y-90180000D03*
X219720000Y-87640000D03*
X219720000Y-85100000D03*
%TD*%
D12*
%TO.C,D18*%
X187960000Y-124460000D03*
D13*
X190500000Y-124460000D03*
%TD*%
D12*
%TO.C,D20*%
X187960000Y-115570000D03*
D13*
X190500000Y-115570000D03*
%TD*%
D12*
%TO.C,D14*%
X187960000Y-151130000D03*
D13*
X190500000Y-151130000D03*
%TD*%
D12*
%TO.C,D3*%
X114300000Y-36830000D03*
D13*
X116840000Y-36830000D03*
%TD*%
D12*
%TO.C,D47*%
X114300000Y-142240000D03*
D13*
X116840000Y-142240000D03*
%TD*%
D12*
%TO.C,D63*%
X123190000Y-151130000D03*
D13*
X125730000Y-151130000D03*
%TD*%
D14*
%TO.C,C3*%
X204470000Y-71120000D03*
D15*
X204470000Y-73120000D03*
%TD*%
D12*
%TO.C,D5*%
X114300000Y-45720000D03*
D13*
X116840000Y-45720000D03*
%TD*%
D12*
%TO.C,D33*%
X170180000Y-45720000D03*
D13*
X172720000Y-45720000D03*
%TD*%
D14*
%TO.C,C6*%
X204470000Y-134620000D03*
D15*
X204470000Y-136620000D03*
%TD*%
D12*
%TO.C,D25*%
X142240000Y-54610000D03*
D13*
X144780000Y-54610000D03*
%TD*%
D16*
%TO.C,R6*%
X93980000Y-62230000D03*
D11*
X106680000Y-62230000D03*
%TD*%
D14*
%TO.C,C1*%
X214630000Y-114300000D03*
D15*
X214630000Y-116300000D03*
%TD*%
D16*
%TO.C,R13*%
X195580000Y-105410000D03*
D11*
X195580000Y-118110000D03*
%TD*%
D12*
%TO.C,D38*%
X187960000Y-36830000D03*
D13*
X190500000Y-36830000D03*
%TD*%
D17*
%TO.C,REF\u002A\u002A*%
X69850000Y-81280000D03*
%TD*%
D12*
%TO.C,D16*%
X187960000Y-133350000D03*
D13*
X190500000Y-133350000D03*
%TD*%
D17*
%TO.C,REF\u002A\u002A*%
X69850000Y-106680000D03*
%TD*%
D12*
%TO.C,D51*%
X123190000Y-115570000D03*
D13*
X125730000Y-115570000D03*
%TD*%
D17*
%TO.C,REF\u002A\u002A*%
X234950000Y-106680000D03*
%TD*%
D12*
%TO.C,D40*%
X187960000Y-54610000D03*
D13*
X190500000Y-54610000D03*
%TD*%
D16*
%TO.C,R3*%
X228600000Y-85090000D03*
D11*
X228600000Y-97790000D03*
%TD*%
D12*
%TO.C,D24*%
X142240000Y-45720000D03*
D13*
X144780000Y-45720000D03*
%TD*%
D14*
%TO.C,C2*%
X204470000Y-121920000D03*
D15*
X204470000Y-123920000D03*
%TD*%
D14*
%TO.C,C5*%
X204470000Y-58420000D03*
D15*
X204470000Y-60420000D03*
%TD*%
D12*
%TO.C,D28*%
X151130000Y-36830000D03*
D13*
X153670000Y-36830000D03*
%TD*%
D12*
%TO.C,D22*%
X132080000Y-72390000D03*
D13*
X134620000Y-72390000D03*
%TD*%
D12*
%TO.C,D15*%
X132080000Y-36830000D03*
D13*
X134620000Y-36830000D03*
%TD*%
D12*
%TO.C,D1*%
X170180000Y-115570000D03*
D13*
X172720000Y-115570000D03*
%TD*%
D18*
%TO.C,Q1*%
X196850000Y-124460000D03*
D19*
X196850000Y-123190000D03*
X196850000Y-121920000D03*
%TD*%
D12*
%TO.C,D64*%
X151150011Y-151130000D03*
D13*
X153690011Y-151130000D03*
%TD*%
D12*
%TO.C,D50*%
X142260011Y-133350000D03*
D13*
X144800011Y-133350000D03*
%TD*%
D12*
%TO.C,D60*%
X151150011Y-115570000D03*
D13*
X153690011Y-115570000D03*
%TD*%
D12*
%TO.C,D37*%
X179070000Y-36830000D03*
D13*
X181610000Y-36830000D03*
%TD*%
D12*
%TO.C,D61*%
X132080000Y-151130000D03*
D13*
X134620000Y-151130000D03*
%TD*%
D12*
%TO.C,D58*%
X160040011Y-151130000D03*
D13*
X162580011Y-151130000D03*
%TD*%
D12*
%TO.C,D44*%
X114300000Y-124460000D03*
D13*
X116840000Y-124460000D03*
%TD*%
D18*
%TO.C,Q5*%
X196850000Y-137160000D03*
D19*
X196850000Y-135890000D03*
X196850000Y-134620000D03*
%TD*%
D17*
%TO.C,REF\u002A\u002A*%
X165100000Y-11430000D03*
%TD*%
D12*
%TO.C,D21*%
X132080000Y-54610000D03*
D13*
X134620000Y-54610000D03*
%TD*%
D12*
%TO.C,D36*%
X170180000Y-72390000D03*
D13*
X172720000Y-72390000D03*
%TD*%
D12*
%TO.C,D31*%
X160020000Y-72390000D03*
D13*
X162560000Y-72390000D03*
%TD*%
D16*
%TO.C,R10*%
X200660000Y-97790000D03*
D11*
X200660000Y-85090000D03*
%TD*%
D18*
%TO.C,Q2*%
X196850000Y-73660000D03*
D19*
X196850000Y-72390000D03*
X196850000Y-71120000D03*
%TD*%
D12*
%TO.C,D35*%
X170180000Y-63500000D03*
D13*
X172720000Y-63500000D03*
%TD*%
D12*
%TO.C,D29*%
X160020000Y-36830000D03*
D13*
X162560000Y-36830000D03*
%TD*%
D12*
%TO.C,D52*%
X151150011Y-133350000D03*
D13*
X153690011Y-133350000D03*
%TD*%
D17*
%TO.C,REF\u002A\u002A*%
X234950000Y-81280000D03*
%TD*%
D16*
%TO.C,R2*%
X93980000Y-72390000D03*
D11*
X106680000Y-72390000D03*
%TD*%
D17*
%TO.C,REF\u002A\u002A*%
X139700000Y-11430000D03*
%TD*%
D12*
%TO.C,D42*%
X114300000Y-115570000D03*
D13*
X116840000Y-115570000D03*
%TD*%
D12*
%TO.C,D8*%
X170180000Y-142240000D03*
D13*
X172720000Y-142240000D03*
%TD*%
D12*
%TO.C,D10*%
X170180000Y-151130000D03*
D13*
X172720000Y-151130000D03*
%TD*%
D12*
%TO.C,D7*%
X114300000Y-54610000D03*
D13*
X116840000Y-54610000D03*
%TD*%
D12*
%TO.C,D53*%
X132080000Y-115570000D03*
D13*
X134620000Y-115570000D03*
%TD*%
D12*
%TO.C,D56*%
X160040011Y-142240000D03*
D13*
X162580011Y-142240000D03*
%TD*%
D12*
%TO.C,D65*%
X142260011Y-151130000D03*
D13*
X144800011Y-151130000D03*
%TD*%
D16*
%TO.C,R4*%
X228600000Y-101600000D03*
D11*
X215900000Y-101600000D03*
%TD*%
D12*
%TO.C,D46*%
X142260011Y-115570000D03*
D13*
X144800011Y-115570000D03*
%TD*%
D12*
%TO.C,D54*%
X160040011Y-133350000D03*
D13*
X162580011Y-133350000D03*
%TD*%
D12*
%TO.C,D41*%
X179070000Y-72390000D03*
D13*
X181610000Y-72390000D03*
%TD*%
D12*
%TO.C,D43*%
X187960000Y-72390000D03*
D13*
X190500000Y-72390000D03*
%TD*%
D17*
%TO.C,REF\u002A\u002A*%
X165100000Y-176530000D03*
%TD*%
D16*
%TO.C,R1*%
X93980000Y-118110000D03*
D11*
X106680000Y-118110000D03*
%TD*%
D18*
%TO.C,Q4*%
X196850000Y-60960000D03*
D19*
X196850000Y-59690000D03*
X196850000Y-58420000D03*
%TD*%
D12*
%TO.C,D23*%
X142240000Y-36830000D03*
D13*
X144780000Y-36830000D03*
%TD*%
D20*
%TO.C,BAT1*%
X104620000Y-106320000D03*
X118110000Y-83820000D03*
X91240000Y-83820000D03*
D21*
X130730000Y-101510000D03*
X130730000Y-88560000D03*
%TD*%
D12*
%TO.C,D19*%
X123190000Y-54610000D03*
D13*
X125730000Y-54610000D03*
%TD*%
D22*
%TO.C,S1*%
X135890000Y-93980000D03*
D23*
X135890000Y-91480000D03*
X135890000Y-88980000D03*
%TD*%
D12*
%TO.C,D13*%
X123190000Y-72390000D03*
D13*
X125730000Y-72390000D03*
%TD*%
D12*
%TO.C,D12*%
X179070000Y-151130000D03*
D13*
X181610000Y-151130000D03*
%TD*%
D12*
%TO.C,D11*%
X114300000Y-72390000D03*
D13*
X116840000Y-72390000D03*
%TD*%
D12*
%TO.C,D6*%
X187960000Y-142240000D03*
D13*
X190500000Y-142240000D03*
%TD*%
D12*
%TO.C,D59*%
X132080000Y-142240000D03*
D13*
X134620000Y-142240000D03*
%TD*%
D14*
%TO.C,C4*%
X204470000Y-64770000D03*
D15*
X204470000Y-66770000D03*
%TD*%
D12*
%TO.C,D26*%
X142240000Y-63500000D03*
D13*
X144780000Y-63500000D03*
%TD*%
D10*
%TO.C,U2*%
X168910000Y-85080000D03*
D11*
X168910000Y-87620000D03*
X168910000Y-90160000D03*
X168910000Y-92700000D03*
X168910000Y-95240000D03*
X168910000Y-97780000D03*
X168910000Y-100320000D03*
X168910000Y-102860000D03*
X176530000Y-102860000D03*
X176530000Y-100320000D03*
X176530000Y-97780000D03*
X176530000Y-95240000D03*
X176530000Y-92700000D03*
X176530000Y-90160000D03*
X176530000Y-87620000D03*
X176530000Y-85080000D03*
%TD*%
D12*
%TO.C,D62*%
X160040011Y-115570000D03*
D13*
X162580011Y-115570000D03*
%TD*%
D12*
%TO.C,D34*%
X170180000Y-54610000D03*
D13*
X172720000Y-54610000D03*
%TD*%
D12*
%TO.C,D17*%
X123190000Y-36830000D03*
D13*
X125730000Y-36830000D03*
%TD*%
D16*
%TO.C,R12*%
X195580000Y-97790000D03*
D11*
X195580000Y-85090000D03*
%TD*%
D16*
%TO.C,R7*%
X93980000Y-128270000D03*
D11*
X106680000Y-128270000D03*
%TD*%
D18*
%TO.C,Q3*%
X196850000Y-67310000D03*
D19*
X196850000Y-66040000D03*
X196850000Y-64770000D03*
%TD*%
D12*
%TO.C,D45*%
X114300000Y-133350000D03*
D13*
X116840000Y-133350000D03*
%TD*%
D16*
%TO.C,R5*%
X93980000Y-67310000D03*
D11*
X106680000Y-67310000D03*
%TD*%
D16*
%TO.C,R14*%
X200660000Y-105410000D03*
D11*
X200660000Y-118110000D03*
%TD*%
D16*
%TO.C,R9*%
X205740000Y-105410000D03*
D11*
X205740000Y-118110000D03*
%TD*%
D12*
%TO.C,D2*%
X170180000Y-124460000D03*
D13*
X172720000Y-124460000D03*
%TD*%
D12*
%TO.C,D27*%
X142240000Y-72390000D03*
D13*
X144780000Y-72390000D03*
%TD*%
D16*
%TO.C,R11*%
X205740000Y-97790000D03*
D11*
X205740000Y-85090000D03*
%TD*%
D16*
%TO.C,R8*%
X93980000Y-123190000D03*
D11*
X106680000Y-123190000D03*
%TD*%
D12*
%TO.C,D39*%
X179070000Y-54610000D03*
D13*
X181610000Y-54610000D03*
%TD*%
D12*
%TO.C,D49*%
X114300000Y-151130000D03*
D13*
X116840000Y-151130000D03*
%TD*%
D17*
%TO.C,REF\u002A\u002A*%
X139700000Y-176530000D03*
%TD*%
D12*
%TO.C,D48*%
X142260011Y-124460000D03*
D13*
X144800011Y-124460000D03*
%TD*%
D12*
%TO.C,D57*%
X132080000Y-133350000D03*
D13*
X134620000Y-133350000D03*
%TD*%
D18*
%TO.C,Q6*%
X196850000Y-130810000D03*
D19*
X196850000Y-129540000D03*
X196850000Y-128270000D03*
%TD*%
D12*
%TO.C,D9*%
X114300000Y-63500000D03*
D13*
X116840000Y-63500000D03*
%TD*%
D12*
%TO.C,D55*%
X132080000Y-124460000D03*
D13*
X134620000Y-124460000D03*
%TD*%
M02*
